<svg width="87" height="27" viewBox="0 0 87 27" fill="none" xmlns="http://www.w3.org/2000/svg">
<g clip-path="url(#clip0_587_86)">
<path d="M15.7862 22.7046V26.7955C15.0454 26.9233 14.2791 27 13.4872 27C9.83445 27 6.51372 25.5426 4.08704 23.1904C1.55818 20.7358 0 17.3097 0 13.5256C0 9.74151 1.55818 6.31538 4.08704 3.86084V13.5256C4.08704 15.5966 4.75119 17.5398 5.90067 19.0995C7.61212 21.4773 10.3964 23.0114 13.5639 23.0114C14.3302 22.9858 15.071 22.8836 15.7862 22.7046Z" fill="url(#paint0_linear_587_86)"/>
<path d="M23.041 23.0625V13.5256C23.041 11.4545 22.3768 9.51136 21.2273 7.9517C19.5159 5.57386 16.7316 4.03977 13.5641 4.03977C12.7978 4.03977 12.057 4.14205 11.3418 4.29546V0.17898C12.057 0.0511394 12.7723 0 13.513 0C20.9463 0 27.0003 6.03409 27.0003 13.5C27.0003 17.2329 25.4676 20.6079 23.041 23.0625Z" fill="url(#paint1_linear_587_86)"/>
<path d="M15.7869 16.8751V20.8382C15.0717 21.0427 14.3309 21.1706 13.5646 21.1706C9.34981 21.1706 5.90137 17.7444 5.90137 13.5001V2.35241C6.99976 1.61093 8.20033 1.02286 9.47753 0.61377V13.449C9.47753 15.699 11.3167 17.5399 13.5646 17.5399C14.4075 17.5399 15.1483 17.2842 15.7869 16.8751Z" fill="url(#paint2_linear_587_86)"/>
<path d="M21.2273 13.5V24.5455C20.1545 25.3125 18.9284 25.9006 17.6512 26.3352V13.4489C17.6512 11.1989 15.8375 9.35799 13.5641 9.35799C12.7467 9.35799 11.9804 9.61368 11.3418 10.0228V6.16197C12.057 5.95743 12.7978 5.82959 13.5641 5.82959C17.8044 5.85516 21.2273 9.28129 21.2273 13.5Z" fill="url(#paint3_linear_587_86)"/>
<path fill-rule="evenodd" clip-rule="evenodd" d="M31.0137 5.60293C31.8241 4.78665 32.8818 4.21623 34.065 4.01343C34.0742 4.08813 34.0789 4.16455 34.0789 4.24271V11.1576C34.2353 10.8907 34.447 10.6421 34.714 10.412C34.9809 10.1819 35.2801 9.98399 35.6115 9.81831C35.9428 9.64342 36.2926 9.50995 36.6608 9.4179C37.029 9.31665 37.3972 9.26602 37.7654 9.26602C38.6858 9.26602 39.5557 9.44551 40.3749 9.8045C41.1941 10.1543 41.9075 10.6375 42.515 11.2542C43.1225 11.8618 43.6012 12.5751 43.951 13.3944C44.3099 14.2136 44.4894 15.088 44.4894 16.0177C44.4894 16.9474 44.3099 17.8218 43.951 18.6411C43.6012 19.4511 43.1225 20.1599 42.515 20.7674C41.9075 21.3749 41.1941 21.8581 40.3749 22.2171C39.5557 22.5669 38.6858 22.7418 37.7654 22.7418C36.8357 22.7418 35.9612 22.5669 35.142 22.2171C34.332 21.8581 33.6186 21.3749 33.0019 20.7674C32.3852 20.1599 31.8973 19.4511 31.5383 18.6411C31.1886 17.8218 31.0137 16.9474 31.0137 16.0177V5.60293ZM34.0927 16.0177C34.0927 16.524 34.1893 16.998 34.3826 17.4398C34.5759 17.8817 34.8383 18.2683 35.1696 18.5996C35.501 18.931 35.8876 19.1934 36.3294 19.3867C36.7805 19.5708 37.2591 19.6628 37.7654 19.6628C38.2716 19.6628 38.7457 19.5708 39.1875 19.3867C39.6385 19.1934 40.0297 18.931 40.3611 18.5996C40.6925 18.2683 40.9502 17.8817 41.1343 17.4398C41.3276 16.998 41.4243 16.524 41.4243 16.0177C41.4243 15.5115 41.3276 15.0374 41.1343 14.5956C40.9502 14.1537 40.6925 13.7671 40.3611 13.4358C40.0297 13.1044 39.6385 12.8467 39.1875 12.6626C38.7457 12.4693 38.2716 12.3726 37.7654 12.3726C37.2591 12.3726 36.7805 12.4693 36.3294 12.6626C35.8876 12.8467 35.501 13.1044 35.1696 13.4358C34.8383 13.7671 34.5759 14.1537 34.3826 14.5956C34.1893 15.0374 34.0927 15.5115 34.0927 16.0177Z" fill="url(#paint4_linear_587_86)"/>
<path d="M54.6515 6.21464C54.6515 5.98453 54.6929 5.76821 54.7758 5.56571C54.8678 5.3632 54.9875 5.18831 55.1347 5.04104C55.2912 4.88456 55.4707 4.76489 55.6732 4.68205C55.8757 4.59 56.0966 4.54398 56.336 4.54398C56.5661 4.54398 56.7824 4.59 56.9849 4.68205C57.1874 4.76489 57.3623 4.88456 57.5096 5.04104C57.6661 5.18831 57.7903 5.3632 57.8824 5.56571C57.9744 5.76821 58.0204 5.98453 58.0204 6.21464C58.0204 6.45397 57.9744 6.67488 57.8824 6.87739C57.7903 7.07989 57.6661 7.25938 57.5096 7.41586C57.3623 7.56314 57.1874 7.6828 56.9849 7.77485C56.7824 7.85769 56.5661 7.89911 56.336 7.89911C56.0966 7.89911 55.8757 7.85769 55.6732 7.77485C55.4707 7.6828 55.2912 7.56314 55.1347 7.41586C54.9875 7.25938 54.8678 7.07989 54.7758 6.87739C54.6929 6.67488 54.6515 6.45397 54.6515 6.21464Z" fill="url(#paint5_linear_587_86)"/>
<path d="M51.5521 22.5899C50.8986 22.5899 50.2864 22.4841 49.7158 22.2723C49.1543 22.0514 48.6618 21.7431 48.2384 21.3473C47.8242 20.9423 47.4928 20.4636 47.2443 19.9113C47.005 19.3498 46.8853 18.7285 46.8853 18.0474V5.9678C47.6957 5.15152 48.7534 4.5811 49.9366 4.37829C49.9459 4.45299 49.9505 4.52942 49.9505 4.60757V18.1164C49.9689 18.5858 50.1116 18.9448 50.3785 19.1934C50.6454 19.4419 51.0136 19.5708 51.4831 19.58H51.5521C51.773 19.58 51.9755 19.6214 52.1596 19.7042C52.3437 19.7779 52.5048 19.8837 52.6429 20.0218C52.7809 20.1599 52.8868 20.3209 52.9604 20.505C53.0341 20.6891 53.0709 20.887 53.0709 21.0987C53.0709 21.5406 52.9282 21.8996 52.6429 22.1757C52.3575 22.4518 51.9939 22.5899 51.5521 22.5899Z" fill="url(#paint6_linear_587_86)"/>
<path d="M63.6691 9.03032V4.79334C63.6691 4.71405 63.6644 4.63651 63.6551 4.56073C62.4579 4.76648 61.3528 5.34362 60.5328 6.17178L60.5333 16.0591C60.5333 16.998 60.7082 17.8771 61.058 18.6963C61.417 19.5063 61.9002 20.2151 62.5078 20.8226C63.1153 21.4209 63.8286 21.895 64.6479 22.2447C65.4671 22.5853 66.3461 22.7556 67.285 22.7556C68.1227 22.7556 68.9051 22.6175 69.6322 22.3414C70.3686 22.0652 71.0268 21.651 71.6067 21.0987C71.7908 20.9239 71.9288 20.7259 72.0209 20.505C72.1129 20.2841 72.159 20.054 72.159 19.8147C72.159 19.6122 72.1175 19.4235 72.0347 19.2486C71.9611 19.0645 71.8598 18.908 71.7309 18.7791C71.6021 18.6411 71.4548 18.5352 71.2891 18.4616C71.1234 18.3879 70.9531 18.3511 70.7782 18.3511C70.5389 18.3511 70.3318 18.4017 70.1569 18.503C69.982 18.595 69.8025 18.7193 69.6184 18.8758C69.2871 19.1611 68.9281 19.3682 68.5415 19.4971C68.1549 19.626 67.7361 19.6904 67.285 19.6904C66.7696 19.6904 66.2909 19.5984 65.8491 19.4143C65.4165 19.2302 65.0391 18.977 64.7169 18.6549C64.3947 18.3235 64.1416 17.9415 63.9575 17.5089C63.7734 17.0671 63.6814 16.593 63.6814 16.0867V12.0551H68.5277C68.7394 12.0551 68.9373 12.0182 69.1214 11.9446C69.3147 11.8618 69.4804 11.7559 69.6184 11.627C69.7565 11.489 69.867 11.3325 69.9498 11.1576C70.0327 10.9735 70.0741 10.7802 70.0741 10.5777C70.0741 10.366 70.0327 10.1681 69.9498 9.98399C69.867 9.79069 69.7565 9.62501 69.6184 9.48694C69.4804 9.34886 69.3147 9.23841 69.1214 9.15556C68.9373 9.07272 68.7394 9.0313 68.5277 9.0313L63.6691 9.03032Z" fill="url(#paint7_linear_587_86)"/>
<path d="M84.8615 9.37648C84.6866 9.30284 84.5117 9.26602 84.3369 9.26602L73.1556 9.26748C73.3584 10.4507 73.9288 11.5037 74.7451 12.3141H81.0002L73.5397 20.0218C73.3832 20.1783 73.2635 20.3486 73.1807 20.5326C73.107 20.7075 73.0748 20.887 73.084 21.0711C73.084 21.2644 73.1209 21.4531 73.1945 21.6372C73.2773 21.8121 73.3878 21.9732 73.5259 22.1205C73.6639 22.2585 73.825 22.3736 74.0091 22.4656C74.2024 22.5485 74.4095 22.5899 74.6304 22.5899H84.6544C84.8753 22.5899 85.0778 22.5531 85.2619 22.4795C85.4552 22.3966 85.6209 22.2862 85.759 22.1481C85.8971 22.01 86.0029 21.8489 86.0766 21.6648C86.1594 21.4807 86.2008 21.2828 86.2008 21.0711C86.2008 20.6477 86.0535 20.2979 85.759 20.0218C85.4644 19.7456 85.0962 19.6076 84.6544 19.6076H77.9027L85.3034 11.9584C85.469 11.8203 85.6025 11.6501 85.7038 11.4475C85.805 11.2358 85.8556 11.0103 85.8556 10.771V10.7434C85.8556 10.5133 85.8096 10.3108 85.7176 10.1359C85.6255 9.95177 85.5059 9.7953 85.3586 9.66643C85.2113 9.53756 85.0456 9.44091 84.8615 9.37648Z" fill="url(#paint8_linear_587_86)"/>
<path d="M57.7306 21.7891C57.8134 21.605 57.8548 21.4071 57.8548 21.1954V9.03032C56.6716 9.23312 55.5862 9.85593 54.7759 10.6722V21.1954C54.7759 21.4071 54.8173 21.605 54.9001 21.7891C54.983 21.9732 55.0934 22.1343 55.2315 22.2723C55.3788 22.4104 55.5445 22.5163 55.7285 22.5899C55.9218 22.6728 56.1244 22.7142 56.3361 22.7142C56.5478 22.7142 56.7457 22.6728 56.9298 22.5899C57.1139 22.5163 57.2749 22.4104 57.413 22.2723C57.5511 22.1343 57.6569 21.9732 57.7306 21.7891Z" fill="url(#paint9_linear_587_86)"/>
</g>
<defs>
<linearGradient id="paint0_linear_587_86" x1="-1.44864e-07" y1="15.9275" x2="15.7904" y2="15.6883" gradientUnits="userSpaceOnUse">
<stop stop-color="#018075"/>
<stop offset="1" stop-color="#04BFB6"/>
</linearGradient>
<linearGradient id="paint1_linear_587_86" x1="11.3418" y1="12.0266" x2="27.0044" y2="11.7905" gradientUnits="userSpaceOnUse">
<stop stop-color="#018075"/>
<stop offset="1" stop-color="#04BFB6"/>
</linearGradient>
<linearGradient id="paint2_linear_587_86" x1="5.90137" y1="11.3337" x2="15.7907" y2="11.2282" gradientUnits="userSpaceOnUse">
<stop stop-color="#018075"/>
<stop offset="1" stop-color="#04BFB6"/>
</linearGradient>
<linearGradient id="paint3_linear_587_86" x1="11.3418" y1="16.5229" x2="21.2311" y2="16.4171" gradientUnits="userSpaceOnUse">
<stop stop-color="#018075"/>
<stop offset="1" stop-color="#04BFB6"/>
</linearGradient>
<linearGradient id="paint4_linear_587_86" x1="31.0619" y1="14.3072" x2="86.1569" y2="13.5022" gradientUnits="userSpaceOnUse">
<stop stop-color="#018075"/>
<stop offset="0.489583" stop-color="#04BFB6"/>
<stop offset="0.9999" stop-color="#018075"/>
<stop offset="1"/>
</linearGradient>
<linearGradient id="paint5_linear_587_86" x1="31.0619" y1="14.3072" x2="86.1569" y2="13.5022" gradientUnits="userSpaceOnUse">
<stop stop-color="#018075"/>
<stop offset="0.489583" stop-color="#04BFB6"/>
<stop offset="0.9999" stop-color="#018075"/>
<stop offset="1"/>
</linearGradient>
<linearGradient id="paint6_linear_587_86" x1="31.0619" y1="14.3072" x2="86.1569" y2="13.5022" gradientUnits="userSpaceOnUse">
<stop stop-color="#018075"/>
<stop offset="0.489583" stop-color="#04BFB6"/>
<stop offset="0.9999" stop-color="#018075"/>
<stop offset="1"/>
</linearGradient>
<linearGradient id="paint7_linear_587_86" x1="31.0619" y1="14.3072" x2="86.1569" y2="13.5022" gradientUnits="userSpaceOnUse">
<stop stop-color="#018075"/>
<stop offset="0.489583" stop-color="#04BFB6"/>
<stop offset="0.9999" stop-color="#018075"/>
<stop offset="1"/>
</linearGradient>
<linearGradient id="paint8_linear_587_86" x1="31.0619" y1="14.3072" x2="86.1569" y2="13.5022" gradientUnits="userSpaceOnUse">
<stop stop-color="#018075"/>
<stop offset="0.489583" stop-color="#04BFB6"/>
<stop offset="0.9999" stop-color="#018075"/>
<stop offset="1"/>
</linearGradient>
<linearGradient id="paint9_linear_587_86" x1="31.0619" y1="14.3072" x2="86.1569" y2="13.5022" gradientUnits="userSpaceOnUse">
<stop stop-color="#018075"/>
<stop offset="0.489583" stop-color="#04BFB6"/>
<stop offset="0.9999" stop-color="#018075"/>
<stop offset="1"/>
</linearGradient>
<clipPath id="clip0_587_86">
<rect width="87" height="27" fill="white"/>
</clipPath>
</defs>
</svg>
