<svg width="87" height="27" viewBox="0 0 87 27" fill="none" xmlns="http://www.w3.org/2000/svg">
<g clip-path="url(#clip0_587_118)">
<path d="M23.0408 23.0625V13.5256C23.0408 11.4545 22.3767 9.51136 21.2272 7.9517C19.5157 5.57386 16.7314 4.03977 13.564 4.03977C12.7977 4.03977 12.0569 4.14205 11.3417 4.29545V0.17898C12.0569 0.0511394 12.7721 0 13.5129 0C20.9462 0 27.0001 6.03409 27.0001 13.5C27.0001 17.2329 25.4675 20.6079 23.0408 23.0625Z" fill="white"/>
<path d="M15.7862 22.7046V26.7955C15.0454 26.9234 14.2791 27.0001 13.4872 27.0001C9.83445 27.0001 6.51372 25.5427 4.08704 23.1904C1.55818 20.7359 0 17.3098 0 13.5257C0 9.74158 1.55818 6.31545 4.08704 3.86091V13.5257C4.08704 15.5967 4.75119 17.5399 5.90067 19.0995C7.61212 21.4774 10.3964 23.0115 13.5639 23.0115C14.3302 22.9859 15.071 22.8836 15.7862 22.7046Z" fill="white"/>
<path d="M15.7868 20.8381V16.875C15.1482 17.2841 14.4074 17.5398 13.5644 17.5398C11.3166 17.5398 9.47739 15.6989 9.47739 13.4489V0.613665C8.20019 1.02276 6.99962 1.61083 5.90123 2.3523V13.5C5.90123 17.7443 9.34967 21.1705 13.5644 21.1705C14.3308 21.1705 15.0715 21.0426 15.7868 20.8381Z" fill="white"/>
<path d="M21.2272 13.5001V24.5455C20.1543 25.3126 18.9282 25.9007 17.651 26.3353V13.449C17.651 11.199 15.8374 9.35806 13.564 9.35806C12.7466 9.35806 11.9803 9.61375 11.3417 10.0228V6.16204C12.0569 5.9575 12.7977 5.82966 13.564 5.82966C17.8043 5.85523 21.2272 9.28136 21.2272 13.5001Z" fill="white"/>
<path fillRule="evenodd" clipRule="evenodd" d="M34.065 4.01343C32.8818 4.21623 31.8241 4.78665 31.0137 5.60293V16.0177C31.0137 16.9474 31.1886 17.8218 31.5383 18.6411C31.8973 19.4511 32.3852 20.1599 33.0019 20.7674C33.6186 21.3749 34.332 21.8581 35.142 22.2171C35.9612 22.5669 36.8357 22.7418 37.7654 22.7418C38.6858 22.7418 39.5557 22.5669 40.3749 22.2171C41.1941 21.8581 41.9075 21.3749 42.515 20.7674C43.1225 20.1599 43.6012 19.4511 43.951 18.6411C44.3099 17.8218 44.4894 16.9474 44.4894 16.0177C44.4894 15.088 44.3099 14.2136 43.951 13.3944C43.6012 12.5751 43.1225 11.8618 42.515 11.2542C41.9075 10.6375 41.1941 10.1543 40.3749 9.8045C39.5557 9.44551 38.6858 9.26602 37.7654 9.26602C37.3972 9.26602 37.029 9.31664 36.6608 9.4179C36.2926 9.50994 35.9428 9.64342 35.6115 9.81831C35.2801 9.98399 34.9809 10.1819 34.714 10.412C34.447 10.6421 34.2353 10.8907 34.0789 11.1576V4.24271C34.0789 4.16455 34.0742 4.08813 34.065 4.01343ZM34.3826 17.4398C34.1893 16.998 34.0927 16.524 34.0927 16.0177C34.0927 15.5115 34.1893 15.0374 34.3826 14.5956C34.5759 14.1537 34.8382 13.7671 35.1696 13.4358C35.501 13.1044 35.8876 12.8467 36.3294 12.6626C36.7805 12.4693 37.2591 12.3726 37.7654 12.3726C38.2716 12.3726 38.7457 12.4693 39.1875 12.6626C39.6385 12.8467 40.0297 13.1044 40.3611 13.4358C40.6925 13.7671 40.9502 14.1537 41.1343 14.5956C41.3276 15.0374 41.4243 15.5115 41.4243 16.0177C41.4243 16.524 41.3276 16.998 41.1343 17.4398C40.9502 17.8817 40.6925 18.2683 40.3611 18.5996C40.0297 18.931 39.6385 19.1934 39.1875 19.3867C38.7457 19.5708 38.2716 19.6628 37.7654 19.6628C37.2591 19.6628 36.7805 19.5708 36.3294 19.3867C35.8876 19.1934 35.501 18.931 35.1696 18.5996C34.8382 18.2683 34.5759 17.8817 34.3826 17.4398Z" fill="white"/>
<path d="M54.7758 5.56571C54.6929 5.76821 54.6515 5.98453 54.6515 6.21464C54.6515 6.45397 54.6929 6.67488 54.7758 6.87739C54.8678 7.07989 54.9875 7.25938 55.1348 7.41586C55.2912 7.56314 55.4707 7.6828 55.6732 7.77485C55.8757 7.85769 56.0966 7.89911 56.336 7.89911C56.5661 7.89911 56.7824 7.85769 56.9849 7.77485C57.1874 7.6828 57.3623 7.56314 57.5096 7.41586C57.6661 7.25938 57.7903 7.07989 57.8824 6.87739C57.9744 6.67488 58.0204 6.45397 58.0204 6.21464C58.0204 5.98453 57.9744 5.76821 57.8824 5.56571C57.7903 5.3632 57.6661 5.18831 57.5096 5.04104C57.3623 4.88456 57.1874 4.76489 56.9849 4.68205C56.7824 4.59 56.5661 4.54398 56.336 4.54398C56.0966 4.54398 55.8757 4.59 55.6732 4.68205C55.4707 4.76489 55.2912 4.88456 55.1348 5.04104C54.9875 5.18831 54.8678 5.3632 54.7758 5.56571Z" fill="white"/>
<path d="M51.5521 22.5899C50.8986 22.5899 50.2864 22.4841 49.7158 22.2723C49.1543 22.0514 48.6618 21.7431 48.2384 21.3473C47.8242 20.9423 47.4928 20.4636 47.2443 19.9113C47.005 19.3498 46.8853 18.7285 46.8853 18.0474V5.9678C47.6957 5.15152 48.7534 4.5811 49.9366 4.37829C49.9459 4.45299 49.9505 4.52942 49.9505 4.60757V18.1164C49.9689 18.5858 50.1116 18.9448 50.3785 19.1934C50.6454 19.4419 51.0136 19.5708 51.4831 19.58H51.5521C51.773 19.58 51.9755 19.6214 52.1596 19.7042C52.3437 19.7779 52.5048 19.8837 52.6429 20.0218C52.7809 20.1599 52.8868 20.3209 52.9604 20.505C53.0341 20.6891 53.0709 20.887 53.0709 21.0987C53.0709 21.5406 52.9282 21.8996 52.6429 22.1757C52.3575 22.4518 51.9939 22.5899 51.5521 22.5899Z" fill="white"/>
<path d="M63.6691 4.79334V9.03032L68.5277 9.0313C68.7394 9.0313 68.9373 9.07272 69.1214 9.15556C69.3147 9.23841 69.4804 9.34886 69.6184 9.48693C69.7565 9.62501 69.867 9.79069 69.9498 9.98399C70.0327 10.1681 70.0741 10.366 70.0741 10.5777C70.0741 10.7802 70.0327 10.9735 69.9498 11.1576C69.867 11.3325 69.7565 11.489 69.6184 11.627C69.4804 11.7559 69.3147 11.8618 69.1214 11.9446C68.9373 12.0182 68.7394 12.0551 68.5277 12.0551H63.6814V16.0867C63.6814 16.593 63.7734 17.0671 63.9575 17.5089C64.1416 17.9415 64.3947 18.3235 64.7169 18.6549C65.0391 18.977 65.4165 19.2302 65.8491 19.4143C66.2909 19.5984 66.7696 19.6904 67.285 19.6904C67.7361 19.6904 68.1549 19.626 68.5415 19.4971C68.9281 19.3682 69.2871 19.1611 69.6184 18.8758C69.8025 18.7193 69.982 18.595 70.1569 18.503C70.3318 18.4017 70.5389 18.3511 70.7782 18.3511C70.9531 18.3511 71.1234 18.3879 71.2891 18.4616C71.4548 18.5352 71.6021 18.6411 71.7309 18.7791C71.8598 18.908 71.9611 19.0645 72.0347 19.2486C72.1175 19.4235 72.159 19.6122 72.159 19.8147C72.159 20.054 72.1129 20.2841 72.0209 20.505C71.9288 20.7259 71.7908 20.9239 71.6067 21.0987C71.0268 21.651 70.3686 22.0652 69.6322 22.3414C68.9051 22.6175 68.1227 22.7556 67.285 22.7556C66.3461 22.7556 65.4671 22.5853 64.6479 22.2447C63.8286 21.895 63.1153 21.4209 62.5078 20.8226C61.9002 20.2151 61.417 19.5063 61.058 18.6963C60.7082 17.8771 60.5333 16.998 60.5333 16.0591L60.5328 6.17178C61.3528 5.34362 62.4579 4.76648 63.6551 4.56073C63.6644 4.63651 63.6691 4.71405 63.6691 4.79334Z" fill="white"/>
<path d="M84.8615 9.37648C84.6866 9.30284 84.5117 9.26602 84.3369 9.26602L73.1556 9.26748C73.3584 10.4507 73.9288 11.5037 74.7451 12.3141H81.0002L73.5397 20.0218C73.3832 20.1783 73.2635 20.3486 73.1807 20.5326C73.107 20.7075 73.0748 20.887 73.084 21.0711C73.084 21.2644 73.1209 21.4531 73.1945 21.6372C73.2773 21.8121 73.3878 21.9732 73.5259 22.1205C73.6639 22.2585 73.825 22.3736 74.0091 22.4656C74.2024 22.5485 74.4095 22.5899 74.6304 22.5899H84.6544C84.8753 22.5899 85.0778 22.5531 85.2619 22.4795C85.4552 22.3966 85.6209 22.2862 85.759 22.1481C85.8971 22.01 86.0029 21.8489 86.0766 21.6648C86.1594 21.4807 86.2008 21.2828 86.2008 21.0711C86.2008 20.6477 86.0535 20.2979 85.759 20.0218C85.4644 19.7456 85.0962 19.6076 84.6544 19.6076H77.9027L85.3034 11.9584C85.469 11.8203 85.6025 11.6501 85.7038 11.4475C85.805 11.2358 85.8556 11.0103 85.8556 10.771V10.7434C85.8556 10.5133 85.8096 10.3108 85.7176 10.1359C85.6255 9.95177 85.5059 9.7953 85.3586 9.66643C85.2113 9.53756 85.0456 9.44091 84.8615 9.37648Z" fill="white"/>
<path d="M57.8548 21.1954C57.8548 21.4071 57.8134 21.605 57.7306 21.7891C57.6569 21.9732 57.5511 22.1343 57.413 22.2723C57.2749 22.4104 57.1139 22.5163 56.9298 22.5899C56.7457 22.6728 56.5478 22.7142 56.3361 22.7142C56.1244 22.7142 55.9218 22.6728 55.7285 22.5899C55.5445 22.5163 55.3788 22.4104 55.2315 22.2723C55.0934 22.1343 54.983 21.9732 54.9001 21.7891C54.8173 21.605 54.7759 21.4071 54.7759 21.1954V10.6722C55.5862 9.85593 56.6716 9.23312 57.8548 9.03032V21.1954Z" fill="white"/>
</g>
<defs>
<clipPath id="clip0_587_118">
<rect width="87" height="27" fill="white"/>
</clipPath>
</defs>
</svg>
