<svg width="180" height="16" viewBox="0 0 180 16" fill="none" xmlns="http://www.w3.org/2000/svg">
<g clip-path="url(#clip0_637_21)">
<path d="M3.4642 5.77366H9.81522V9.23787H3.4642V15.0115H0V0H11.5473L9.81522 3.4642H3.4642V5.77366Z" fill="#0092C1"/>
<path d="M48.3603 3.4642H44.3188V0H55.8661L54.134 3.4642H51.8246V15.0115H48.3719L48.3603 3.4642Z" fill="#0092C1"/>
<path d="M61.0623 6.9284V11.5473H66.2585C66.5742 11.5473 66.8437 11.4357 67.0669 11.2125C67.2978 10.9815 67.4133 10.7083 67.4133 10.3926C67.4133 10.0769 67.2978 9.80752 67.0669 9.58429C66.8437 9.35333 66.5742 9.23787 66.2585 9.23787H61.0623V6.9284ZM61.0623 3.4642V5.77366H66.2585C66.5742 5.77366 66.8437 5.66204 67.0669 5.43879C67.2978 5.20785 67.4133 4.93456 67.4133 4.61893C67.4133 4.30331 67.2978 4.03387 67.0669 3.81062C66.8437 3.57967 66.5742 3.4642 66.2585 3.4642H61.0623ZM66.2585 0C67.5365 0 68.6258 0.450346 69.5264 1.35103C70.4272 2.25173 70.8775 3.34103 70.8775 4.61893C70.8775 5.71978 70.5426 6.68206 69.8729 7.50577C70.5426 8.32947 70.8775 9.29175 70.8775 10.3926C70.8775 11.6705 70.4272 12.7598 69.5264 13.6605C68.6258 14.5612 67.5365 15.0115 66.2585 15.0115H57.5981V0H66.2585Z" fill="#0092C1"/>
<path d="M91.6624 11.5473H99.7459V15.0115H88.2097L88.1982 12.7021V0H91.6624V11.5473Z" fill="#0092C1"/>
<path d="M104.942 11.5473H113.025V15.0115H101.49L101.478 12.7021V0H104.942V11.5473Z" fill="#0092C1"/>
<path fill-rule="evenodd" clip-rule="evenodd" d="M76.651 15.0115H72.6094L77.8058 0H81.8473L87.0436 15.0115H83.0021L82.2053 12.7021L81.016 9.27251L79.8266 5.84294L78.6487 9.23787H79.8266L81.016 12.6817L77.4767 12.6212L76.651 15.0115Z" fill="#0092C1"/>
<path d="M114.758 0H118.222L124.573 9.16858V0H128.037V15.0115H124.573L118.222 5.84294V15.0115H114.758V0Z" fill="white"/>
<path d="M141.316 0L139.584 3.4642H129.769V0H141.316ZM129.769 5.77366H139.595V9.23787H129.769V5.77366ZM129.769 11.5473H141.316V15.0115H129.781L129.769 11.5473Z" fill="white"/>
<path d="M154.308 6.57043L151.709 15.0115H147.668L143.048 0H147.09L149.688 9.16858L152.286 0H156.328L158.926 9.16858L161.524 0H165.566L160.946 15.0115H156.905L154.308 6.57043Z" fill="white"/>
<path d="M175.38 11.5473C175.697 11.5473 175.966 11.4357 176.189 11.2125C176.42 10.9815 176.535 10.7083 176.535 10.3926C176.535 10.0769 176.42 9.80752 176.189 9.58429C175.966 9.35333 175.697 9.23787 175.38 9.23787H171.339C170.062 9.23787 168.972 8.78752 168.071 7.88682C167.171 6.98614 166.72 5.89684 166.72 4.61893C166.72 3.34103 167.171 2.25173 168.071 1.35103C168.972 0.450346 170.062 0 171.339 0H180L178.268 3.4642H171.339C171.024 3.4642 170.751 3.57967 170.52 3.81062C170.296 4.03387 170.184 4.30331 170.184 4.61893C170.184 4.93456 170.296 5.20785 170.52 5.43879C170.751 5.66204 171.024 5.77366 171.339 5.77366H175.38C176.659 5.77366 177.748 6.22401 178.648 7.1247C179.549 8.02539 180 9.11469 180 10.3926C180 11.6705 179.549 12.7598 178.648 13.6605C177.748 14.5612 176.659 15.0115 175.38 15.0115H166.72V11.5473H175.38Z" fill="white"/>
<path d="M3.4642 5.77366H9.81522V9.23787H3.4642V15.0115H0V0H11.5473L9.81522 3.4642H3.4642V5.77366Z" fill="#0092C1"/>
<path d="M48.3603 3.4642H44.3188V0H55.8661L54.134 3.4642H51.8246V15.0115H48.3719L48.3603 3.4642Z" fill="#0092C1"/>
<path d="M61.0623 6.9284V11.5473H66.2585C66.5742 11.5473 66.8437 11.4357 67.0669 11.2125C67.2978 10.9815 67.4133 10.7083 67.4133 10.3926C67.4133 10.0769 67.2978 9.80752 67.0669 9.58429C66.8437 9.35333 66.5742 9.23787 66.2585 9.23787H61.0623V6.9284ZM61.0623 3.4642V5.77366H66.2585C66.5742 5.77366 66.8437 5.66204 67.0669 5.43879C67.2978 5.20785 67.4133 4.93456 67.4133 4.61893C67.4133 4.30331 67.2978 4.03387 67.0669 3.81062C66.8437 3.57967 66.5742 3.4642 66.2585 3.4642H61.0623ZM66.2585 0C67.5365 0 68.6258 0.450346 69.5264 1.35103C70.4272 2.25173 70.8775 3.34103 70.8775 4.61893C70.8775 5.71978 70.5426 6.68206 69.8729 7.50577C70.5426 8.32947 70.8775 9.29175 70.8775 10.3926C70.8775 11.6705 70.4272 12.7598 69.5264 13.6605C68.6258 14.5612 67.5365 15.0115 66.2585 15.0115H57.5981V0H66.2585Z" fill="#0092C1"/>
<path d="M91.6624 11.5473H99.7459V15.0115H88.2097L88.1982 12.7021V0H91.6624V11.5473Z" fill="#0092C1"/>
<path d="M104.942 11.5473H113.025V15.0115H101.49L101.478 12.7021V0H104.942V11.5473Z" fill="#0092C1"/>
<path fill-rule="evenodd" clip-rule="evenodd" d="M76.651 15.0115H72.6094L77.8058 0H81.8473L87.0436 15.0115H83.0021L82.2053 12.7021L81.016 9.27251L79.8266 5.84294L78.6487 9.23787H79.8266L81.016 12.6817L77.4767 12.6212L76.651 15.0115Z" fill="#0092C1"/>
<path d="M114.758 0H118.222L124.573 9.16858V0H128.037V15.0115H124.573L118.222 5.84294V15.0115H114.758V0Z" fill="white"/>
<path d="M141.316 0L139.584 3.4642H129.769V0H141.316ZM129.769 5.77366H139.595V9.23787H129.769V5.77366ZM129.769 11.5473H141.316V15.0115H129.781L129.769 11.5473Z" fill="white"/>
<path d="M154.308 6.57043L151.709 15.0115H147.668L143.048 0H147.09L149.688 9.16858L152.286 0H156.328L158.926 9.16858L161.524 0H165.566L160.946 15.0115H156.905L154.308 6.57043Z" fill="white"/>
<path d="M175.38 11.5473C175.697 11.5473 175.966 11.4357 176.189 11.2125C176.42 10.9815 176.535 10.7083 176.535 10.3926C176.535 10.0769 176.42 9.80752 176.189 9.58429C175.966 9.35333 175.697 9.23787 175.38 9.23787H171.339C170.062 9.23787 168.972 8.78752 168.071 7.88682C167.171 6.98614 166.72 5.89684 166.72 4.61893C166.72 3.34103 167.171 2.25173 168.071 1.35103C168.972 0.450346 170.062 0 171.339 0H180L178.268 3.4642H171.339C171.024 3.4642 170.751 3.57967 170.52 3.81062C170.296 4.03387 170.184 4.30331 170.184 4.61893C170.184 4.93456 170.296 5.20785 170.52 5.43879C170.751 5.66204 171.024 5.77366 171.339 5.77366H175.38C176.659 5.77366 177.748 6.22401 178.648 7.1247C179.549 8.02539 180 9.11469 180 10.3926C180 11.6705 179.549 12.7598 178.648 13.6605C177.748 14.5612 176.659 15.0115 175.38 15.0115H166.72V11.5473H175.38Z" fill="white"/>
<path d="M23.2463 7.7108C23.2463 5.6452 21.5718 3.9707 19.5062 3.9707C17.4406 3.9707 15.7661 5.6452 15.7661 7.7108C15.7661 9.7764 17.4406 11.4509 19.5062 11.4509C21.5718 11.4509 23.2463 9.7764 23.2463 7.7108Z" fill="#0092C1"/>
<path fill-rule="evenodd" clip-rule="evenodd" d="M19.5059 0.230469C23.637 0.230469 26.986 3.57946 26.986 7.71067C26.986 11.8406 23.6391 15.1889 19.5095 15.1909H33.9053C38.0365 15.1909 41.3855 11.8419 41.3855 7.71067C41.3855 3.57946 38.0365 0.230469 33.9052 0.230469H19.5059ZM33.5312 3.97057C31.4657 3.97057 29.7911 5.64506 29.7911 7.71067C29.7911 9.77623 31.4657 11.4508 33.5312 11.4508C35.5968 11.4508 37.2714 9.77623 37.2714 7.71067C37.2714 5.64506 35.5968 3.97057 33.5312 3.97057Z" fill="#0092C1"/>
</g>
<defs>
<clipPath id="clip0_637_21">
<rect width="180" height="16" fill="white"/>
</clipPath>
</defs>
</svg>
