<svg width="91" height="22" viewBox="0 0 91 22" fill="none" xmlns="http://www.w3.org/2000/svg">
<path d="M74.6344 12.3404C74.7781 13.0053 75.0264 13.6244 75.3792 14.198C75.732 14.7585 76.1631 15.2474 76.6727 15.6645C77.1823 16.0816 77.7507 16.4075 78.3779 16.6422C79.0181 16.8768 79.691 16.9941 80.3966 16.9941C81.076 16.9941 81.6379 16.9355 82.0821 16.8181C82.5264 16.6878 82.9706 16.4922 83.4148 16.2315C83.7807 16.023 84.127 15.9187 84.4536 15.9187C84.6888 15.9187 84.9044 15.9708 85.1004 16.0751C85.3094 16.1664 85.4924 16.2967 85.6492 16.4662C85.806 16.6226 85.9301 16.8116 86.0215 17.0332C86.113 17.2548 86.1587 17.4829 86.1587 17.7176C86.1587 18.1347 86.0019 18.5062 85.6884 18.8321C85.3748 19.145 84.9501 19.4122 84.4144 19.6338C83.8918 19.8554 83.2777 20.0249 82.5721 20.1422C81.8796 20.2595 81.1544 20.3182 80.3966 20.3182C79.0769 20.3182 77.8291 20.0705 76.6531 19.5751C75.4902 19.0668 74.4711 18.3824 73.5957 17.5221C72.7333 16.6617 72.0473 15.6515 71.5377 14.4913C71.0412 13.3311 70.793 12.0928 70.793 10.7762C70.793 9.44656 71.0412 8.20167 71.5377 7.04151C72.0473 5.88135 72.7333 4.8711 73.5957 4.01076C74.4711 3.15042 75.4902 2.47257 76.6531 1.97722C77.8291 1.46884 79.0769 1.21465 80.3966 1.21465C81.7032 1.21465 82.9379 1.46232 84.1008 1.95767C85.2637 2.45302 86.2763 3.13086 87.1387 3.99121C88.0141 4.85155 88.7066 5.8618 89.2162 7.02196C89.7258 8.16908 89.9871 9.39442 90.0002 10.698C90.0002 11.1672 89.8434 11.5583 89.5298 11.8712C89.2162 12.184 88.8112 12.3404 88.3146 12.3404H74.6344ZM86.4527 9.44656C86.3351 8.74264 86.0934 8.09087 85.7276 7.49124C85.3748 6.8916 84.9305 6.37018 84.3948 5.92698C83.8722 5.48377 83.2711 5.13833 82.5917 4.89066C81.9253 4.64298 81.2132 4.51914 80.4554 4.51914C79.6845 4.51914 78.9658 4.6495 78.2995 4.91021C77.6331 5.15788 77.0386 5.50984 76.5159 5.96608C75.9933 6.40929 75.5621 6.93071 75.2224 7.53034C74.8827 8.12998 74.654 8.76872 74.5364 9.44656H86.4527Z" fill="#D6D9E4"/>
<path d="M58.5435 11.2064C58.5435 9.83763 58.8048 8.54711 59.3274 7.33481C59.8501 6.12251 60.5622 5.06663 61.4637 4.16719C62.3653 3.2547 63.4171 2.53775 64.6192 2.01633C65.8344 1.48187 67.1279 1.21465 68.4998 1.21465H68.5978C69.1858 1.21465 69.6301 1.37759 69.9306 1.70348C70.2442 2.02936 70.401 2.43998 70.401 2.93533C70.401 3.43068 70.2246 3.8413 69.8718 4.16719C69.519 4.49307 69.0944 4.65602 68.5978 4.65602H68.4998C67.6114 4.65602 66.7751 4.832 65.9912 5.18395C65.2072 5.52288 64.5147 5.99215 63.9136 6.59179C63.3257 7.17838 62.8553 7.86927 62.5025 8.66443C62.1628 9.4596 61.9929 10.3069 61.9929 11.2064V18.3628C61.9929 18.8582 61.8296 19.2688 61.5029 19.5947C61.1893 19.9206 60.7974 20.0835 60.327 20.0835C60.0918 20.0835 59.8631 20.0444 59.641 19.9662C59.432 19.875 59.2425 19.7511 59.0726 19.5947C58.9158 19.4383 58.7852 19.2558 58.6807 19.0472C58.5892 18.8386 58.5435 18.6105 58.5435 18.3628V11.2064Z" fill="#D6D9E4"/>
<path fillRule="evenodd" clipRule="evenodd" d="M51.848 18.607C54.3023 16.8784 55.9058 14.0227 55.9058 10.7925C55.9058 5.51717 51.6293 1.2407 46.354 1.2407C44.3219 1.2407 42.438 1.87526 40.8897 2.95705L42.931 5.87226C43.9014 5.19585 45.0814 4.7992 46.354 4.7992C49.664 4.7992 52.3473 7.48247 52.3473 10.7925C52.3473 12.8168 51.3436 14.6068 49.8067 15.6918L50.8266 17.1484L51.8465 18.6049L51.848 18.607Z" fill="url(#paint0_linear_629_2)"/>
<path d="M49.3516 18.1798C48.8019 17.3976 48.9712 16.3269 49.7222 15.7504C49.743 15.7344 49.7643 15.7188 49.7861 15.7036C50.5911 15.1399 51.7016 15.3348 52.2666 16.1388C52.8282 16.938 52.6394 18.0382 51.8465 18.6049C51.8417 18.6083 51.8369 18.6117 51.8321 18.615C51.0272 19.1787 49.9166 18.9838 49.3516 18.1798Z" fill="url(#paint1_linear_629_2)"/>
<path fillRule="evenodd" clipRule="evenodd" d="M42.931 5.87226C43.9014 5.19585 45.0814 4.7992 46.354 4.7992C49.664 4.7992 52.3473 7.48247 52.3473 10.7925C52.3473 12.8168 51.3436 14.6068 49.8067 15.6918C49.7787 15.7116 49.7505 15.7311 49.7222 15.7504C48.9712 16.3269 48.8019 17.3976 49.3516 18.1798C49.9166 18.9838 51.0272 19.1787 51.8321 18.615C51.8369 18.6117 51.8417 18.6083 51.8465 18.6049L51.848 18.607C54.3023 16.8784 55.9058 14.0227 55.9058 10.7925C55.9058 5.51717 51.6293 1.2407 46.354 1.2407C44.3219 1.2407 42.438 1.87526 40.8897 2.95705L42.931 5.87226Z" fill="url(#paint2_linear_629_2)"/>
<path fillRule="evenodd" clipRule="evenodd" d="M40.8303 2.94823C38.3759 4.67692 36.7725 7.53262 36.7725 10.7628C36.7725 16.0381 41.0489 20.3146 46.3242 20.3146C48.3563 20.3146 50.2402 19.68 51.7885 18.5982L49.7473 15.683C48.7768 16.3594 47.5968 16.7561 46.3242 16.7561C43.0142 16.7561 40.331 14.0728 40.331 10.7628C40.331 8.73845 41.3346 6.9485 42.8715 5.86344L40.8318 2.95037L40.8303 2.94823Z" fill="url(#paint3_linear_629_2)"/>
<path d="M43.3266 3.37544C43.8763 4.15769 43.707 5.22837 42.9561 5.80483C42.9352 5.82085 42.9139 5.83648 42.8921 5.85172C42.0872 6.41534 40.9766 6.2205 40.4116 5.41651C39.85 4.61732 40.0389 3.51707 40.8318 2.95037C40.8365 2.94697 40.8413 2.9436 40.8461 2.94024C41.651 2.37661 42.7616 2.57146 43.3266 3.37544Z" fill="url(#paint4_linear_629_2)"/>
<path fillRule="evenodd" clipRule="evenodd" d="M49.7473 15.683C48.7768 16.3594 47.5968 16.7561 46.3242 16.7561C43.0142 16.7561 40.331 14.0728 40.331 10.7628C40.331 8.73845 41.3346 6.9485 42.8715 5.86344C42.8995 5.84367 42.9277 5.82413 42.9561 5.80483C43.707 5.22837 43.8763 4.15769 43.3266 3.37544C42.7616 2.57146 41.651 2.37661 40.8461 2.94024C40.8413 2.9436 40.8365 2.94697 40.8318 2.95037L40.8303 2.94823C38.3759 4.67692 36.7725 7.53262 36.7725 10.7628C36.7725 16.0381 41.0489 20.3146 46.3242 20.3146C48.3563 20.3146 50.2402 19.68 51.7885 18.5982L49.7473 15.683Z" fill="url(#paint5_linear_629_2)"/>
<path d="M52.2427 16.1093C52.8077 16.9133 52.6131 18.0219 51.8082 18.5856C51.0033 19.1492 49.8927 18.9544 49.3277 18.1504C48.7627 17.3464 48.9572 16.2377 49.7622 15.6741C50.5671 15.1105 51.6777 15.3053 52.2427 16.1093Z" fill="#D6D9E4"/>
<path d="M40.4351 5.44619C39.8701 4.64221 40.0646 3.53354 40.8695 2.96991C41.6745 2.40628 42.785 2.60113 43.35 3.40512C43.915 4.2091 43.7205 5.31776 42.9156 5.88139C42.1106 6.44502 41.0001 6.25017 40.4351 5.44619Z" fill="#D6D9E4"/>
<path d="M18.1104 10.8739C18.1104 9.53129 18.3586 8.27337 18.8551 7.10017C19.3516 5.92698 20.0311 4.90369 20.8934 4.03031C21.7689 3.15693 22.788 2.47257 23.9509 1.97722C25.1269 1.46884 26.3877 1.21465 27.7336 1.21465C28.9879 1.21465 30.1769 1.43625 31.3006 1.87946C32.4374 2.32266 33.4173 2.95488 34.2405 3.77612C34.4495 3.99772 34.6063 4.23236 34.7109 4.48004C34.8154 4.72771 34.8677 4.96887 34.8677 5.20351C34.8677 5.46422 34.8089 5.70537 34.6913 5.92698C34.5737 6.13555 34.4234 6.31152 34.2405 6.45492C34.0706 6.59831 33.8812 6.70911 33.6721 6.78732C33.4761 6.86553 33.2932 6.90464 33.1233 6.90464C32.8359 6.90464 32.5615 6.83294 32.3002 6.68955L30.9282 5.71189C30.3402 5.33386 29.7653 5.07967 29.2035 4.94931C28.6417 4.80592 28.0471 4.73423 27.42 4.73423C26.6099 4.7603 25.852 4.9428 25.1465 5.28172C24.4409 5.62064 23.8268 6.07037 23.3041 6.63089C22.7946 7.17839 22.3895 7.81061 22.089 8.52756C21.8015 9.24451 21.6578 9.98753 21.6578 10.7566C21.6578 11.5388 21.8015 12.2948 22.089 13.0248C22.3895 13.7548 22.8011 14.4001 23.3237 14.9606C23.8594 15.5081 24.4866 15.9513 25.2053 16.2902C25.9239 16.6291 26.7144 16.7986 27.5768 16.7986C28.1647 16.7986 28.7331 16.7334 29.2819 16.603C29.8307 16.4597 30.3794 16.1989 30.9282 15.8209L32.3002 14.8628C32.4308 14.7976 32.568 14.7455 32.7118 14.7064C32.8555 14.6542 32.9992 14.6282 33.1429 14.6282C33.3128 14.6282 33.4957 14.6673 33.6917 14.7455C33.9008 14.8237 34.0902 14.941 34.2601 15.0974C34.4299 15.2408 34.5671 15.4168 34.6717 15.6254C34.7893 15.834 34.8481 16.0686 34.8481 16.3293C34.8481 16.577 34.7958 16.8247 34.6913 17.0723C34.5998 17.32 34.4495 17.5481 34.2405 17.7567C33.4304 18.5779 32.4504 19.2101 31.3006 19.6534C30.1639 20.0835 28.9748 20.2986 27.7336 20.2986C26.4008 20.2986 25.153 20.0575 23.9901 19.5751C22.8272 19.0798 21.8081 18.4085 20.9326 17.5612C20.0572 16.7139 19.3647 15.7166 18.8551 14.5695C18.3586 13.4224 18.1104 12.1905 18.1104 10.8739Z" fill="#D6D9E4"/>
<path d="M10.3488 12.2231H7.91852H6.80136C6.01739 12.2231 5.29222 12.0732 4.62585 11.7734C3.95948 11.4605 3.37804 11.0499 2.88152 10.5415C2.39808 10.0201 2.01916 9.42049 1.74477 8.74264C1.47038 8.0648 1.33319 7.34785 1.33319 6.59179C1.33319 5.84876 1.47691 5.15137 1.76437 4.49959C2.05182 3.84782 2.43727 3.28077 2.92072 2.79846C3.41723 2.30311 3.99868 1.91856 4.66505 1.64482C5.33142 1.35804 6.04353 1.21465 6.80136 1.21465H13.6023C14.0727 1.21465 14.4777 1.35804 14.8174 1.64482C15.1572 1.9316 15.327 2.34873 15.327 2.89622C15.327 3.1439 15.2813 3.37854 15.1898 3.60014C15.1114 3.80871 14.9938 3.99772 14.837 4.16719C14.6933 4.32361 14.5234 4.44745 14.3275 4.5387C14.1315 4.62995 13.9224 4.67557 13.7003 4.67557H13.6023H6.82096C6.53351 4.67557 6.26565 4.73423 6.01739 4.85155C5.7822 4.95583 5.57315 5.10574 5.39022 5.30127C5.20729 5.48377 5.06357 5.69886 4.95904 5.94653C4.85451 6.18117 4.80224 6.43536 4.80224 6.70911C4.80224 7.00892 4.85451 7.28267 4.95904 7.53034C5.06357 7.77802 5.20729 7.9931 5.39022 8.1756C5.58621 8.34506 5.8018 8.48193 6.03699 8.58622C6.28525 8.6905 6.54657 8.74264 6.82096 8.74264H7.95771H10.7604C11.5574 8.74264 12.2957 8.89907 12.9751 9.21192C13.6545 9.51174 14.236 9.92236 14.7194 10.4438C15.216 10.9652 15.6014 11.5713 15.8758 12.2622C16.1632 12.9531 16.307 13.6766 16.307 14.4326C16.307 15.2017 16.1632 15.9317 15.8758 16.6226C15.6014 17.3004 15.216 17.9001 14.7194 18.4215C14.2229 18.9299 13.6284 19.334 12.9359 19.6338C12.2565 19.9336 11.5182 20.0835 10.7212 20.0835H2.58753C2.13022 20.0835 1.7513 19.9206 1.45078 19.5947C1.15026 19.2688 1 18.8452 1 18.3237C1 17.8023 1.15026 17.3917 1.45078 17.0919C1.7513 16.7921 2.13022 16.6422 2.58753 16.6422H10.4272C10.7147 16.6422 11.0021 16.5965 11.2896 16.5053C11.577 16.401 11.8384 16.2511 12.0735 16.0556C12.3087 15.86 12.4982 15.6254 12.6419 15.3516C12.7856 15.0649 12.8575 14.7325 12.8575 14.3544C12.8575 13.9894 12.7856 13.6766 12.6419 13.4159C12.5113 13.1552 12.3283 12.9401 12.0931 12.7706C11.871 12.6012 11.6162 12.4708 11.3288 12.3795C11.0413 12.2883 10.7473 12.2362 10.4468 12.2231H10.4076H10.3488Z" fill="#D6D9E4"/>
<defs>
<linearGradient id="paint0_linear_629_2" x1="42.9829" y1="6.39097" x2="49.9987" y2="21.716" gradientUnits="userSpaceOnUse">
<stop stop-color="#D6D9E4"/>
<stop offset="0.807075" stop-color="#D6D9E4" stop-opacity="0"/>
</linearGradient>
<linearGradient id="paint1_linear_629_2" x1="42.9829" y1="6.39097" x2="49.9987" y2="21.716" gradientUnits="userSpaceOnUse">
<stop stop-color="#D6D9E4"/>
<stop offset="0.807075" stop-color="#D6D9E4" stop-opacity="0"/>
</linearGradient>
<linearGradient id="paint2_linear_629_2" x1="42.9829" y1="6.39097" x2="49.9987" y2="21.716" gradientUnits="userSpaceOnUse">
<stop stop-color="#D6D9E4"/>
<stop offset="0.807075" stop-color="#D6D9E4" stop-opacity="0"/>
</linearGradient>
<linearGradient id="paint3_linear_629_2" x1="49.6953" y1="15.1643" x2="42.6795" y2="-0.160712" gradientUnits="userSpaceOnUse">
<stop stop-color="#D6D9E4"/>
<stop offset="0.807075" stop-color="#D6D9E4" stop-opacity="0"/>
</linearGradient>
<linearGradient id="paint4_linear_629_2" x1="49.6953" y1="15.1643" x2="42.6795" y2="-0.160712" gradientUnits="userSpaceOnUse">
<stop stop-color="#D6D9E4"/>
<stop offset="0.807075" stop-color="#D6D9E4" stop-opacity="0"/>
</linearGradient>
<linearGradient id="paint5_linear_629_2" x1="49.6953" y1="15.1643" x2="42.6795" y2="-0.160712" gradientUnits="userSpaceOnUse">
<stop stop-color="#D6D9E4"/>
<stop offset="0.807075" stop-color="#D6D9E4" stop-opacity="0"/>
</linearGradient>
</defs>
</svg>
