<svg width="109" height="27" viewBox="0 0 109 27" fill="none" xmlns="http://www.w3.org/2000/svg">
<path d="M30.647 5.26077L28.9681 9.43819L15.9566 9.45804C15.7392 9.45804 15.5407 9.53839 15.361 9.6991C15.172 9.85035 15.0538 10.0489 15.0065 10.2947C14.9593 10.5026 14.9829 10.6728 15.0774 10.8051C15.2192 10.9753 15.4319 11.0793 15.7155 11.1171H25.6132C26.9839 11.1171 28.0474 11.6087 28.8037 12.5918C29.5883 13.5655 29.8388 14.7141 29.5552 16.0375C29.2621 17.4083 28.5201 18.5805 27.3289 19.5542C26.1473 20.5373 24.8711 21.0289 23.5003 21.0289H8.63974L9.53307 16.8174H24.3937C24.6017 16.8174 24.8049 16.7418 25.0034 16.5906C25.183 16.4299 25.2965 16.2313 25.3437 15.995C25.4005 15.7492 25.3721 15.546 25.2587 15.3853C25.1263 15.234 24.9562 15.1584 24.7482 15.1584H14.7513C13.3522 15.0922 12.2745 14.5723 11.5183 13.5986C10.7715 12.6533 10.5351 11.5378 10.8093 10.2521C11.1023 8.87193 11.835 7.695 13.0072 6.72131C14.1983 5.74761 15.4792 5.26077 16.8499 5.26077H30.647Z" fill="#0B0F16"/>
<path d="M48.3442 5.26077C50.0836 5.26077 51.4402 5.87523 52.4139 7.10417C53.3876 8.34255 53.6901 9.82672 53.3214 11.5567L52.6549 14.7188C52.2768 16.4582 51.3409 17.9424 49.8473 19.1713C48.3537 20.4097 46.7372 21.0289 44.9977 21.0289H35.5397L34.4195 26.2755H30.208L32.6754 14.7188C33.2236 12.1097 34.6227 9.88344 36.8726 8.04004C39.1131 6.18719 41.5331 5.26077 44.1328 5.26077H48.3442ZM43.2394 9.45804C41.8025 9.45804 40.4602 9.97325 39.2123 11.0037C37.9645 12.0341 37.1893 13.2725 36.8868 14.7188L36.433 16.8174H45.8911C46.4677 16.8174 47.0018 16.6095 47.4934 16.1935C48.0039 15.787 48.3206 15.2955 48.4435 14.7188L49.1099 11.5567C49.2328 10.9895 49.1288 10.4979 48.798 10.082C48.4766 9.66601 48.0275 9.45804 47.4509 9.45804H43.2394Z" fill="#0B0F16"/>
<path d="M62.9076 9.45804C62.331 9.45804 61.7921 9.66601 61.2911 10.082C60.7995 10.4979 60.4923 10.9895 60.3694 11.5567L59.7029 14.7188C59.58 15.2955 59.6746 15.787 59.9865 16.1935C60.3174 16.6095 60.7712 16.8174 61.3478 16.8174H68.7072C69.2839 16.8174 69.818 16.6095 70.3096 16.1935C70.82 15.787 71.1367 15.2955 71.2596 14.7188L71.9261 11.5567C72.049 10.9895 71.945 10.4979 71.6141 10.082C71.2927 9.66601 70.8437 9.45804 70.267 9.45804H62.9076ZM71.1604 5.26077C72.8998 5.26077 74.2563 5.87523 75.23 7.10417C76.2037 8.34255 76.5062 9.82672 76.1375 11.5567L75.4711 14.7188C75.0929 16.4582 74.1571 17.9424 72.6634 19.1713C71.1698 20.4097 69.5533 21.0289 67.8139 21.0289H60.4545C58.7151 21.0289 57.3632 20.4097 56.399 19.1713C55.4159 17.9424 55.1134 16.4582 55.4915 14.7188L56.158 11.5567C56.5266 9.82672 57.4625 8.34255 58.9656 7.10417C60.4498 5.87523 62.0615 5.26077 63.801 5.26077H71.1604Z" fill="#0B0F16"/>
<path d="M81.172 21.0289H76.9605L78.3076 14.7188C78.8559 12.1097 80.255 9.88344 82.5049 8.04004C84.7453 6.18719 87.1654 5.26077 89.765 5.26077H94.6713L93.778 9.45804H88.8717C87.4348 9.45804 86.0924 9.97325 84.8446 11.0037C83.5968 12.0341 82.8216 13.2725 82.5191 14.7188L81.172 21.0289Z" fill="#0B0F16"/>
<path d="M100.67 5.26077H107.378L105.926 9.47222H99.7767L98.6706 14.7188C98.5477 15.2955 98.6423 15.787 98.9542 16.1935C99.2851 16.6095 99.7389 16.8174 100.316 16.8174H108.724L107.378 21.0289H99.4222C97.6828 21.0289 96.3309 20.4097 95.3667 19.1713C94.3836 17.9424 94.0811 16.4582 94.4592 14.7188L97.5788 0H101.79L100.67 5.26077Z" fill="#0B0F16"/>
<path fillRule="evenodd" clipRule="evenodd" d="M8.6812 3.57646L9.29874 0L7.82333 1.54205e-08C5.72605 3.73404e-08 3.93326 1.50976 3.57641 3.57646V3.57646L8.6812 3.57646Z" fill="#0B0F16"/>
<path fillRule="evenodd" clipRule="evenodd" d="M8.28373 5.44482C5.23514 5.44482 2.61417 7.60539 2.03248 10.598L0 21.0541L5.24958 21.0541L8.28373 5.44482Z" fill="#0B0F16"/>
</svg>
