<svg width="60" height="19" viewBox="0 0 60 19" fill="none" xmlns="http://www.w3.org/2000/svg">
<mask id="mask0_310_4658" style="mask-type:alpha" maskUnits="userSpaceOnUse" x="0" y="0" width="60" height="19">
<mask id="mask1_310_4658" style="mask-type:luminance" maskUnits="userSpaceOnUse" x="0" y="0" width="60" height="19">
<path d="M60 0H0V19H60V0Z" fill="white"/>
</mask>
<g mask="url(#mask1_310_4658)">
<path d="M10.843 15.9773V18.856C10.3342 18.946 9.80787 19 9.26397 19C6.75497 19 4.47407 17.9744 2.80726 16.3192C1.07027 14.5919 0 12.1809 0 9.51803C0 6.85514 1.07027 4.44417 2.80726 2.7169V9.51803C2.80726 10.9754 3.26344 12.3428 4.05299 13.4404C5.22852 15.1137 7.14097 16.1933 9.31659 16.1933C9.84296 16.1753 10.3518 16.1033 10.843 15.9773Z" fill="url(#paint0_linear_310_4658)"/>
<path d="M15.8254 16.2291V9.51798C15.8254 8.06059 15.3692 6.69318 14.5796 5.59563C13.4041 3.92235 11.4916 2.8428 9.31601 2.8428C8.78964 2.8428 8.28083 2.91478 7.78955 3.02273V0.125949C8.28083 0.035987 8.7721 0 9.28091 0C14.3866 0 18.5449 4.24621 18.5449 9.49999C18.5449 12.1269 17.4922 14.5019 15.8254 16.2291Z" fill="url(#paint1_linear_310_4658)"/>
<path d="M10.8438 11.8749V14.6636C10.3525 14.8076 9.84369 14.8976 9.31732 14.8976C6.42234 14.8976 4.05371 12.4866 4.05371 9.49984V1.65516C4.80816 1.13337 5.63279 0.719546 6.51007 0.431667V9.46385C6.51007 11.0472 7.77333 12.3426 9.31732 12.3426C9.89632 12.3426 10.4051 12.1627 10.8438 11.8749Z" fill="url(#paint2_linear_310_4658)"/>
<path d="M14.5796 9.49994V17.2727C13.8427 17.8124 13.0006 18.2263 12.1233 18.5322V9.46395C12.1233 7.88063 10.8775 6.58518 9.31601 6.58518C8.75455 6.58518 8.22819 6.7651 7.78955 7.05298V4.33612C8.28083 4.19218 8.78964 4.10222 9.31601 4.10222C12.2285 4.12022 14.5796 6.53119 14.5796 9.49994Z" fill="url(#paint3_linear_310_4658)"/>
<path fillRule="evenodd" clipRule="evenodd" d="M21.3027 3.94295C21.8594 3.36852 22.586 2.96712 23.3987 2.82441C23.405 2.87697 23.4082 2.93075 23.4082 2.98575V7.85178C23.5156 7.66394 23.6611 7.48905 23.8444 7.32712C24.0277 7.16518 24.2332 7.02591 24.4608 6.90932C24.6885 6.78625 24.9287 6.69233 25.1816 6.62756C25.4346 6.5563 25.6874 6.52068 25.9403 6.52068C26.5726 6.52068 27.1701 6.64698 27.7328 6.8996C28.2955 7.14574 28.7854 7.48581 29.2027 7.9198C29.6199 8.3473 29.9487 8.84931 30.189 9.4258C30.4356 10.0023 30.5589 10.6176 30.5589 11.2719C30.5589 11.9261 30.4356 12.5415 30.189 13.1179C29.9487 13.6879 29.6199 14.1867 29.2027 14.6142C28.7854 15.0417 28.2955 15.3818 27.7328 15.6344C27.1701 15.8805 26.5726 16.0036 25.9403 16.0036C25.3018 16.0036 24.7011 15.8805 24.1384 15.6344C23.5821 15.3818 23.092 15.0417 22.6684 14.6142C22.2448 14.1867 21.9097 13.6879 21.6632 13.1179C21.423 12.5415 21.3027 11.9261 21.3027 11.2719V3.94295ZM23.4177 11.2719C23.4177 11.6281 23.484 11.9617 23.6168 12.2727C23.7495 12.5836 23.9298 12.8556 24.1574 13.0888C24.385 13.322 24.6505 13.5065 24.954 13.6426C25.2638 13.7722 25.5926 13.8369 25.9403 13.8369C26.2881 13.8369 26.6136 13.7722 26.9171 13.6426C27.2269 13.5065 27.4956 13.322 27.7233 13.0888C27.9508 12.8556 28.1279 12.5836 28.2543 12.2727C28.3871 11.9617 28.4535 11.6281 28.4535 11.2719C28.4535 10.9156 28.3871 10.582 28.2543 10.2711C28.1279 9.96019 27.9508 9.68813 27.7233 9.45495C27.4956 9.22176 27.2269 9.04039 26.9171 8.91084C26.6136 8.77481 26.2881 8.70681 25.9403 8.70681C25.5926 8.70681 25.2638 8.77481 24.954 8.91084C24.6505 9.04039 24.385 9.22176 24.1574 9.45495C23.9298 9.68813 23.7495 9.96019 23.6168 10.2711C23.484 10.582 23.4177 10.9156 23.4177 11.2719Z" fill="url(#paint4_linear_310_4658)"/>
<path d="M37.5386 4.37341C37.5386 4.21147 37.567 4.05925 37.624 3.91675C37.6872 3.77425 37.7694 3.65117 37.8705 3.54753C37.978 3.43742 38.1013 3.35321 38.2404 3.29491C38.3794 3.23014 38.5312 3.19775 38.6956 3.19775C38.8537 3.19775 39.0022 3.23014 39.1413 3.29491C39.2804 3.35321 39.4005 3.43742 39.5018 3.54753C39.6092 3.65117 39.6945 3.77425 39.7578 3.91675C39.821 4.05925 39.8526 4.21147 39.8526 4.37341C39.8526 4.54183 39.821 4.69728 39.7578 4.83978C39.6945 4.98228 39.6092 5.1086 39.5018 5.21871C39.4005 5.32235 39.2804 5.40656 39.1413 5.47133C39.0022 5.52962 38.8537 5.55877 38.6956 5.55877C38.5312 5.55877 38.3794 5.52962 38.2404 5.47133C38.1013 5.40656 37.978 5.32235 37.8705 5.21871C37.7694 5.1086 37.6872 4.98228 37.624 4.83978C37.567 4.69728 37.5386 4.54183 37.5386 4.37341Z" fill="url(#paint5_linear_310_4658)"/>
<path d="M35.4096 15.8967C34.9607 15.8967 34.5403 15.8223 34.1482 15.6733C33.7626 15.5179 33.4243 15.3008 33.1334 15.0223C32.8489 14.7373 32.6214 14.4004 32.4506 14.0118C32.2862 13.6167 32.2041 13.1795 32.2041 12.7002V4.1997C32.7607 3.62528 33.4872 3.22387 34.3 3.08116C34.3063 3.13372 34.3094 3.18751 34.3094 3.24251V12.7487C34.3221 13.079 34.4201 13.3317 34.6034 13.5065C34.7868 13.6815 35.0397 13.7722 35.3622 13.7786H35.4096C35.5613 13.7786 35.7005 13.8077 35.8269 13.8661C35.9533 13.9179 36.064 13.9924 36.1588 14.0895C36.2537 14.1867 36.3263 14.3001 36.3769 14.4296C36.4274 14.5591 36.4528 14.6984 36.4528 14.8474C36.4528 15.1583 36.3548 15.4109 36.1588 15.6053C35.9628 15.7996 35.713 15.8967 35.4096 15.8967Z" fill="url(#paint6_linear_310_4658)"/>
<path d="M43.7323 6.35481V3.37324C43.7323 3.31744 43.7291 3.26287 43.7226 3.20954C42.9003 3.35433 42.1413 3.76047 41.5781 4.34326L41.5785 11.301C41.5785 11.9617 41.6986 12.5803 41.9389 13.1568C42.1854 13.7268 42.5173 14.2255 42.9347 14.6531C43.3519 15.0742 43.8419 15.4077 44.4046 15.6539C44.9673 15.8935 45.5711 16.0133 46.216 16.0133C46.7914 16.0133 47.3287 15.9162 47.8282 15.7218C48.334 15.5276 48.7861 15.2361 49.1844 14.8474C49.3108 14.7243 49.4056 14.5851 49.4689 14.4296C49.5322 14.2741 49.5637 14.1122 49.5637 13.9438C49.5637 13.8013 49.5353 13.6685 49.4784 13.5454C49.4278 13.4159 49.3583 13.3058 49.2697 13.2151C49.1812 13.1179 49.0801 13.0434 48.9662 12.9916C48.8524 12.9398 48.7355 12.9139 48.6154 12.9139C48.451 12.9139 48.3087 12.9495 48.1886 13.0208C48.0685 13.0855 47.9452 13.173 47.8188 13.2831C47.5911 13.4839 47.3446 13.6296 47.079 13.7203C46.8135 13.811 46.5258 13.8564 46.216 13.8564C45.8619 13.8564 45.5331 13.7915 45.2297 13.662C44.9326 13.5325 44.6733 13.3543 44.452 13.1277C44.2308 12.8944 44.0569 12.6256 43.9305 12.3212C43.804 12.0103 43.7407 11.6767 43.7407 11.3204V8.48333H47.0695C47.215 8.48333 47.3509 8.45743 47.4773 8.4056C47.6101 8.34731 47.7239 8.27283 47.8188 8.18214C47.9136 8.08497 47.9894 7.97486 48.0463 7.85179C48.1033 7.72224 48.1317 7.58621 48.1317 7.44371C48.1317 7.29473 48.1033 7.15547 48.0463 7.02591C47.9894 6.88989 47.9136 6.7733 47.8188 6.67613C47.7239 6.57898 47.6101 6.50124 47.4773 6.44295C47.3509 6.38465 47.215 6.3555 47.0695 6.3555L43.7323 6.35481Z" fill="url(#paint7_linear_310_4658)"/>
<path d="M58.2888 6.5984C58.1687 6.54658 58.0486 6.52068 57.9285 6.52068L50.2484 6.5217C50.3877 7.35436 50.7796 8.09534 51.3402 8.66562H55.6366L50.5123 14.0895C50.4047 14.1997 50.3226 14.3195 50.2656 14.4491C50.2151 14.5721 50.193 14.6984 50.1993 14.8279C50.1993 14.964 50.2246 15.0967 50.2751 15.2264C50.3321 15.3494 50.4079 15.4628 50.5028 15.5664C50.5976 15.6636 50.7082 15.7445 50.8346 15.8093C50.9675 15.8676 51.1098 15.8967 51.2614 15.8967H58.1466C58.2983 15.8967 58.4374 15.8708 58.564 15.8191C58.6967 15.7607 58.8105 15.683 58.9053 15.5858C59.0002 15.4887 59.0729 15.3754 59.1235 15.2457C59.1803 15.1162 59.2088 14.9769 59.2088 14.8279C59.2088 14.53 59.1077 14.2839 58.9053 14.0895C58.703 13.8953 58.4501 13.798 58.1466 13.798H53.5091L58.5923 8.41532C58.7062 8.31815 58.7978 8.19832 58.8673 8.05582C58.9369 7.90684 58.9717 7.74814 58.9717 7.57974V7.5603C58.9717 7.39836 58.9401 7.25586 58.8768 7.13279C58.8137 7.00324 58.7314 6.89313 58.6303 6.80245C58.5291 6.71176 58.4154 6.64374 58.2888 6.5984Z" fill="url(#paint8_linear_310_4658)"/>
<path d="M39.6535 15.3332C39.7105 15.2037 39.7389 15.0644 39.7389 14.9154V6.35481C38.9261 6.49752 38.1807 6.93579 37.624 7.51022V14.9154C37.624 15.0644 37.6525 15.2037 37.7094 15.3332C37.7663 15.4628 37.8422 15.5761 37.937 15.6733C38.0381 15.7704 38.152 15.8449 38.2785 15.8967C38.4112 15.9551 38.5503 15.9841 38.6957 15.9841C38.8411 15.9841 38.9771 15.9551 39.1035 15.8967C39.2299 15.8449 39.3406 15.7704 39.4355 15.6733C39.5303 15.5761 39.6029 15.4628 39.6535 15.3332Z" fill="url(#paint9_linear_310_4658)"/>
</g>
</mask>
<g mask="url(#mask0_310_4658)">
<path d="M-8 -7H76V25H-8V-7Z" fill="#7BA4B1"/>
</g>
<defs>
<linearGradient id="paint0_linear_310_4658" x1="-9.41056e-08" y1="11.2082" x2="10.846" y2="11.0479" gradientUnits="userSpaceOnUse">
<stop stop-color="#018075"/>
<stop offset="1" stop-color="#04BFB6"/>
</linearGradient>
<linearGradient id="paint1_linear_310_4658" x1="7.78955" y1="8.46319" x2="18.5479" y2="8.30491" gradientUnits="userSpaceOnUse">
<stop stop-color="#018075"/>
<stop offset="1" stop-color="#04BFB6"/>
</linearGradient>
<linearGradient id="paint2_linear_310_4658" x1="4.05371" y1="7.97536" x2="10.8464" y2="7.90457" gradientUnits="userSpaceOnUse">
<stop stop-color="#018075"/>
<stop offset="1" stop-color="#04BFB6"/>
</linearGradient>
<linearGradient id="paint3_linear_310_4658" x1="7.78955" y1="11.6271" x2="14.5822" y2="11.5562" gradientUnits="userSpaceOnUse">
<stop stop-color="#018075"/>
<stop offset="1" stop-color="#04BFB6"/>
</linearGradient>
<linearGradient id="paint4_linear_310_4658" x1="21.3359" y1="10.0682" x2="59.1794" y2="9.52848" gradientUnits="userSpaceOnUse">
<stop stop-color="#018075"/>
<stop offset="0.489583" stop-color="#04BFB6"/>
<stop offset="0.9999" stop-color="#018075"/>
<stop offset="1"/>
</linearGradient>
<linearGradient id="paint5_linear_310_4658" x1="21.3356" y1="10.0682" x2="59.1791" y2="9.52848" gradientUnits="userSpaceOnUse">
<stop stop-color="#018075"/>
<stop offset="0.489583" stop-color="#04BFB6"/>
<stop offset="0.9999" stop-color="#018075"/>
<stop offset="1"/>
</linearGradient>
<linearGradient id="paint6_linear_310_4658" x1="21.3355" y1="10.0682" x2="59.179" y2="9.52848" gradientUnits="userSpaceOnUse">
<stop stop-color="#018075"/>
<stop offset="0.489583" stop-color="#04BFB6"/>
<stop offset="0.9999" stop-color="#018075"/>
<stop offset="1"/>
</linearGradient>
<linearGradient id="paint7_linear_310_4658" x1="21.3354" y1="10.0682" x2="59.1789" y2="9.52848" gradientUnits="userSpaceOnUse">
<stop stop-color="#018075"/>
<stop offset="0.489583" stop-color="#04BFB6"/>
<stop offset="0.9999" stop-color="#018075"/>
<stop offset="1"/>
</linearGradient>
<linearGradient id="paint8_linear_310_4658" x1="21.3356" y1="10.0682" x2="59.1791" y2="9.52848" gradientUnits="userSpaceOnUse">
<stop stop-color="#018075"/>
<stop offset="0.489583" stop-color="#04BFB6"/>
<stop offset="0.9999" stop-color="#018075"/>
<stop offset="1"/>
</linearGradient>
<linearGradient id="paint9_linear_310_4658" x1="21.3357" y1="10.0682" x2="59.1791" y2="9.52849" gradientUnits="userSpaceOnUse">
<stop stop-color="#018075"/>
<stop offset="0.489583" stop-color="#04BFB6"/>
<stop offset="0.9999" stop-color="#018075"/>
<stop offset="1"/>
</linearGradient>
</defs>
</svg>
