<svg width="22" height="22" viewBox="0 0 22 22" fill="none" xmlns="http://www.w3.org/2000/svg">
<path d="M18.7738 11.0209V18.7917C20.7512 16.7918 22 14.0418 22 11C22 4.91669 17.067 0 11.0102 0C10.4066 0 9.82379 0.0416693 9.24098 0.145836V3.50002C9.82379 3.37503 10.4274 3.29168 11.0518 3.29168C13.6327 3.29168 15.9015 4.54169 17.2959 6.47919C18.2326 7.75003 18.7738 9.33337 18.7738 11.0209Z" fill="#7BA4B1"/>
<path d="M12.863 21.8333V18.5C12.2803 18.6459 11.6766 18.7292 11.0522 18.7501C8.47129 18.7501 6.20256 17.5001 4.80804 15.5625C3.8714 14.2917 3.33023 12.7083 3.33023 11.0208V3.14578C1.26965 5.14579 0 7.93746 0 11.0208C0 14.1042 1.26965 16.8958 3.33023 18.8959C5.30756 20.8125 8.01338 22 10.9898 22C11.635 22 12.2594 21.9375 12.863 21.8333Z" fill="#7BA4B1"/>
<path d="M12.8638 13.7499V16.979C12.281 17.1457 11.6774 17.2499 11.0529 17.2499C7.61863 17.2499 4.80875 14.4582 4.80875 10.9998V1.91648C5.70375 1.3123 6.682 0.833133 7.72271 0.499797V10.9582C7.72271 12.7915 9.22131 14.2915 11.0529 14.2915C11.7398 14.2915 12.3434 14.0832 12.8638 13.7499Z" fill="#7BA4B1"/>
<path d="M17.2959 19.9998V10.9998C17.2959 7.56228 14.5069 4.7706 11.0518 4.74977C10.4274 4.74977 9.82379 4.85393 9.24098 5.0206V8.16645C9.76135 7.83311 10.3858 7.62478 11.0518 7.62478C12.9043 7.62478 14.3821 9.12479 14.3821 10.9581V21.4582C15.4228 21.104 16.4217 20.6248 17.2959 19.9998Z" fill="#7BA4B1"/>
</svg>
