<svg width="12" height="12" viewBox="0 0 12 12" fill="none" xmlns="http://www.w3.org/2000/svg">
<path d="M5.03964 1.2948C4.255 1.45424 3.52275 1.808 2.90974 2.32377C2.29674 2.83955 1.82251 3.5009 1.53036 4.24743C1.23822 4.99397 1.13746 5.80191 1.2373 6.59748C1.33713 7.39305 1.63438 8.15089 2.10189 8.80182C2.5694 9.45274 3.19228 9.976 3.91366 10.3238C4.63503 10.6716 5.43192 10.8329 6.23155 10.793C7.03118 10.753 7.80808 10.5131 8.4913 10.0951C9.17452 9.67706 9.7423 9.0943 10.1428 8.4C8.72004 8.38892 7.35934 7.8151 6.35721 6.8036C5.35508 5.79211 4.79277 4.42492 4.79281 3C4.79281 2.412 4.87129 1.8378 5.03964 1.2948ZM0 6C0 2.6862 2.68218 0 5.99101 0H7.02986L6.50984 0.9C6.16296 1.5 5.99101 2.214 5.99101 3C5.99092 3.62017 6.12797 4.23266 6.39231 4.79349C6.65665 5.35432 7.04172 5.84956 7.51987 6.24364C7.99801 6.63772 8.55737 6.92086 9.15775 7.07273C9.75814 7.2246 10.3847 7.24143 10.9923 7.122L12 6.9258L11.6747 7.9014C10.8809 10.2822 8.63724 12 5.99101 12C2.68218 12 0 9.3138 0 6Z" fill="white"/>
</svg>
