<svg width="162" height="35" viewBox="0 0 162 35" fill="none" xmlns="http://www.w3.org/2000/svg">
<path d="M133.938 20.2374C134.199 21.4467 134.651 22.573 135.293 23.6163C135.934 24.6359 136.719 25.525 137.646 26.2838C138.572 27.0425 139.606 27.6353 140.747 28.0621C141.912 28.4889 143.136 28.7023 144.419 28.7023C145.655 28.7023 146.677 28.5956 147.485 28.3822C148.293 28.1451 149.101 27.7894 149.909 27.3152C150.575 26.9358 151.204 26.7461 151.799 26.7461C152.226 26.7461 152.619 26.841 152.975 27.0307C153.355 27.1967 153.688 27.4338 153.973 27.742C154.259 28.0265 154.484 28.3704 154.651 28.7734C154.817 29.1765 154.9 29.5915 154.9 30.0183C154.9 30.777 154.615 31.4528 154.045 32.0456C153.474 32.6146 152.702 33.1007 151.727 33.5038C150.777 33.9069 149.66 34.2151 148.376 34.4285C147.117 34.6419 145.798 34.7486 144.419 34.7486C142.019 34.7486 139.749 34.2981 137.61 33.3971C135.495 32.4724 133.641 31.2275 132.048 29.6626C130.48 28.0977 129.232 26.2601 128.305 24.1498C127.402 22.0395 126.95 19.7869 126.95 17.3921C126.95 14.9736 127.402 12.7092 128.305 10.5989C129.232 8.48858 130.48 6.65097 132.048 5.08604C133.641 3.5211 135.495 2.28812 137.61 1.3871C139.749 0.462367 142.019 0 144.419 0C146.796 0 149.042 0.450511 151.157 1.35153C153.272 2.25256 155.114 3.48553 156.683 5.05047C158.275 6.6154 159.535 8.45301 160.462 10.5633C161.389 12.6499 161.864 14.8787 161.888 17.2498C161.888 18.1034 161.602 18.8148 161.032 19.3838C160.462 19.9529 159.725 20.2374 158.822 20.2374H133.938ZM155.435 14.9736C155.221 13.6932 154.781 12.5076 154.116 11.4169C153.474 10.3262 152.666 9.37775 151.692 8.57157C150.741 7.76539 149.648 7.13705 148.412 6.68654C147.2 6.23602 145.904 6.01077 144.526 6.01077C143.124 6.01077 141.817 6.24788 140.604 6.7221C139.392 7.17261 138.311 7.81281 137.36 8.6427C136.41 9.44888 135.625 10.3973 135.007 11.488C134.389 12.5787 133.974 13.7406 133.76 14.9736H155.435Z" fill="url(#paint0_radial_350_3)"/>
<path d="M104.669 18.1746C104.669 15.6849 105.145 13.3375 106.095 11.1324C107.046 8.92724 108.341 7.00664 109.981 5.37057C111.621 3.71079 113.534 2.40668 115.721 1.45823C117.931 0.486078 120.284 0 122.78 0H122.958C124.028 0 124.836 0.296389 125.382 0.889167C125.953 1.48194 126.238 2.22884 126.238 3.12987C126.238 4.03089 125.917 4.77779 125.275 5.37057C124.634 5.96335 123.861 6.25974 122.958 6.25974H122.78C121.164 6.25974 119.643 6.57984 118.217 7.22004C116.791 7.83652 115.531 8.69013 114.438 9.78084C113.368 10.8478 112.512 12.1045 111.871 13.5509C111.253 14.9973 110.944 16.5385 110.944 18.1746V31.192C110.944 32.093 110.647 32.8399 110.053 33.4327C109.482 34.0255 108.769 34.3218 107.914 34.3218C107.486 34.3218 107.07 34.2507 106.666 34.1084C106.286 33.9425 105.941 33.7172 105.632 33.4327C105.347 33.1481 105.109 32.8162 104.919 32.4368C104.753 32.0574 104.669 31.6425 104.669 31.192V18.1746Z" fill="url(#paint1_radial_350_3)"/>
<path fillRule="evenodd" clipRule="evenodd" d="M92.4898 31.6362C96.9543 28.4917 99.8708 23.2973 99.8709 17.4217C99.8709 7.82612 92.0921 0.0473764 82.4965 0.047376C78.8002 0.0473758 75.3735 1.20163 72.5572 3.16937L76.2701 8.47203C78.0354 7.24166 80.1817 6.52016 82.4965 6.52016C88.5173 6.52016 93.3981 11.4009 93.3981 17.4217C93.3981 21.104 91.5724 24.3598 88.7769 26.3335L90.632 28.9829L92.4871 31.6323L92.4898 31.6362Z" fill="url(#paint2_linear_350_3)"/>
<path d="M87.9491 30.8591C86.9492 29.4362 87.2571 27.4887 88.6231 26.4401C88.6611 26.411 88.6998 26.3825 88.7394 26.3548C90.2036 25.3296 92.2236 25.684 93.2513 27.1464C94.2729 28.6001 93.9294 30.6015 92.4871 31.6323C92.4785 31.6384 92.4698 31.6446 92.4611 31.6507C90.9969 32.6759 88.9768 32.3215 87.9491 30.8591Z" fill="url(#paint3_linear_350_3)"/>
<path fillRule="evenodd" clipRule="evenodd" d="M76.2701 8.47203C78.0354 7.24166 80.1817 6.52016 82.4965 6.52016C88.5173 6.52016 93.3981 11.4009 93.3981 17.4217C93.3981 21.104 91.5724 24.3598 88.7769 26.3335C88.7259 26.3695 88.6747 26.405 88.6231 26.4401C87.2571 27.4887 86.9492 29.4362 87.9491 30.8591C88.9768 32.3215 90.9969 32.6759 92.4611 31.6507C92.4698 31.6446 92.4785 31.6384 92.4871 31.6323L92.4898 31.6362C96.9543 28.4917 99.8708 23.2973 99.8709 17.4217C99.8709 7.82612 92.0921 0.0473764 82.4965 0.047376C78.8002 0.0473758 75.3735 1.20163 72.5572 3.16937L76.2701 8.47203Z" fill="url(#paint4_linear_350_3)"/>
<path fillRule="evenodd" clipRule="evenodd" d="M72.4496 3.15332C67.9852 6.29775 65.0686 11.4922 65.0686 17.3678C65.0686 26.9634 72.8474 34.7421 82.4429 34.7421C86.1392 34.7421 89.5659 33.5879 92.3823 31.6201L88.6693 26.3175C86.9041 27.5478 84.7578 28.2693 82.4429 28.2693C76.4222 28.2693 71.5414 23.3885 71.5414 17.3678C71.5414 13.6855 73.367 10.4297 76.1626 8.45599L72.4523 3.15722L72.4496 3.15332Z" fill="url(#paint5_linear_350_3)"/>
<path d="M76.9903 3.93041C77.9902 5.35329 77.6823 7.30082 76.3163 8.34938C76.2784 8.37851 76.2396 8.40695 76.2 8.43467C74.7359 9.45989 72.7158 9.10547 71.6881 7.64305C70.6665 6.18935 71.0101 4.18802 72.4523 3.15722C72.461 3.15104 72.4697 3.1449 72.4784 3.13879C73.9426 2.11357 75.9626 2.46799 76.9903 3.93041Z" fill="url(#paint6_linear_350_3)"/>
<path fillRule="evenodd" clipRule="evenodd" d="M88.6693 26.3175C86.9041 27.5478 84.7578 28.2693 82.4429 28.2693C76.4222 28.2693 71.5414 23.3885 71.5414 17.3678C71.5414 13.6855 73.367 10.4297 76.1626 8.45599C76.2135 8.42003 76.2648 8.38449 76.3163 8.34938C77.6823 7.30082 77.9902 5.35329 76.9903 3.93041C75.9626 2.46799 73.9426 2.11357 72.4784 3.13879C72.4697 3.1449 72.461 3.15104 72.4523 3.15722L72.4496 3.15332C67.9852 6.29775 65.0686 11.4922 65.0686 17.3678C65.0686 26.9634 72.8474 34.7421 82.4429 34.7421C86.1392 34.7421 89.5659 33.5879 92.3823 31.6201L88.6693 26.3175Z" fill="url(#paint7_linear_350_3)"/>
<path d="M93.2087 27.0928C94.2364 28.5553 93.8826 30.5719 92.4184 31.5971C90.9542 32.6223 88.9342 32.2679 87.9065 30.8055C86.8788 29.3431 87.2326 27.3264 88.6968 26.3012C90.1609 25.276 92.181 25.6304 93.2087 27.0928Z" fill="#0092C1"/>
<path d="M71.7308 7.69671C70.7031 6.23429 71.0569 4.21766 72.521 3.19245C73.9852 2.16723 76.0053 2.52165 77.033 3.98407C78.0607 5.44648 77.7069 7.46311 76.2427 8.48833C74.7785 9.51355 72.7585 9.15913 71.7308 7.69671Z" fill="#0092C1"/>
<path d="M31.1226 17.5699C31.1226 15.1277 31.5741 12.8396 32.4773 10.7056C33.3804 8.57157 34.6163 6.71025 36.1849 5.1216C37.7773 3.53296 39.6311 2.28812 41.7463 1.3871C43.8854 0.462367 46.1789 0 48.6268 0C50.9085 0 53.0712 0.403089 55.1152 1.20927C57.1829 2.01544 58.9654 3.16543 60.4627 4.65923C60.843 5.06232 61.1282 5.48912 61.3183 5.93963C61.5085 6.39015 61.6035 6.8288 61.6035 7.2556C61.6035 7.72982 61.4966 8.16848 61.2827 8.57157C61.0688 8.95095 60.7955 9.27105 60.4627 9.53187C60.1538 9.79269 59.8091 9.99424 59.4289 10.1365C59.0724 10.2788 58.7396 10.3499 58.4307 10.3499C57.9078 10.3499 57.4087 10.2195 56.9333 9.95867L54.4378 8.18034C53.3683 7.49271 52.3226 7.03035 51.3006 6.79323C50.2786 6.53241 49.1972 6.402 48.0564 6.402C46.5829 6.44942 45.2044 6.78138 43.921 7.39787C42.6376 8.01436 41.5206 8.83239 40.5699 9.85197C39.643 10.8478 38.9062 11.9978 38.3596 13.3019C37.8367 14.606 37.5753 15.9576 37.5753 17.3565C37.5753 18.7792 37.8367 20.1544 38.3596 21.4823C38.9062 22.8101 39.6549 23.9838 40.6055 25.0034C41.58 25.9992 42.7208 26.8054 44.028 27.4219C45.3351 28.0384 46.773 28.3466 48.3416 28.3466C49.4111 28.3466 50.445 28.2281 51.4432 27.991C52.4414 27.7302 53.4396 27.2559 54.4378 26.5683L56.9333 24.8255C57.171 24.707 57.4206 24.6121 57.682 24.541C57.9434 24.4462 58.2049 24.3987 58.4663 24.3987C58.7753 24.3987 59.108 24.4699 59.4645 24.6121C59.8448 24.7544 60.1894 24.9678 60.4984 25.2523C60.8073 25.5132 61.0569 25.8333 61.247 26.2126C61.4609 26.592 61.5679 27.0188 61.5679 27.493C61.5679 27.9436 61.4728 28.3941 61.2827 28.8446C61.1163 29.2951 60.843 29.71 60.4627 30.0894C58.9892 31.5832 57.2067 32.7332 55.1152 33.5394C53.0475 34.3218 50.8847 34.7131 48.6268 34.7131C46.2026 34.7131 43.9329 34.2744 41.8176 33.3971C39.7024 32.4961 37.8486 31.275 36.2562 29.7337C34.6638 28.1925 33.4042 26.3786 32.4773 24.292C31.5741 22.2055 31.1226 19.9648 31.1226 17.5699Z" fill="url(#paint8_radial_350_3)"/>
<path d="M17.0052 20.024H12.5845H10.5525C9.12647 20.024 7.80741 19.7514 6.5953 19.206C5.38319 18.6369 4.32557 17.89 3.42243 16.9653C2.54305 16.0169 1.85381 14.9262 1.35471 13.6932C0.855606 12.4602 0.606054 11.1561 0.606054 9.78084C0.606054 8.4293 0.86749 7.16076 1.39036 5.9752C1.91323 4.78965 2.61435 3.75821 3.49373 2.8809C4.39687 1.97988 5.45449 1.2804 6.6666 0.782467C7.87871 0.260822 9.174 0 10.5525 0H22.9231C23.7787 0 24.5155 0.260822 25.1334 0.782467C25.7514 1.30411 26.0603 2.06287 26.0603 3.05873C26.0603 3.50925 25.9772 3.93605 25.8108 4.33914C25.6682 4.71851 25.4543 5.06232 25.1691 5.37057C24.9076 5.6551 24.5987 5.88036 24.2422 6.04634C23.8857 6.21231 23.5054 6.2953 23.1014 6.2953H22.9231H10.5881C10.0653 6.2953 9.57804 6.402 9.12647 6.6154C8.69866 6.80509 8.31839 7.07777 7.98566 7.43344C7.65292 7.76539 7.39149 8.15662 7.20135 8.60714C7.01122 9.03394 6.91615 9.4963 6.91615 9.99424C6.91615 10.5396 7.01122 11.0375 7.20135 11.488C7.39149 11.9385 7.65292 12.3298 7.98566 12.6617C8.34216 12.97 8.73431 13.2189 9.16212 13.4086C9.61369 13.5983 10.089 13.6932 10.5881 13.6932H12.6558H17.7538C19.2036 13.6932 20.5464 13.9777 21.7823 14.5468C23.0182 15.0921 24.0758 15.839 24.9552 16.7875C25.8583 17.7359 26.5594 18.8385 27.0585 20.0952C27.5814 21.3519 27.8429 22.6678 27.8429 24.0431C27.8429 25.442 27.5814 26.7699 27.0585 28.0265C26.5594 29.2595 25.8583 30.3502 24.9552 31.2987C24.052 32.2234 22.9707 32.9585 21.711 33.5038C20.4751 34.0492 19.1323 34.3218 17.6825 34.3218H2.88767C2.05583 34.3218 1.36659 34.0255 0.819956 33.4327C0.273319 32.8399 0 32.0693 0 31.1208C0 30.1724 0.273319 29.4255 0.819956 28.8801C1.36659 28.3348 2.05583 28.0621 2.88767 28.0621H17.1478C17.6706 28.0621 18.1935 27.9791 18.7164 27.8131C19.2393 27.6235 19.7146 27.3508 20.1424 26.9951C20.5702 26.6394 20.9148 26.2126 21.1763 25.7147C21.4377 25.1931 21.5684 24.5884 21.5684 23.9008C21.5684 23.2369 21.4377 22.6678 21.1763 22.1936C20.9386 21.7194 20.6059 21.3282 20.178 21.0199C19.774 20.7117 19.3106 20.4746 18.7877 20.3086C18.2648 20.1426 17.7301 20.0478 17.1834 20.024H17.1121H17.0052Z" fill="url(#paint9_radial_350_3)"/>
<defs>
<radialGradient id="paint0_radial_350_3" cx="0" cy="0" r="1" gradientUnits="userSpaceOnUse" gradientTransform="translate(160.294 17.2392) rotate(180) scale(37.1905 46.9485)">
<stop offset="0.15" stop-color="white"/>
<stop offset="0.920224" stop-color="white" stop-opacity="0.5"/>
</radialGradient>
<radialGradient id="paint1_radial_350_3" cx="0" cy="0" r="1" gradientUnits="userSpaceOnUse" gradientTransform="translate(125.254 17.0274) rotate(180) scale(22.9594 46.3719)">
<stop offset="0.15" stop-color="white"/>
<stop offset="0.920224" stop-color="white" stop-opacity="0.5"/>
</radialGradient>
<linearGradient id="paint2_linear_350_3" x1="76.3646" y1="9.41555" x2="89.1261" y2="37.2912" gradientUnits="userSpaceOnUse">
<stop stop-color="#0092C1"/>
<stop offset="0.807075" stop-color="#003546" stop-opacity="0"/>
</linearGradient>
<linearGradient id="paint3_linear_350_3" x1="76.3646" y1="9.41555" x2="89.1261" y2="37.2912" gradientUnits="userSpaceOnUse">
<stop stop-color="#0092C1"/>
<stop offset="0.807075" stop-color="#003546" stop-opacity="0"/>
</linearGradient>
<linearGradient id="paint4_linear_350_3" x1="76.3646" y1="9.41555" x2="89.1261" y2="37.2912" gradientUnits="userSpaceOnUse">
<stop stop-color="#0092C1"/>
<stop offset="0.807075" stop-color="#003546" stop-opacity="0"/>
</linearGradient>
<linearGradient id="paint5_linear_350_3" x1="88.5749" y1="25.3739" x2="75.8133" y2="-2.50173" gradientUnits="userSpaceOnUse">
<stop stop-color="#0092C1"/>
<stop offset="0.807075" stop-color="#003546" stop-opacity="0"/>
</linearGradient>
<linearGradient id="paint6_linear_350_3" x1="88.5749" y1="25.3739" x2="75.8133" y2="-2.50173" gradientUnits="userSpaceOnUse">
<stop stop-color="#0092C1"/>
<stop offset="0.807075" stop-color="#003546" stop-opacity="0"/>
</linearGradient>
<linearGradient id="paint7_linear_350_3" x1="88.5749" y1="25.3739" x2="75.8133" y2="-2.50173" gradientUnits="userSpaceOnUse">
<stop stop-color="#0092C1"/>
<stop offset="0.807075" stop-color="#003546" stop-opacity="0"/>
</linearGradient>
<radialGradient id="paint8_radial_350_3" cx="0" cy="0" r="1" gradientUnits="userSpaceOnUse" gradientTransform="translate(60.2128 17.2215) rotate(180) scale(32.4468 46.9004)">
<stop offset="0.15" stop-color="white"/>
<stop offset="0.920224" stop-color="white" stop-opacity="0.5"/>
</radialGradient>
<radialGradient id="paint9_radial_350_3" cx="0" cy="0" r="1" gradientUnits="userSpaceOnUse" gradientTransform="translate(26.5725 17.0274) rotate(180) scale(29.6385 46.3719)">
<stop offset="0.15" stop-color="white"/>
<stop offset="0.920224" stop-color="white" stop-opacity="0.5"/>
</radialGradient>
</defs>
</svg>
