<svg width="20" height="20" viewBox="0 0 20 20" fill="none" xmlns="http://www.w3.org/2000/svg">
<path d="M17.0711 2.92893C15.1957 1.05357 12.6522 -1.97602e-08 10 0C7.34783 1.97602e-08 4.8043 1.05357 2.92893 2.92893C1.05357 4.8043 1.97602e-08 7.34783 0 10C-1.97602e-08 12.6522 1.05357 15.1957 2.92893 17.0711C4.8043 18.9464 7.34783 20 10 20C12.6522 20 15.1957 18.9464 17.0711 17.0711C18.9464 15.1957 20 12.6522 20 10C20 7.34783 18.9464 4.8043 17.0711 2.92893ZM16.8851 4.74289C17.9709 6.1583 18.5908 7.87573 18.6593 9.65833L15.9035 7.58451L16.8851 4.74289ZM12.5014 1.70189L10.069 3.50897L7.52209 1.69489C9.14681 1.21049 10.8779 1.21293 12.5012 1.70189H12.5014ZM4.20001 7.5853L1.33985 9.68042C1.40453 7.87864 2.03247 6.14249 3.13535 4.71622L4.20001 7.5853ZM2.92502 15H6.23188L7.27501 18.2274C5.51869 17.6416 3.99491 16.511 2.92502 15ZM8.79113 18.5819L7.20209 13.6667H2.14843C1.79215 12.9072 1.54896 12.0996 1.4266 11.2697L5.80022 8.06555L4.14822 3.61314C4.72101 3.08752 5.36162 2.641 6.05297 2.28548L10.0855 5.15772L13.9497 2.28689C14.644 2.64424 15.287 3.09338 15.8615 3.62222L14.3264 8.06667L18.5743 11.2634C18.4523 12.0955 18.2088 12.9052 17.8516 13.6667H12.9797L11.2278 18.5791C10.4197 18.6947 9.59937 18.6956 8.79104 18.5818L8.79113 18.5819ZM12.7747 18.2111L13.9198 15H17.075C16.0154 16.4965 14.5105 17.6203 12.7746 18.2112L12.7747 18.2111Z" fill="#0087B1"/>
<path d="M13.7832 8.64278L10.0768 5.95L6.37036 8.64278L7.78603 13H12.3675L13.7832 8.64278ZM11.3988 11.6667H8.75473L7.93769 9.15203L10.0768 7.59787L12.2158 9.15203L11.3988 11.6667Z" fill="#0087B1"/>
</svg>
