<svg width="21" height="20" viewBox="0 0 21 20" fill="none" xmlns="http://www.w3.org/2000/svg">
<path d="M10.5 14.3567H12.4514C14.0224 14.3567 15.3714 13.5779 16.1569 12.2173L19.9199 5.69953" stroke="#555E61" stroke-width="1.5" stroke-miterlimit="22.926" stroke-linecap="round" strokeLinejoin="round"/>
<path d="M19.9136 0.999941L14.9217 9.64612H7.3821C6.92493 9.64612 6.53321 9.88824 6.32877 10.2971L4.94919 13.0562" stroke="#555E61" stroke-width="1.5" stroke-miterlimit="22.926" stroke-linecap="round" stroke-linejoin="round"/>
<path d="M1.00054 17.5618C1.3485 18.427 3.34952 19.0673 5.70541 19.0673C8.20587 19.0673 10.2795 18.3485 10.4512 17.4221" stroke="#555E61" stroke-width="1.5" stroke-miterlimit="22.926" strokeLinecap="round" stroke-linejoin="round"/>
<path d="M5.73023 16.6924C3.12492 16.6924 1.00001 15.8989 1.00001 14.9259C1.00001 13.953 3.12492 13.1595 5.73023 13.1595C8.33554 13.1595 10.4604 13.953 10.4604 14.9259C10.4604 15.8989 8.33554 16.6924 5.73023 16.6924Z" stroke="#555E61" stroke-width="1.5" stroke-miterlimit="22.926" stroke-linecap="round" stroke-linejoin="round"/>
<path d="M1.00195 14.8221V17.5314" stroke="#555E61" stroke-width="1.5" stroke-miterlimit="22.926" stroke-linecap="round" strokeLinejoin="round"/>
<path d="M10.4624 14.8221V17.3744" stroke="#555E61" stroke-width="1.5" stroke-miterlimit="22.926" stroke-linecap="round" strokeLinejoin="round"/>
<path d="M16.1073 7.59345L17.9575 8.66165" stroke="#555E61" stroke-width="1.5" stroke-miterlimit="22.926" stroke-linecap="round" strokeLinejoin="round"/>
</svg>
