<svg width="19" height="20" viewBox="0 0 19 20" fill="none" xmlns="http://www.w3.org/2000/svg">
<path d="M5.24144 3.16667C5.24144 2.63925 5.08774 2.12368 4.79977 1.68515C4.5118 1.24662 4.1025 0.904823 3.62363 0.702989C3.14475 0.501155 2.61781 0.448347 2.10944 0.55124C1.60107 0.654134 1.13411 0.90811 0.767592 1.28105C0.401078 1.65399 0.151479 2.12914 0.0503576 2.64643C-0.0507635 3.16371 0.00113551 3.69989 0.199492 4.18716C0.397848 4.67443 0.733752 5.0909 1.16473 5.38392C1.5957 5.67694 2.10239 5.83333 2.62072 5.83333C3.31554 5.83254 3.98168 5.55133 4.47299 5.05141C4.9643 4.55148 5.24066 3.87367 5.24144 3.16667ZM1.31036 3.16667C1.31036 2.90296 1.38721 2.64517 1.5312 2.42591C1.67518 2.20664 1.87983 2.03575 2.11927 1.93483C2.35871 1.83391 2.62218 1.80751 2.87636 1.85895C3.13055 1.9104 3.36403 2.03739 3.54729 2.22386C3.73054 2.41033 3.85534 2.64791 3.9059 2.90655C3.95646 3.16519 3.93052 3.43328 3.83134 3.67691C3.73216 3.92055 3.56421 4.12879 3.34872 4.27529C3.13323 4.4218 2.87989 4.5 2.62072 4.5C2.27331 4.4996 1.94024 4.359 1.69459 4.10904C1.44893 3.85908 1.31075 3.52017 1.31036 3.16667ZM17.3889 2.80983C16.8831 2.29203 16.2819 1.88072 15.6199 1.5994C14.9578 1.31809 14.2477 1.17229 13.5302 1.17033H13.5047C11.9695 1.17033 10.4704 1.83571 9.28145 3.04563C8.07022 4.27813 7.08053 6.151 6.63403 8.05563C6.52127 8.5305 6.44651 9.01388 6.41049 9.50104C6.36402 10.2547 6.15031 10.9878 5.78541 11.6453C5.52991 12.0948 5.21752 12.5083 4.85624 12.875L1.60962 16.2588C1.1023 16.7768 1.04829 17.3094 1.0926 17.6653C1.14395 18.0786 1.35979 18.4891 1.71678 18.8524C2.07377 19.2157 2.4774 19.4353 2.88345 19.4875C2.94802 19.4958 3.01304 19.5 3.07812 19.5C3.41341 19.5 3.84611 19.3884 4.26866 18.9583L7.515 15.575C7.90273 15.1799 8.34347 14.8426 8.82409 14.5732C9.43876 14.2363 10.1175 14.0382 10.8142 13.9922C11.2958 13.9547 11.7736 13.8772 12.2427 13.7605C14.1077 13.3025 15.9449 12.2927 17.157 11.0592C18.3527 9.84254 19.0072 8.30721 18.9999 6.736C18.998 6.00597 18.8547 5.28349 18.5783 4.60982C18.3019 3.93615 17.8977 3.32451 17.3889 2.80983ZM3.33962 18.0182C3.17812 18.1814 3.08344 18.1692 3.04774 18.1647C2.93599 18.1503 2.78861 18.0573 2.64337 17.9095C2.49812 17.7618 2.40672 17.6118 2.3926 17.498C2.38805 17.4615 2.37601 17.3647 2.53907 17.1986L5.13416 14.494L5.93716 15.311L3.33962 18.0182ZM6.86326 14.3678L6.04543 13.5356C6.3751 13.1633 6.66584 12.757 6.91297 12.3235C7.18124 12.8102 7.57629 13.2121 8.05462 13.485C7.62852 13.7364 7.22925 14.0323 6.86326 14.3678V14.3678ZM16.2307 10.1167C15.1974 11.168 13.5516 12.0677 11.9355 12.4646C10.3273 12.8595 8.98006 12.7014 8.33156 12.0417C6.94901 10.6348 7.96617 6.2695 10.208 3.98833C11.2344 2.944 12.3988 2.50883 13.4918 2.50883C14.6043 2.50947 15.6716 2.95639 16.4623 3.75263C17.9222 5.23804 18.3371 7.97325 16.2307 10.1167Z" fill="#555E61"/>
</svg>
