<svg width="145" height="13" viewBox="0 0 145 13" fill="none" xmlns="http://www.w3.org/2000/svg">
<path d="M2.79061 4.6911H7.90671V7.50577H2.79061V12.1968H0V0H9.30199L7.90671 2.81466H2.79061V4.6911Z" fill="#0092C1"/>
<path d="M38.9568 2.81466H35.7012V0H45.0032L43.6079 2.81466H41.7474V12.1968H38.9662L38.9568 2.81466Z" fill="#0092C1"/>
<path d="M49.189 5.62932V9.38218H53.3749C53.6292 9.38218 53.8463 9.29151 54.0261 9.11016C54.2121 8.92247 54.3051 8.70049 54.3051 8.44399C54.3051 8.18748 54.2121 7.96861 54.0261 7.78724C53.8463 7.59958 53.6292 7.50577 53.3749 7.50577H49.189V5.62932ZM49.189 2.81466V4.6911H53.3749C53.6292 4.6911 53.8463 4.60041 54.0261 4.41902C54.2121 4.23138 54.3051 4.00933 54.3051 3.75288C54.3051 3.49644 54.2121 3.27752 54.0261 3.09613C53.8463 2.90848 53.6292 2.81466 53.3749 2.81466H49.189ZM53.3749 0C54.4044 0 55.2819 0.365906 56.0073 1.09771C56.733 1.82953 57.0957 2.71459 57.0957 3.75288C57.0957 4.64732 56.826 5.42917 56.2865 6.09844C56.826 6.76769 57.0957 7.54955 57.0957 8.44399C57.0957 9.48228 56.733 10.3673 56.0073 11.0992C55.2819 11.831 54.4044 12.1968 53.3749 12.1968H46.3984V0H53.3749Z" fill="#0092C1"/>
<path d="M73.8394 9.38218H80.3511V12.1968H71.0581L71.0488 10.3205V0H73.8394V9.38218Z" fill="#0092C1"/>
<path d="M84.5365 9.38218H91.0478V12.1968H81.7558L81.7461 10.3205V0H84.5365V9.38218Z" fill="#0092C1"/>
<path fill-rule="evenodd" clip-rule="evenodd" d="M61.7469 12.1968H58.4912L62.6772 0H65.9329L70.1188 12.1968H66.8631L66.2212 10.3205L65.2632 7.53391L64.3051 4.74739L63.3562 7.50577H64.3051L65.2632 10.3039L62.4121 10.2547L61.7469 12.1968Z" fill="#0092C1"/>
<path d="M92.4438 0H95.2343L100.35 7.44947V0H103.141V12.1968H100.35L95.2343 4.74739V12.1968H92.4438V0Z" fill="black"/>
<path d="M113.838 0L112.443 2.81466H104.536V0H113.838ZM104.536 4.6911H112.452V7.50577H104.536V4.6911ZM104.536 9.38218H113.838V12.1968H104.546L104.536 9.38218Z" fill="black"/>
<path d="M124.303 5.33847L122.21 12.1968H118.955L115.233 0H118.489L120.582 7.44947L122.675 0H125.931L128.024 7.44947L130.116 0H133.372L129.651 12.1968H126.395L124.303 5.33847Z" fill="black"/>
<path d="M141.278 9.38218C141.534 9.38218 141.75 9.29151 141.93 9.11016C142.116 8.92247 142.209 8.70049 142.209 8.44399C142.209 8.18748 142.116 7.96861 141.93 7.78724C141.75 7.59958 141.534 7.50577 141.278 7.50577H138.023C136.994 7.50577 136.116 7.13986 135.391 6.40804C134.666 5.67624 134.302 4.79118 134.302 3.75288C134.302 2.71459 134.666 1.82953 135.391 1.09771C136.116 0.365906 136.994 0 138.023 0H145L143.605 2.81466H138.023C137.769 2.81466 137.549 2.90848 137.363 3.09613C137.183 3.27752 137.093 3.49644 137.093 3.75288C137.093 4.00933 137.183 4.23138 137.363 4.41902C137.549 4.60041 137.769 4.6911 138.023 4.6911H141.278C142.309 4.6911 143.186 5.05701 143.911 5.78882C144.637 6.52063 145 7.40569 145 8.44399C145 9.48228 144.637 10.3673 143.911 11.0992C143.186 11.831 142.309 12.1968 141.278 12.1968H134.302V9.38218H141.278Z" fill="black"/>
<path d="M2.79061 4.6911H7.90671V7.50577H2.79061V12.1968H0V0H9.30199L7.90671 2.81466H2.79061V4.6911Z" fill="#0092C1"/>
<path d="M38.9568 2.81466H35.7012V0H45.0032L43.6079 2.81466H41.7474V12.1968H38.9662L38.9568 2.81466Z" fill="#0092C1"/>
<path d="M49.189 5.62932V9.38218H53.3749C53.6292 9.38218 53.8463 9.29151 54.0261 9.11016C54.2121 8.92247 54.3051 8.70049 54.3051 8.44399C54.3051 8.18748 54.2121 7.96861 54.0261 7.78724C53.8463 7.59958 53.6292 7.50577 53.3749 7.50577H49.189V5.62932ZM49.189 2.81466V4.6911H53.3749C53.6292 4.6911 53.8463 4.60041 54.0261 4.41902C54.2121 4.23138 54.3051 4.00933 54.3051 3.75288C54.3051 3.49644 54.2121 3.27752 54.0261 3.09613C53.8463 2.90848 53.6292 2.81466 53.3749 2.81466H49.189ZM53.3749 0C54.4044 0 55.2819 0.365906 56.0073 1.09771C56.733 1.82953 57.0957 2.71459 57.0957 3.75288C57.0957 4.64732 56.826 5.42917 56.2865 6.09844C56.826 6.76769 57.0957 7.54955 57.0957 8.44399C57.0957 9.48228 56.733 10.3673 56.0073 11.0992C55.2819 11.831 54.4044 12.1968 53.3749 12.1968H46.3984V0H53.3749Z" fill="#0092C1"/>
<path d="M73.8394 9.38218H80.3511V12.1968H71.0581L71.0488 10.3205V0H73.8394V9.38218Z" fill="#0092C1"/>
<path d="M84.5365 9.38218H91.0478V12.1968H81.7558L81.7461 10.3205V0H84.5365V9.38218Z" fill="#0092C1"/>
<path fill-rule="evenodd" clip-rule="evenodd" d="M61.7469 12.1968H58.4912L62.6772 0H65.9329L70.1188 12.1968H66.8631L66.2212 10.3205L65.2632 7.53391L64.3051 4.74739L63.3562 7.50577H64.3051L65.2632 10.3039L62.4121 10.2547L61.7469 12.1968Z" fill="#0092C1"/>
<path d="M92.4438 0H95.2343L100.35 7.44947V0H103.141V12.1968H100.35L95.2343 4.74739V12.1968H92.4438V0Z" fill="black"/>
<path d="M113.838 0L112.443 2.81466H104.536V0H113.838ZM104.536 4.6911H112.452V7.50577H104.536V4.6911ZM104.536 9.38218H113.838V12.1968H104.546L104.536 9.38218Z" fill="black"/>
<path d="M124.303 5.33847L122.21 12.1968H118.955L115.233 0H118.489L120.582 7.44947L122.675 0H125.931L128.024 7.44947L130.116 0H133.372L129.651 12.1968H126.395L124.303 5.33847Z" fill="black"/>
<path d="M141.278 9.38218C141.534 9.38218 141.75 9.29151 141.93 9.11016C142.116 8.92247 142.209 8.70049 142.209 8.44399C142.209 8.18748 142.116 7.96861 141.93 7.78724C141.75 7.59958 141.534 7.50577 141.278 7.50577H138.023C136.994 7.50577 136.116 7.13986 135.391 6.40804C134.666 5.67624 134.302 4.79118 134.302 3.75288C134.302 2.71459 134.666 1.82953 135.391 1.09771C136.116 0.365906 136.994 0 138.023 0H145L143.605 2.81466H138.023C137.769 2.81466 137.549 2.90848 137.363 3.09613C137.183 3.27752 137.093 3.49644 137.093 3.75288C137.093 4.00933 137.183 4.23138 137.363 4.41902C137.549 4.60041 137.769 4.6911 138.023 4.6911H141.278C142.309 4.6911 143.186 5.05701 143.911 5.78882C144.637 6.52063 145 7.40569 145 8.44399C145 9.48228 144.637 10.3673 143.911 11.0992C143.186 11.831 142.309 12.1968 141.278 12.1968H134.302V9.38218H141.278Z" fill="black"/>
<path d="M18.7259 6.26503C18.7259 4.58673 17.377 3.2262 15.7131 3.2262C14.0491 3.2262 12.7002 4.58673 12.7002 6.26503C12.7002 7.94333 14.0491 9.30386 15.7131 9.30386C17.377 9.30386 18.7259 7.94333 18.7259 6.26503Z" fill="#0092C1"/>
<path fill-rule="evenodd" clip-rule="evenodd" d="M15.7134 0.187653C19.0412 0.187653 21.739 2.90871 21.739 6.26532C21.739 9.62089 19.0429 12.3414 15.7163 12.343H27.3129C30.6408 12.343 33.3386 9.62195 33.3386 6.26532C33.3386 2.90871 30.6408 0.187653 27.3128 0.187653H15.7134ZM27.0115 3.22649C25.3477 3.22649 23.9987 4.58701 23.9987 6.26532C23.9987 7.94359 25.3477 9.30418 27.0115 9.30418C28.6755 9.30418 30.0245 7.94359 30.0245 6.26532C30.0245 4.58701 28.6755 3.22649 27.0115 3.22649Z" fill="#0092C1"/>
</svg>
