<svg width="180" height="16" viewBox="0 0 180 16" fill="none" xmlns="http://www.w3.org/2000/svg">
<path d="M3.4642 5.77366H9.81522V9.23787H3.4642V15.0115H0V0H11.5473L9.81522 3.4642H3.4642V5.77366Z" fill="#0092C1"/>
<path d="M48.3602 3.4642H44.3187V0H55.866L54.1339 3.4642H51.8244V15.0115H48.3718L48.3602 3.4642Z" fill="#0092C1"/>
<path d="M61.0623 6.9284V11.5473H66.2585C66.5742 11.5473 66.8437 11.4357 67.0669 11.2125C67.2978 10.9815 67.4133 10.7083 67.4133 10.3926C67.4133 10.0769 67.2978 9.80752 67.0669 9.58429C66.8437 9.35333 66.5742 9.23787 66.2585 9.23787H61.0623V6.9284ZM61.0623 3.4642V5.77366H66.2585C66.5742 5.77366 66.8437 5.66204 67.0669 5.43879C67.2978 5.20785 67.4133 4.93456 67.4133 4.61893C67.4133 4.30331 67.2978 4.03387 67.0669 3.81062C66.8437 3.57967 66.5742 3.4642 66.2585 3.4642H61.0623ZM66.2585 0C67.5365 0 68.6258 0.450346 69.5264 1.35103C70.4272 2.25173 70.8775 3.34103 70.8775 4.61893C70.8775 5.71978 70.5426 6.68206 69.8729 7.50577C70.5426 8.32947 70.8775 9.29175 70.8775 10.3926C70.8775 11.6705 70.4272 12.7598 69.5264 13.6605C68.6258 14.5612 67.5365 15.0115 66.2585 15.0115H57.5981V0H66.2585Z" fill="#0092C1"/>
<path d="M91.6626 11.5473H99.7461V15.0115H88.2099L88.1984 12.7021V0H91.6626V11.5473Z" fill="#0092C1"/>
<path d="M104.942 11.5473H113.025V15.0115H101.49L101.478 12.7021V0H104.942V11.5473Z" fill="#0092C1"/>
<path fill-rule="evenodd" clip-rule="evenodd" d="M76.6512 15.0115H72.6096L77.806 0H81.8475L87.0438 15.0115H83.0023L82.2055 12.7021L81.0162 9.27251L79.8268 5.84294L78.6489 9.23787H79.8268L81.0162 12.6817L77.4769 12.6212L76.6512 15.0115Z" fill="#0092C1"/>
<path d="M114.758 0H118.222L124.573 9.16858V0H128.037V15.0115H124.573L118.222 5.84294V15.0115H114.758V0Z" fill="black"/>
<path d="M141.316 0L139.584 3.4642H129.769V0H141.316ZM129.769 5.77366H139.595V9.23787H129.769V5.77366ZM129.769 11.5473H141.316V15.0115H129.781L129.769 11.5473Z" fill="black"/>
<path d="M154.308 6.57043L151.709 15.0115H147.668L143.048 0H147.09L149.688 9.16858L152.286 0H156.328L158.926 9.16858L161.524 0H165.566L160.946 15.0115H156.905L154.308 6.57043Z" fill="black"/>
<path d="M175.38 11.5473C175.697 11.5473 175.966 11.4357 176.189 11.2125C176.42 10.9815 176.535 10.7083 176.535 10.3926C176.535 10.0769 176.42 9.80752 176.189 9.58429C175.966 9.35333 175.697 9.23787 175.38 9.23787H171.339C170.062 9.23787 168.972 8.78752 168.071 7.88682C167.171 6.98614 166.72 5.89684 166.72 4.61893C166.72 3.34103 167.171 2.25173 168.071 1.35103C168.972 0.450346 170.062 0 171.339 0H180L178.268 3.4642H171.339C171.024 3.4642 170.751 3.57967 170.52 3.81062C170.296 4.03387 170.184 4.30331 170.184 4.61893C170.184 4.93456 170.296 5.20785 170.52 5.43879C170.751 5.66204 171.024 5.77366 171.339 5.77366H175.38C176.659 5.77366 177.748 6.22401 178.648 7.1247C179.549 8.02539 180 9.11469 180 10.3926C180 11.6705 179.549 12.7598 178.648 13.6605C177.748 14.5612 176.659 15.0115 175.38 15.0115H166.72V11.5473H175.38Z" fill="black"/>
<path d="M3.4642 5.77366H9.81522V9.23787H3.4642V15.0115H0V0H11.5473L9.81522 3.4642H3.4642V5.77366Z" fill="#0092C1"/>
<path d="M48.3602 3.4642H44.3187V0H55.866L54.1339 3.4642H51.8244V15.0115H48.3718L48.3602 3.4642Z" fill="#0092C1"/>
<path d="M61.0623 6.9284V11.5473H66.2585C66.5742 11.5473 66.8437 11.4357 67.0669 11.2125C67.2978 10.9815 67.4133 10.7083 67.4133 10.3926C67.4133 10.0769 67.2978 9.80752 67.0669 9.58429C66.8437 9.35333 66.5742 9.23787 66.2585 9.23787H61.0623V6.9284ZM61.0623 3.4642V5.77366H66.2585C66.5742 5.77366 66.8437 5.66204 67.0669 5.43879C67.2978 5.20785 67.4133 4.93456 67.4133 4.61893C67.4133 4.30331 67.2978 4.03387 67.0669 3.81062C66.8437 3.57967 66.5742 3.4642 66.2585 3.4642H61.0623ZM66.2585 0C67.5365 0 68.6258 0.450346 69.5264 1.35103C70.4272 2.25173 70.8775 3.34103 70.8775 4.61893C70.8775 5.71978 70.5426 6.68206 69.8729 7.50577C70.5426 8.32947 70.8775 9.29175 70.8775 10.3926C70.8775 11.6705 70.4272 12.7598 69.5264 13.6605C68.6258 14.5612 67.5365 15.0115 66.2585 15.0115H57.5981V0H66.2585Z" fill="#0092C1"/>
<path d="M91.6626 11.5473H99.7461V15.0115H88.2099L88.1984 12.7021V0H91.6626V11.5473Z" fill="#0092C1"/>
<path d="M104.942 11.5473H113.025V15.0115H101.49L101.478 12.7021V0H104.942V11.5473Z" fill="#0092C1"/>
<path fill-rule="evenodd" clip-rule="evenodd" d="M76.6512 15.0115H72.6096L77.806 0H81.8475L87.0438 15.0115H83.0023L82.2055 12.7021L81.0162 9.27251L79.8268 5.84294L78.6489 9.23787H79.8268L81.0162 12.6817L77.4769 12.6212L76.6512 15.0115Z" fill="#0092C1"/>
<path d="M114.758 0H118.222L124.573 9.16858V0H128.037V15.0115H124.573L118.222 5.84294V15.0115H114.758V0Z" fill="black"/>
<path d="M141.316 0L139.584 3.4642H129.769V0H141.316ZM129.769 5.77366H139.595V9.23787H129.769V5.77366ZM129.769 11.5473H141.316V15.0115H129.781L129.769 11.5473Z" fill="black"/>
<path d="M154.308 6.57043L151.709 15.0115H147.668L143.048 0H147.09L149.688 9.16858L152.286 0H156.328L158.926 9.16858L161.524 0H165.566L160.946 15.0115H156.905L154.308 6.57043Z" fill="black"/>
<path d="M175.38 11.5473C175.697 11.5473 175.966 11.4357 176.189 11.2125C176.42 10.9815 176.535 10.7083 176.535 10.3926C176.535 10.0769 176.42 9.80752 176.189 9.58429C175.966 9.35333 175.697 9.23787 175.38 9.23787H171.339C170.062 9.23787 168.972 8.78752 168.071 7.88682C167.171 6.98614 166.72 5.89684 166.72 4.61893C166.72 3.34103 167.171 2.25173 168.071 1.35103C168.972 0.450346 170.062 0 171.339 0H180L178.268 3.4642H171.339C171.024 3.4642 170.751 3.57967 170.52 3.81062C170.296 4.03387 170.184 4.30331 170.184 4.61893C170.184 4.93456 170.296 5.20785 170.52 5.43879C170.751 5.66204 171.024 5.77366 171.339 5.77366H175.38C176.659 5.77366 177.748 6.22401 178.648 7.1247C179.549 8.02539 180 9.11469 180 10.3926C180 11.6705 179.549 12.7598 178.648 13.6605C177.748 14.5612 176.659 15.0115 175.38 15.0115H166.72V11.5473H175.38Z" fill="black"/>
<path d="M23.2463 7.7108C23.2463 5.6452 21.5718 3.9707 19.5062 3.9707C17.4406 3.9707 15.7661 5.6452 15.7661 7.7108C15.7661 9.7764 17.4406 11.4509 19.5062 11.4509C21.5718 11.4509 23.2463 9.7764 23.2463 7.7108Z" fill="#0092C1"/>
<path fill-rule="evenodd" clip-rule="evenodd" d="M19.5061 0.230957C23.6372 0.230957 26.9862 3.57995 26.9862 7.71116C26.9862 11.8411 23.6393 15.1894 19.5097 15.1914H33.9055C38.0367 15.1914 41.3857 11.8424 41.3857 7.71116C41.3857 3.57995 38.0367 0.230957 33.9054 0.230957H19.5061ZM33.5314 3.97106C31.4659 3.97106 29.7913 5.64555 29.7913 7.71116C29.7913 9.77672 31.4659 11.4513 33.5314 11.4513C35.597 11.4513 37.2716 9.77672 37.2716 7.71116C37.2716 5.64555 35.597 3.97106 33.5314 3.97106Z" fill="#0092C1"/>
</svg>
