<svg width="94" height="27" viewBox="0 0 94 27" fill="none" xmlns="http://www.w3.org/2000/svg">
<g clip-path="url(#clip0_637_2)">
<path d="M75.4377 7.18164C76.4002 7.18164 77.1649 7.49012 77.7331 8.10711C78.3005 8.69935 78.5597 9.43971 78.51 10.3281C78.4611 11.3399 78.263 12.29 77.9181 13.1784C76.0917 18.0401 74.1668 21.5198 72.1432 23.6174C70.1442 25.7151 67.9478 26.7639 65.554 26.7639C62.9628 26.7639 61.5314 25.4929 61.26 22.9511C59.7793 25.4929 57.8174 26.7639 55.3742 26.7639C51.6972 26.7639 50.3275 24.2714 51.2653 19.2864L53.3383 8.29216C53.4123 7.87266 53.6467 7.68753 54.0416 7.73693C55.7938 7.9343 57.5336 7.9343 59.2611 7.73693C59.4585 7.71223 59.6189 7.78625 59.7423 7.95899C59.8657 8.10711 59.9027 8.27985 59.8534 8.47721C58.1999 16.3496 57.3731 20.5079 57.3731 20.9521C57.3485 21.8405 57.7187 22.2848 58.4837 22.2848C59.0513 22.2848 59.6189 22.0257 60.1865 21.5074C60.7788 20.9644 61.26 20.0267 61.6302 18.694L63.6291 8.29216C63.7032 7.87266 63.9376 7.68753 64.3325 7.73693C66.0106 7.95899 67.6887 7.95899 69.3669 7.73693C69.5643 7.71223 69.7246 7.78625 69.8481 7.95899C69.9715 8.10711 70.0085 8.27985 69.9591 8.47721C68.3057 16.3743 67.4666 20.6314 67.4419 21.2483C67.4419 21.9146 67.7257 22.2477 68.2933 22.2477C68.9597 22.2477 69.7987 21.5568 70.8106 20.1748C71.8223 18.7681 72.501 17.3861 72.8465 16.0288C73.044 15.3131 72.9452 14.3754 72.5503 13.2155C72.1802 12.0556 72.0444 11.0562 72.1432 10.2171C72.2666 9.30398 72.6244 8.57593 73.2167 8.03301C73.8336 7.46544 74.574 7.18164 75.4377 7.18164Z" fill="white"/>
<path fillRule="evenodd" clipRule="evenodd" d="M49.1946 22.0628C48.9725 21.89 48.664 21.9023 48.2692 22.0998C46.9365 22.7661 45.752 23.0993 44.7155 23.0993C43.4075 23.0993 42.3957 22.7414 41.6801 22.0258C40.9891 21.2854 40.5818 20.2983 40.4585 19.0643C43.494 18.8916 45.9001 18.0402 47.6769 16.5101C49.1576 15.1775 49.898 13.6598 49.898 11.957C49.898 10.5997 49.3673 9.47681 48.3062 8.58841C47.2697 7.67531 45.9371 7.21875 44.3083 7.21875C42.5315 7.21875 40.7917 7.72464 39.0888 8.73646C37.46 9.69895 36.1645 11.1179 35.202 12.9935C34.2395 14.869 33.7583 16.7569 33.7583 18.6571C33.7583 20.0391 34.0298 21.3224 34.5727 22.507C35.1403 23.6915 35.967 24.6293 37.0529 25.3203C38.4843 26.2581 40.3104 26.727 42.5315 26.727C45.1967 26.727 47.4054 25.7892 49.1576 23.9137C49.4291 23.6422 49.5648 23.309 49.5648 22.9142C49.5648 22.5193 49.4414 22.2355 49.1946 22.0628ZM42.0132 11.6979C42.7289 10.4392 43.5186 9.80998 44.3823 9.80998C44.95 9.80998 45.209 10.1432 45.1597 10.8094C45.0857 11.7472 44.6291 12.7343 43.79 13.7709C42.9757 14.8074 41.9145 15.597 40.6065 16.14C40.8534 14.4372 41.3222 12.9565 42.0132 11.6979Z" fill="white"/>
<path d="M31.4693 22.1729C31.8641 21.9755 32.1725 21.9631 32.3947 22.1359C32.6414 22.3086 32.7649 22.5925 32.7649 22.9873C32.7649 23.3822 32.6291 23.7153 32.3577 23.9868C30.6055 25.8377 28.7546 26.7631 26.8051 26.7631C25.0776 26.7631 23.8436 26.1462 23.1033 24.9122C22.3876 23.6783 22.3383 21.7534 22.9552 19.1375C23.202 18.1257 23.5352 16.8547 23.9547 15.3247C24.4977 13.3998 24.7074 12.2645 24.584 11.9191C24.4606 11.6229 24.1892 11.4749 23.7696 11.4749C23.3254 11.4749 22.7702 11.7957 22.1038 12.4374C21.4622 13.0789 20.8453 14.1154 20.2529 15.5468L18.0689 25.6896C17.9949 26.1091 17.7605 26.2942 17.3656 26.2449C15.6874 26.0474 14.0094 26.0474 12.3312 26.2449C12.1338 26.2695 11.9734 26.2078 11.85 26.0597C11.7266 25.887 11.6896 25.7019 11.739 25.5045L15.2185 8.29137C15.2926 7.87187 15.5271 7.68674 15.9219 7.73614C17.6741 7.9335 19.4262 7.9335 21.1784 7.73614C21.3758 7.71144 21.5362 7.78546 21.6596 7.9582C21.783 8.10632 21.8201 8.27906 21.7707 8.47642L21.2895 10.7345C23.0663 8.41479 25.1639 7.25488 27.5824 7.25488C31.1114 7.25488 32.2837 9.27849 31.0991 13.3258L28.9891 20.6922C28.8903 21.2352 28.8163 21.667 28.767 21.9878C28.7423 22.284 28.8163 22.5061 28.9891 22.6541C29.1865 22.7775 29.3222 22.8515 29.3962 22.8762C29.495 22.9009 29.6307 22.9133 29.8034 22.9133C30.0996 22.9133 30.6549 22.6665 31.4693 22.1729Z" fill="white"/>
<path d="M4.40378 26.7638C2.72566 26.7638 1.4794 26.1345 0.665015 24.8759C-0.12469 23.6173 -0.211064 21.7047 0.405893 19.1383L2.62694 8.29209C2.72566 7.84789 2.98478 7.65045 3.40431 7.69978C5.03308 7.92191 6.73588 7.93423 8.51275 7.73686C8.75951 7.71216 8.94456 7.77387 9.06798 7.92191C9.21602 8.04533 9.26542 8.21807 9.21602 8.44014C8.7472 10.6365 7.88342 14.5234 6.62483 20.1007C6.22998 21.9762 6.60015 22.914 7.73538 22.914C8.15488 22.914 8.78421 22.6672 9.62321 22.1736C10.0181 21.9762 10.3266 21.9639 10.5487 22.1366C10.7955 22.3094 10.9189 22.5932 10.9189 22.988C10.9189 23.3829 10.7832 23.7161 10.5117 23.9875C9.74663 24.8019 8.80883 25.4682 7.69837 25.9865C6.61249 26.5047 5.51431 26.7638 4.40378 26.7638Z" fill="white"/>
<path d="M79.5989 25.3943C80.8575 26.3074 82.6346 26.764 84.9294 26.764C87.7182 26.764 89.8287 26.2211 91.2594 25.1352C92.6909 24.0247 93.4311 22.6304 93.4808 20.9522C93.5052 20.2366 93.3821 19.5826 93.1107 18.9903C92.8392 18.3981 92.3582 17.818 91.667 17.2505C91.0009 16.6582 90.3838 16.177 89.8157 15.8068C89.2483 15.4119 88.385 14.869 87.225 14.178C86.2378 13.5857 85.7438 12.7837 85.7438 11.7719C85.7438 11.2537 85.9541 10.7601 86.3731 10.2912C86.7929 9.7976 87.3358 9.55084 88.0019 9.55084C89.3347 9.55084 89.6803 10.3529 89.0388 11.957C88.7673 12.5986 88.804 13.2155 89.1497 13.8079C89.4953 14.3755 90.0137 14.6839 90.7042 14.7333C91.7167 14.8074 92.5058 14.5359 93.074 13.9189C93.6658 13.2773 93.974 12.4629 93.9992 11.4758C94.0237 10.1925 93.4311 9.16834 92.2221 8.40329C91.0376 7.61361 89.5572 7.21875 87.7801 7.21875C87.0644 7.21875 86.3364 7.29279 85.5962 7.44085C84.8805 7.58892 84.0906 7.84805 83.2272 8.21823C82.3632 8.58841 81.6597 9.19304 81.1167 10.032C80.5738 10.8711 80.2901 11.8953 80.2657 13.1045C80.2159 15.4243 81.6719 17.4973 84.6335 19.3235C86.3609 20.3846 87.225 21.3594 87.225 22.2478C87.225 22.8154 86.978 23.2966 86.4848 23.6915C85.9908 24.0617 85.4356 24.2468 84.8185 24.2468C84.128 24.2468 83.5721 24.0247 83.1531 23.5805C82.7333 23.1363 82.6346 22.5193 82.8571 21.7296C83.0789 20.9645 83.0047 20.3106 82.6346 19.7677C82.289 19.2 81.7713 18.8916 81.08 18.8423C80.1425 18.7682 79.3526 19.0273 78.7111 19.6196C78.094 20.2119 77.7728 21.0262 77.7483 22.0628C77.7239 23.3707 78.341 24.4812 79.5989 25.3943Z" fill="white"/>
<path d="M4.03396 5.18245C4.7743 5.75005 5.65038 6.03385 6.6622 6.03385C7.69866 6.03385 8.57475 5.75005 9.29041 5.18245C10.0307 4.61485 10.4009 3.89917 10.4009 3.03543C10.4009 2.17169 10.0307 1.45602 9.29041 0.888423C8.57475 0.29614 7.69866 0 6.6622 0C5.65038 0 4.7743 0.29614 4.03396 0.888423C3.31828 1.45602 2.96045 2.17169 2.96045 3.03543C2.96045 3.89917 3.31828 4.61485 4.03396 5.18245Z" fill="#008080"/>
<path d="M15.9394 5.26948C15.1843 5.26948 14.5305 5.05668 13.978 4.63107C13.4439 4.20547 13.1768 3.66884 13.1768 3.02118C13.1768 2.37351 13.4439 1.83689 13.978 1.41129C14.5305 0.967175 15.1843 0.745117 15.9394 0.745117C16.7128 0.745117 17.3666 0.967175 17.9008 1.41129C18.4532 1.83689 18.7295 2.37351 18.7295 3.02118C18.7295 3.66884 18.4532 4.20547 17.9008 4.63107C17.3666 5.05668 16.7128 5.26948 15.9394 5.26948Z" fill="#008080"/>
<path d="M22.1128 4.03929C22.4607 4.31013 22.8723 4.44555 23.3477 4.44555C23.8347 4.44555 24.2464 4.31013 24.5826 4.03929C24.9306 3.76845 25.1045 3.42696 25.1045 3.01482C25.1045 2.60266 24.9306 2.26118 24.5826 1.99034C24.2464 1.70772 23.8347 1.56641 23.3477 1.56641C22.8723 1.56641 22.4607 1.70772 22.1128 1.99034C21.7765 2.26118 21.6084 2.60266 21.6084 3.01482C21.6084 3.42696 21.7765 3.76845 22.1128 4.03929Z" fill="#008080"/>
<path d="M29.007 3.82881C28.7274 3.82881 28.4852 3.75143 28.2806 3.59667C28.0827 3.4419 27.9839 3.24677 27.9839 3.01125C27.9839 2.77574 28.0827 2.5806 28.2806 2.42583C28.4852 2.26434 28.7274 2.18359 29.007 2.18359C29.2935 2.18359 29.5356 2.26434 29.7334 2.42583C29.9381 2.5806 30.0404 2.77574 30.0404 3.01125C30.0404 3.24677 29.9381 3.4419 29.7334 3.59667C29.5356 3.75143 29.2935 3.82881 29.007 3.82881Z" fill="#008080"/>
<path d="M33.0677 3.30127C33.17 3.37866 33.2911 3.41735 33.4309 3.41735C33.5742 3.41735 33.6952 3.37866 33.7942 3.30127C33.8965 3.22389 33.9476 3.12632 33.9476 3.00857C33.9476 2.89081 33.8965 2.79324 33.7942 2.71586C33.6952 2.63511 33.5742 2.59473 33.4309 2.59473C33.2911 2.59473 33.17 2.63511 33.0677 2.71586C32.9689 2.79324 32.9194 2.89081 32.9194 3.00857C32.9194 3.12632 32.9689 3.22389 33.0677 3.30127Z" fill="#008080"/>
</g>
<defs>
<clipPath id="clip0_637_2">
<rect width="94" height="27" fill="white"/>
</clipPath>
</defs>
</svg>
