<svg width="102" height="29" viewBox="0 0 102 29" fill="none" xmlns="http://www.w3.org/2000/svg">
<path d="M81.075 7.71831C82.1094 7.71831 82.9313 8.04984 83.5419 8.71294C84.1517 9.34943 84.4303 10.1451 84.3769 11.0999C84.3243 12.1873 84.1114 13.2084 83.7408 14.1632C81.7779 19.3882 79.7091 23.1279 77.5343 25.3823C75.3859 27.6367 73.0254 28.7639 70.4527 28.7639C67.6679 28.7639 66.1295 27.3979 65.8379 24.6662C64.2465 27.3979 62.138 28.7639 59.5122 28.7639C55.5604 28.7639 54.0884 26.0851 55.0963 20.7276L57.3242 8.91181C57.4037 8.46097 57.6556 8.262 58.08 8.31509C59.9632 8.52721 61.833 8.52721 63.6896 8.31509C63.9017 8.28855 64.0741 8.3681 64.2067 8.55375C64.3394 8.71294 64.3791 8.89858 64.3261 9.11069C62.5491 17.5714 61.6605 22.0404 61.6605 22.5178C61.6341 23.4726 62.0319 23.9501 62.8541 23.9501C63.4641 23.9501 64.0741 23.6716 64.6841 23.1146C65.3207 22.531 65.8379 21.5232 66.2357 20.091L68.384 8.91181C68.4636 8.46097 68.7155 8.262 69.1399 8.31509C70.9434 8.55375 72.7469 8.55375 74.5506 8.31509C74.7627 8.28855 74.935 8.3681 75.0677 8.55375C75.2003 8.71294 75.2401 8.89858 75.187 9.11069C73.4101 17.5979 72.5083 22.1731 72.4817 22.8361C72.4817 23.5522 72.7867 23.9102 73.3967 23.9102C74.1129 23.9102 75.0146 23.1677 76.1021 21.6824C77.1894 20.1706 77.9189 18.6853 78.2902 17.2266C78.5024 16.4574 78.3963 15.4496 77.9718 14.2031C77.5741 12.9565 77.4281 11.8824 77.5343 10.9806C77.6669 9.99924 78.0515 9.21679 78.688 8.6333C79.351 8.02331 80.1468 7.71831 81.075 7.71831Z" fill="#18191B"/>
<path fill-rule="evenodd" clip-rule="evenodd" d="M52.8711 23.7115C52.6324 23.5258 52.3008 23.539 51.8765 23.7513C50.4442 24.4674 49.1712 24.8255 48.0573 24.8255C46.6515 24.8255 45.5641 24.4408 44.795 23.6717C44.0524 22.876 43.6147 21.8151 43.4821 20.4889C46.7445 20.3033 49.3304 19.3883 51.24 17.7439C52.8313 16.3117 53.627 14.6806 53.627 12.8505C53.627 11.3918 53.0567 10.185 51.9163 9.23021C50.8023 8.24887 49.3701 7.75819 47.6196 7.75819C45.71 7.75819 43.8402 8.30189 42.0101 9.38932C40.2596 10.4237 38.8673 11.9487 37.8328 13.9645C36.7984 15.9801 36.2812 18.0091 36.2812 20.0513C36.2812 21.5366 36.573 22.9158 37.1565 24.1889C37.7665 25.4619 38.655 26.4698 39.822 27.2124C41.3604 28.2203 43.323 28.7242 45.71 28.7242C48.5744 28.7242 50.9482 27.7164 52.8313 25.7007C53.1231 25.4089 53.2689 25.0508 53.2689 24.6265C53.2689 24.2021 53.1363 23.8971 52.8711 23.7115ZM45.153 12.5721C45.9222 11.2193 46.7709 10.5431 47.6992 10.5431C48.3093 10.5431 48.5876 10.9012 48.5346 11.6172C48.4551 12.625 47.9644 13.6859 47.0626 14.8C46.1874 15.9139 45.0469 16.7625 43.6412 17.3461C43.9065 15.5161 44.4104 13.9247 45.153 12.5721Z" fill="#18191B"/>
<path d="M33.8207 23.8304C34.245 23.6182 34.5765 23.6049 34.8153 23.7906C35.0804 23.9762 35.2131 24.2813 35.2131 24.7056C35.2131 25.13 35.0672 25.488 34.7755 25.7798C32.8924 27.769 30.9032 28.7636 28.808 28.7636C26.9514 28.7636 25.6252 28.1006 24.8296 26.7744C24.0604 25.4483 24.0074 23.3795 24.6704 20.5681C24.9356 19.4807 25.2937 18.1147 25.7446 16.4704C26.3281 14.4017 26.5535 13.1815 26.4209 12.8103C26.2883 12.492 25.9966 12.3329 25.5456 12.3329C25.0682 12.3329 24.4716 12.6777 23.7554 13.3674C23.0658 14.0568 22.4028 15.1707 21.7661 16.7091L19.4189 27.6099C19.3394 28.0607 19.0875 28.2596 18.6631 28.2066C16.8595 27.9944 15.0561 27.9944 13.2525 28.2066C13.0403 28.2331 12.8679 28.1668 12.7353 28.0076C12.6027 27.822 12.5629 27.6231 12.616 27.4109L16.3555 8.91149C16.4352 8.46064 16.6872 8.26168 17.1115 8.31477C18.9946 8.52688 20.8777 8.52688 22.7608 8.31477C22.973 8.28822 23.1453 8.36778 23.278 8.55342C23.4106 8.71261 23.4505 8.89826 23.3974 9.11037L22.8802 11.5372C24.7898 9.04413 27.0441 7.79755 29.6434 7.79755C33.4361 7.79755 34.696 9.97237 33.4229 14.3221L31.1552 22.239C31.049 22.8226 30.9695 23.2867 30.9165 23.6314C30.8899 23.9498 30.9695 24.1885 31.1552 24.3475C31.3673 24.4801 31.5132 24.5597 31.5927 24.5862C31.6989 24.6128 31.8447 24.6261 32.0303 24.6261C32.3487 24.6261 32.9455 24.3608 33.8207 23.8304Z" fill="#18191B"/>
<path d="M4.73286 28.7638C2.92934 28.7638 1.58995 28.0875 0.714709 26.7348C-0.134008 25.3822 -0.226836 23.3266 0.436224 20.5684L2.82324 8.91173C2.92934 8.43434 3.20782 8.22214 3.6587 8.27516C5.40919 8.51389 7.23923 8.52713 9.14888 8.31501C9.41408 8.28847 9.61296 8.35479 9.7456 8.51389C9.90471 8.64653 9.9578 8.83218 9.90471 9.07085C9.40085 11.4313 8.47252 15.6087 7.11988 21.6028C6.69553 23.6184 7.09336 24.6263 8.31342 24.6263C8.76427 24.6263 9.44063 24.3611 10.3423 23.8306C10.7667 23.6184 11.0983 23.6052 11.337 23.7908C11.6022 23.9765 11.7348 24.2815 11.7348 24.7058C11.7348 25.1302 11.589 25.4883 11.2972 25.78C10.475 26.6553 9.46709 27.3714 8.27365 27.9284C7.10662 28.4853 5.92638 28.7638 4.73286 28.7638Z" fill="#18191B"/>
<path d="M85.5473 27.292C86.8999 28.2733 88.8098 28.764 91.2761 28.764C94.2733 28.764 96.5415 28.1805 98.0791 27.0135C99.6176 25.82 100.413 24.3215 100.467 22.5179C100.493 21.7488 100.36 21.046 100.069 20.4094C99.777 19.7729 99.26 19.1495 98.5172 18.5396C97.8013 17.903 97.1381 17.3859 96.5275 16.988C95.9177 16.5636 94.9899 15.9801 93.7432 15.2375C92.6823 14.6009 92.1513 13.739 92.1513 12.6516C92.1513 12.0947 92.3774 11.5642 92.8277 11.0602C93.2788 10.5298 93.8623 10.2646 94.5782 10.2646C96.0106 10.2646 96.382 11.1265 95.6926 12.8505C95.4008 13.5401 95.4402 14.2031 95.8118 14.8397C96.1832 15.4497 96.7403 15.7812 97.4824 15.8343C98.5706 15.9139 99.4187 15.6221 100.029 14.959C100.665 14.2695 100.997 13.3942 101.024 12.3334C101.05 10.9542 100.413 9.85347 99.1138 9.03125C97.8407 8.18256 96.2497 7.75819 94.3398 7.75819C93.5706 7.75819 92.7882 7.83777 91.9927 7.99689C91.2235 8.15603 90.3746 8.43452 89.4467 8.83236C88.5181 9.23021 87.7621 9.88002 87.1785 10.7817C86.595 11.6835 86.2901 12.7842 86.2639 14.0838C86.2104 16.5769 87.7752 18.8048 90.9581 20.7675C92.8146 21.9079 93.7432 22.9555 93.7432 23.9103C93.7432 24.5203 93.4778 25.0375 92.9477 25.4619C92.4168 25.8598 91.8201 26.0587 91.1569 26.0587C90.4148 26.0587 89.8174 25.82 89.3671 25.3426C88.9159 24.8652 88.8098 24.2021 89.0489 23.3534C89.2873 22.5311 89.2076 21.8284 88.8098 21.2449C88.4384 20.6348 87.882 20.3033 87.139 20.2503C86.1315 20.1707 85.2825 20.4492 84.5931 21.0857C83.9299 21.7223 83.5847 22.5974 83.5584 23.7115C83.5321 25.1171 84.1954 26.3106 85.5473 27.292Z" fill="#18191B"/>
<path d="M4.33537 5.56972C5.13103 6.17973 6.07258 6.48474 7.16001 6.48474C8.27392 6.48474 9.21548 6.17973 9.98462 5.56972C10.7803 4.9597 11.1781 4.19054 11.1781 3.26226C11.1781 2.33397 10.7803 1.56482 9.98462 0.954812C9.21548 0.31827 8.27392 0 7.16001 0C6.07258 0 5.13103 0.31827 4.33537 0.954812C3.56621 1.56482 3.18164 2.33397 3.18164 3.26226C3.18164 4.19054 3.56621 4.9597 4.33537 5.56972Z" fill="#008080"/>
<path d="M17.1307 5.66273C16.3191 5.66273 15.6165 5.43403 15.0227 4.97662C14.4487 4.51921 14.1616 3.94248 14.1616 3.24642C14.1616 2.55035 14.4487 1.97363 15.0227 1.51623C15.6165 1.03893 16.3191 0.800278 17.1307 0.800278C17.9619 0.800278 18.6645 1.03893 19.2386 1.51623C19.8323 1.97363 20.1293 2.55035 20.1293 3.24642C20.1293 3.94248 19.8323 4.51921 19.2386 4.97662C18.6645 5.43403 17.9619 5.66273 17.1307 5.66273Z" fill="#008080"/>
<path d="M23.7652 4.34166C24.1391 4.63274 24.5815 4.77828 25.0924 4.77828C25.6158 4.77828 26.0583 4.63274 26.4196 4.34166C26.7936 4.05058 26.9805 3.68357 26.9805 3.24064C26.9805 2.79768 26.7936 2.43068 26.4196 2.1396C26.0583 1.83586 25.6158 1.68399 25.0924 1.68399C24.5815 1.68399 24.1391 1.83586 23.7652 2.1396C23.4038 2.43068 23.2231 2.79768 23.2231 3.24064C23.2231 3.68357 23.4038 4.05058 23.7652 4.34166Z" fill="#008080"/>
<path d="M31.1743 4.11545C30.8738 4.11545 30.6135 4.03229 30.3936 3.86597C30.1809 3.69963 30.0747 3.48992 30.0747 3.2368C30.0747 2.98369 30.1809 2.77397 30.3936 2.60763C30.6135 2.43407 30.8738 2.34729 31.1743 2.34729C31.4822 2.34729 31.7424 2.43407 31.9549 2.60763C32.1749 2.77397 32.2849 2.98369 32.2849 3.2368C32.2849 3.48992 32.1749 3.69963 31.9549 3.86597C31.7424 4.03229 31.4822 4.11545 31.1743 4.11545Z" fill="#008080"/>
<path d="M35.5388 3.54849C35.6487 3.63166 35.7789 3.67325 35.9291 3.67325C36.0831 3.67325 36.2132 3.63166 36.3196 3.54849C36.4295 3.46533 36.4844 3.36047 36.4844 3.23392C36.4844 3.10736 36.4295 3.0025 36.3196 2.91934C36.2132 2.83255 36.0831 2.78915 35.9291 2.78915C35.7789 2.78915 35.6487 2.83255 35.5388 2.91934C35.4326 3.0025 35.3794 3.10736 35.3794 3.23392C35.3794 3.36047 35.4326 3.46533 35.5388 3.54849Z" fill="#008080"/>
</svg>
