<svg width="94" height="27" viewBox="0 0 94 27" fill="none" xmlns="http://www.w3.org/2000/svg">
<path d="M75.4376 7.18164C76.4001 7.18164 77.1648 7.49012 77.733 8.10711C78.3004 8.69935 78.5596 9.43971 78.5099 10.3281C78.461 11.3399 78.2629 12.29 77.918 13.1784C76.0916 18.0401 74.1667 21.5198 72.1431 23.6174C70.1441 25.7151 67.9477 26.7639 65.5539 26.7639C62.9627 26.7639 61.5313 25.4929 61.2599 22.9511C59.7792 25.4929 57.8173 26.7639 55.3741 26.7639C51.6971 26.7639 50.3274 24.2714 51.2652 19.2864L53.3382 8.29216C53.4122 7.87266 53.6466 7.68753 54.0415 7.73693C55.7937 7.9343 57.5335 7.9343 59.261 7.73693C59.4584 7.71223 59.6188 7.78625 59.7422 7.95899C59.8656 8.10711 59.9026 8.27985 59.8533 8.47721C58.1998 16.3496 57.373 20.5079 57.373 20.9521C57.3484 21.8405 57.7186 22.2848 58.4836 22.2848C59.0512 22.2848 59.6188 22.0257 60.1864 21.5074C60.7787 20.9644 61.2599 20.0267 61.6301 18.694L63.629 8.29216C63.7031 7.87266 63.9375 7.68753 64.3324 7.73693C66.0105 7.95899 67.6886 7.95899 69.3668 7.73693C69.5642 7.71223 69.7245 7.78625 69.848 7.95899C69.9714 8.10711 70.0084 8.27985 69.959 8.47721C68.3056 16.3743 67.4665 20.6314 67.4418 21.2483C67.4418 21.9146 67.7256 22.2477 68.2932 22.2477C68.9596 22.2477 69.7986 21.5568 70.8105 20.1748C71.8222 18.7681 72.5009 17.3861 72.8464 16.0288C73.0439 15.3131 72.9451 14.3754 72.5502 13.2155C72.1801 12.0556 72.0443 11.0562 72.1431 10.2171C72.2665 9.30398 72.6243 8.57593 73.2166 8.03301C73.8335 7.46544 74.5739 7.18164 75.4376 7.18164Z" fill="#18191B"/>
<path fill-rule="evenodd" clip-rule="evenodd" d="M49.1948 22.0628C48.9727 21.89 48.6642 21.9023 48.2694 22.0998C46.9367 22.7661 45.7522 23.0993 44.7157 23.0993C43.4077 23.0993 42.3959 22.7414 41.6803 22.0258C40.9893 21.2854 40.582 20.2983 40.4587 19.0643C43.4942 18.8916 45.9003 18.0402 47.6771 16.5101C49.1578 15.1775 49.8982 13.6598 49.8982 11.957C49.8982 10.5997 49.3675 9.47681 48.3064 8.58841C47.2699 7.67531 45.9373 7.21875 44.3085 7.21875C42.5317 7.21875 40.7919 7.72464 39.089 8.73646C37.4602 9.69895 36.1647 11.1179 35.2022 12.9935C34.2397 14.869 33.7585 16.7569 33.7585 18.6571C33.7585 20.0391 34.03 21.3224 34.5729 22.507C35.1405 23.6915 35.9672 24.6293 37.0531 25.3203C38.4845 26.2581 40.3106 26.727 42.5317 26.727C45.1969 26.727 47.4056 25.7892 49.1578 23.9137C49.4293 23.6422 49.565 23.309 49.565 22.9142C49.565 22.5193 49.4416 22.2355 49.1948 22.0628ZM42.0134 11.6979C42.7291 10.4392 43.5188 9.80998 44.3825 9.80998C44.9502 9.80998 45.2092 10.1432 45.1599 10.8094C45.0859 11.7472 44.6293 12.7343 43.7902 13.7709C42.9759 14.8074 41.9147 15.597 40.6067 16.14C40.8536 14.4372 41.3224 12.9565 42.0134 11.6979Z" fill="#18191B"/>
<path d="M31.4692 22.1734C31.864 21.976 32.1724 21.9636 32.3946 22.1364C32.6413 22.3091 32.7648 22.593 32.7648 22.9878C32.7648 23.3827 32.629 23.7158 32.3576 23.9873C30.6054 25.8382 28.7545 26.7636 26.805 26.7636C25.0775 26.7636 23.8435 26.1467 23.1032 24.9127C22.3875 23.6788 22.3382 21.7539 22.9551 19.138C23.2019 18.1262 23.5351 16.8552 23.9546 15.3252C24.4976 13.4003 24.7073 12.265 24.5839 11.9196C24.4605 11.6234 24.1891 11.4754 23.7695 11.4754C23.3253 11.4754 22.7701 11.7962 22.1037 12.4379C21.4621 13.0794 20.8452 14.1159 20.2528 15.5473L18.0688 25.6901C17.9948 26.1096 17.7604 26.2947 17.3655 26.2454C15.6873 26.0479 14.0093 26.0479 12.3311 26.2454C12.1337 26.27 11.9733 26.2083 11.8499 26.0602C11.7265 25.8875 11.6895 25.7024 11.7389 25.505L15.2184 8.29186C15.2925 7.87236 15.527 7.68723 15.9218 7.73663C17.674 7.93399 19.4261 7.93399 21.1783 7.73663C21.3757 7.71193 21.5361 7.78595 21.6595 7.95869C21.7829 8.10681 21.82 8.27955 21.7706 8.47691L21.2894 10.735C23.0662 8.41528 25.1638 7.25537 27.5823 7.25537C31.1113 7.25537 32.2836 9.27898 31.099 13.3263L28.989 20.6927C28.8902 21.2357 28.8162 21.6675 28.7669 21.9883C28.7422 22.2845 28.8162 22.5066 28.989 22.6546C29.1864 22.778 29.3221 22.852 29.3961 22.8767C29.4949 22.9014 29.6306 22.9138 29.8033 22.9138C30.0995 22.9138 30.6548 22.667 31.4692 22.1734Z" fill="#18191B"/>
<path d="M4.40378 26.7638C2.72566 26.7638 1.4794 26.1345 0.665015 24.8759C-0.12469 23.6173 -0.211064 21.7047 0.405893 19.1383L2.62694 8.29209C2.72566 7.84789 2.98478 7.65045 3.40431 7.69978C5.03308 7.92191 6.73588 7.93423 8.51275 7.73686C8.75951 7.71216 8.94456 7.77387 9.06798 7.92191C9.21602 8.04533 9.26542 8.21807 9.21602 8.44014C8.7472 10.6365 7.88342 14.5234 6.62483 20.1007C6.22998 21.9762 6.60015 22.914 7.73538 22.914C8.15488 22.914 8.78421 22.6672 9.62321 22.1736C10.0181 21.9762 10.3266 21.9639 10.5487 22.1366C10.7955 22.3094 10.9189 22.5932 10.9189 22.988C10.9189 23.3829 10.7832 23.7161 10.5117 23.9875C9.74663 24.8019 8.80883 25.4682 7.69837 25.9865C6.61249 26.5047 5.51431 26.7638 4.40378 26.7638Z" fill="#18191B"/>
<path d="M79.599 25.3943C80.8576 26.3074 82.6347 26.764 84.9295 26.764C87.7183 26.764 89.8288 26.2211 91.2595 25.1352C92.691 24.0247 93.4312 22.6304 93.4809 20.9522C93.5053 20.2366 93.3822 19.5826 93.1108 18.9903C92.8393 18.3981 92.3583 17.818 91.6671 17.2505C91.001 16.6582 90.3839 16.177 89.8158 15.8068C89.2484 15.4119 88.3851 14.869 87.2251 14.178C86.2379 13.5857 85.7439 12.7837 85.7439 11.7719C85.7439 11.2537 85.9542 10.7601 86.3732 10.2912C86.793 9.7976 87.3359 9.55084 88.002 9.55084C89.3348 9.55084 89.6804 10.3529 89.0389 11.957C88.7674 12.5986 88.8041 13.2155 89.1498 13.8079C89.4954 14.3755 90.0138 14.6839 90.7043 14.7333C91.7168 14.8074 92.5059 14.5359 93.0741 13.9189C93.6659 13.2773 93.9741 12.4629 93.9993 11.4758C94.0238 10.1925 93.4312 9.16834 92.2222 8.40329C91.0377 7.61361 89.5573 7.21875 87.7802 7.21875C87.0645 7.21875 86.3365 7.29279 85.5963 7.44085C84.8806 7.58892 84.0907 7.84805 83.2273 8.21823C82.3633 8.58841 81.6598 9.19304 81.1168 10.032C80.5739 10.8711 80.2902 11.8953 80.2658 13.1045C80.216 15.4243 81.672 17.4973 84.6336 19.3235C86.361 20.3846 87.2251 21.3594 87.2251 22.2478C87.2251 22.8154 86.9781 23.2966 86.4849 23.6915C85.9909 24.0617 85.4357 24.2468 84.8186 24.2468C84.1281 24.2468 83.5722 24.0247 83.1532 23.5805C82.7334 23.1363 82.6347 22.5193 82.8572 21.7296C83.079 20.9645 83.0048 20.3106 82.6347 19.7677C82.2891 19.2 81.7714 18.8916 81.0801 18.8423C80.1426 18.7682 79.3527 19.0273 78.7112 19.6196C78.0941 20.2119 77.7729 21.0262 77.7484 22.0628C77.724 23.3707 78.3411 24.4812 79.599 25.3943Z" fill="#18191B"/>
<path d="M4.03373 5.18245C4.77407 5.75005 5.65015 6.03385 6.66197 6.03385C7.69843 6.03385 8.57452 5.75005 9.29018 5.18245C10.0305 4.61485 10.4007 3.89917 10.4007 3.03543C10.4007 2.17169 10.0305 1.45602 9.29018 0.888423C8.57452 0.29614 7.69843 0 6.66197 0C5.65015 0 4.77407 0.29614 4.03373 0.888423C3.31805 1.45602 2.96022 2.17169 2.96022 3.03543C2.96022 3.89917 3.31805 4.61485 4.03373 5.18245Z" fill="#008080"/>
<path d="M15.9394 5.26899C15.1843 5.26899 14.5305 5.05619 13.978 4.63058C13.4439 4.20498 13.1768 3.66835 13.1768 3.02069C13.1768 2.37302 13.4439 1.8364 13.978 1.4108C14.5305 0.966687 15.1843 0.744629 15.9394 0.744629C16.7128 0.744629 17.3666 0.966687 17.9008 1.4108C18.4532 1.8364 18.7295 2.37302 18.7295 3.02069C18.7295 3.66835 18.4532 4.20498 17.9008 4.63058C17.3666 5.05619 16.7128 5.26899 15.9394 5.26899Z" fill="#008080"/>
<path d="M22.113 4.03977C22.4609 4.31061 22.8725 4.44603 23.3479 4.44603C23.8349 4.44603 24.2466 4.31061 24.5828 4.03977C24.9308 3.76893 25.1047 3.42744 25.1047 3.0153C25.1047 2.60314 24.9308 2.26166 24.5828 1.99082C24.2466 1.7082 23.8349 1.56689 23.3479 1.56689C22.8725 1.56689 22.4609 1.7082 22.113 1.99082C21.7767 2.26166 21.6086 2.60314 21.6086 3.0153C21.6086 3.42744 21.7767 3.76893 22.113 4.03977Z" fill="#008080"/>
<path d="M29.0069 3.8293C28.7273 3.8293 28.4851 3.75192 28.2805 3.59716C28.0826 3.44239 27.9838 3.24726 27.9838 3.01174C27.9838 2.77623 28.0826 2.58109 28.2805 2.42632C28.4851 2.26483 28.7273 2.18408 29.0069 2.18408C29.2934 2.18408 29.5355 2.26483 29.7333 2.42632C29.938 2.58109 30.0403 2.77623 30.0403 3.01174C30.0403 3.24726 29.938 3.44239 29.7333 3.59716C29.5355 3.75192 29.2934 3.8293 29.0069 3.8293Z" fill="#008080"/>
<path d="M33.0678 3.30175C33.1701 3.37914 33.2912 3.41783 33.431 3.41783C33.5743 3.41783 33.6953 3.37914 33.7943 3.30175C33.8966 3.22437 33.9477 3.1268 33.9477 3.00905C33.9477 2.89129 33.8966 2.79372 33.7943 2.71634C33.6953 2.63559 33.5743 2.59521 33.431 2.59521C33.2912 2.59521 33.1701 2.63559 33.0678 2.71634C32.969 2.79372 32.9195 2.89129 32.9195 3.00905C32.9195 3.1268 32.969 3.22437 33.0678 3.30175Z" fill="#008080"/>
</svg>
