<svg width="109" height="27" viewBox="0 0 109 27" fill="none" xmlns="http://www.w3.org/2000/svg">
<g clip-path="url(#clip0_637_13)">
<path d="M30.6469 5.26074L28.968 9.43816L15.9565 9.45801C15.7391 9.45801 15.5406 9.53836 15.3609 9.69907C15.1719 9.85032 15.0537 10.0489 15.0064 10.2947C14.9592 10.5026 14.9828 10.6728 15.0773 10.8051C15.2191 10.9753 15.4318 11.0793 15.7154 11.1171H25.6131C26.9838 11.1171 28.0473 11.6087 28.8036 12.5918C29.5882 13.5655 29.8387 14.7141 29.5551 16.0375C29.262 17.4083 28.52 18.5805 27.3288 19.5542C26.1472 20.5373 24.871 21.0289 23.5002 21.0289H8.63965L9.53298 16.8174H24.3936C24.6016 16.8174 24.8048 16.7418 25.0033 16.5906C25.1829 16.4299 25.2964 16.2313 25.3436 15.995C25.4004 15.7492 25.372 15.546 25.2586 15.3853C25.1262 15.234 24.9561 15.1584 24.7481 15.1584H14.7512C13.3521 15.0922 12.2744 14.5723 11.5182 13.5986C10.7714 12.6533 10.535 11.5378 10.8092 10.2521C11.1022 8.8719 11.8349 7.69497 13.0071 6.72128C14.1982 5.74758 15.4791 5.26074 16.8498 5.26074H30.6469Z" fill="white"/>
<path d="M48.3442 5.26074C50.0836 5.26074 51.4402 5.8752 52.4139 7.10414C53.3876 8.34252 53.6901 9.82669 53.3214 11.5567L52.6549 14.7188C52.2768 16.4582 51.3409 17.9424 49.8473 19.1713C48.3537 20.4097 46.7372 21.0289 44.9977 21.0289H35.5397L34.4195 26.2755H30.208L32.6754 14.7188C33.2236 12.1097 34.6227 9.88341 36.8726 8.04001C39.1131 6.18716 41.5331 5.26074 44.1328 5.26074H48.3442ZM43.2394 9.45801C41.8025 9.45801 40.4602 9.97322 39.2123 11.0037C37.9645 12.0341 37.1893 13.2725 36.8868 14.7188L36.433 16.8174H45.8911C46.4677 16.8174 47.0018 16.6095 47.4934 16.1935C48.0039 15.787 48.3206 15.2955 48.4435 14.7188L49.1099 11.5567C49.2328 10.9895 49.1288 10.4979 48.798 10.082C48.4766 9.66598 48.0275 9.45801 47.4509 9.45801H43.2394Z" fill="white"/>
<path d="M62.9076 9.45801C62.331 9.45801 61.7921 9.66598 61.2911 10.082C60.7995 10.4979 60.4923 10.9895 60.3694 11.5567L59.7029 14.7188C59.58 15.2955 59.6746 15.787 59.9865 16.1935C60.3174 16.6095 60.7712 16.8174 61.3478 16.8174H68.7072C69.2839 16.8174 69.818 16.6095 70.3096 16.1935C70.82 15.787 71.1367 15.2955 71.2596 14.7188L71.9261 11.5567C72.049 10.9895 71.945 10.4979 71.6141 10.082C71.2927 9.66598 70.8437 9.45801 70.267 9.45801H62.9076ZM71.1604 5.26074C72.8998 5.26074 74.2563 5.8752 75.23 7.10414C76.2037 8.34252 76.5062 9.82669 76.1375 11.5567L75.4711 14.7188C75.0929 16.4582 74.1571 17.9424 72.6634 19.1713C71.1698 20.4097 69.5533 21.0289 67.8139 21.0289H60.4545C58.7151 21.0289 57.3632 20.4097 56.399 19.1713C55.4159 17.9424 55.1134 16.4582 55.4915 14.7188L56.158 11.5567C56.5266 9.82669 57.4625 8.34252 58.9656 7.10414C60.4498 5.8752 62.0615 5.26074 63.801 5.26074H71.1604Z" fill="white"/>
<path d="M81.1719 21.0289H76.9604L78.3075 14.7188C78.8558 12.1097 80.2549 9.88341 82.5048 8.04001C84.7452 6.18716 87.1653 5.26074 89.7649 5.26074H94.6712L93.7779 9.45801H88.8716C87.4347 9.45801 86.0923 9.97322 84.8445 11.0037C83.5967 12.0341 82.8215 13.2725 82.519 14.7188L81.1719 21.0289Z" fill="white"/>
<path d="M100.67 5.26077H107.378L105.926 9.47222H99.7768L98.6707 14.7188C98.5478 15.2955 98.6424 15.787 98.9543 16.1935C99.2852 16.6095 99.739 16.8174 100.316 16.8174H108.724L107.378 21.0289H99.4223C97.6829 21.0289 96.331 20.4097 95.3668 19.1713C94.3837 17.9424 94.0812 16.4582 94.4593 14.7188L97.5789 0H101.79L100.67 5.26077Z" fill="white"/>
<path fill-rule="evenodd" clip-rule="evenodd" d="M8.68096 3.57646L9.2985 0L7.82309 1.54205e-08C5.72581 3.73404e-08 3.93302 1.50976 3.57617 3.57646H8.68096Z" fill="white"/>
<path fill-rule="evenodd" clip-rule="evenodd" d="M8.28373 5.44434C5.23514 5.44434 2.61417 7.60491 2.03248 10.5975L0 21.0536H5.24958L8.28373 5.44434Z" fill="white"/>
</g>
<defs>
<clipPath id="clip0_637_13">
<rect width="109" height="27" fill="white"/>
</clipPath>
</defs>
</svg>
