<svg width="101" height="25" viewBox="0 0 101 25" fill="none" xmlns="http://www.w3.org/2000/svg">
<path d="M28.3979 4.87109L26.8422 8.73908L14.7857 8.75746C14.5843 8.75746 14.4003 8.83185 14.2338 8.98066C14.0587 9.1207 13.9492 9.30455 13.9053 9.53214C13.8616 9.72464 13.8835 9.88223 13.971 10.0047C14.1024 10.1623 14.2995 10.2586 14.5623 10.2936H23.7336C25.0037 10.2936 25.9891 10.7488 26.6899 11.6591C27.4169 12.5607 27.649 13.6242 27.3862 14.8495C27.1147 16.1188 26.4271 17.2042 25.3233 18.1058C24.2285 19.016 23.0459 19.4712 21.7757 19.4712H8.00586L8.83362 15.5717H22.6036C22.7963 15.5717 22.9846 15.5017 23.1685 15.3617C23.3349 15.2129 23.4401 15.029 23.4838 14.8102C23.5365 14.5826 23.5102 14.3945 23.4051 14.2457C23.2824 14.1056 23.1248 14.0356 22.932 14.0356H13.6689C12.3725 13.9743 11.3738 13.4929 10.6731 12.5913C9.98116 11.716 9.76211 10.6832 10.0162 9.4927C10.2877 8.21476 10.9666 7.12501 12.0528 6.22345C13.1565 5.32187 14.3433 4.87109 15.6134 4.87109H28.3979Z" fill="#0B0F16"/>
<path d="M44.7958 4.87109C46.4076 4.87109 47.6646 5.44004 48.5668 6.57795C49.4691 7.72459 49.7494 9.09882 49.4077 10.7007L48.7901 13.6285C48.4398 15.2391 47.5726 16.6133 46.1886 17.7512C44.8046 18.8979 43.3068 19.4712 41.6949 19.4712H32.9311L31.8931 24.3292H27.9907L30.277 13.6285C30.785 11.2127 32.0814 9.15134 34.1662 7.44449C36.2422 5.72889 38.4846 4.87109 40.8935 4.87109H44.7958ZM40.0657 8.75746C38.7342 8.75746 37.4905 9.2345 36.3342 10.1886C35.1779 11.1427 34.4596 12.2894 34.1793 13.6285L33.7588 15.5717H42.5228C43.0571 15.5717 43.552 15.3792 44.0075 14.994C44.4805 14.6176 44.774 14.1625 44.8878 13.6285L45.5053 10.7007C45.6192 10.1755 45.5228 9.72029 45.2163 9.3352C44.9185 8.95002 44.5024 8.75746 43.9681 8.75746H40.0657Z" fill="#0B0F16"/>
<path d="M58.2907 8.75746C57.7564 8.75746 57.2571 8.95002 56.7929 9.3352C56.3373 9.72029 56.0527 10.1755 55.9388 10.7007L55.3212 13.6285C55.2074 14.1625 55.295 14.6176 55.584 14.994C55.8906 15.3792 56.3111 15.5717 56.8454 15.5717H63.6647C64.199 15.5717 64.6939 15.3792 65.1495 14.994C65.6224 14.6176 65.9159 14.1625 66.0297 13.6285L66.6473 10.7007C66.7612 10.1755 66.6648 9.72029 66.3582 9.3352C66.0604 8.95002 65.6444 8.75746 65.11 8.75746H58.2907ZM65.9378 4.87109C67.5496 4.87109 68.8065 5.44004 69.7087 6.57795C70.611 7.72459 70.8913 9.09882 70.5496 10.7007L69.9321 13.6285C69.5817 15.2391 68.7146 16.6133 67.3305 17.7512C65.9465 18.8979 64.4487 19.4712 62.8369 19.4712H56.0177C54.4059 19.4712 53.1532 18.8979 52.2598 17.7512C51.3489 16.6133 51.0686 15.2391 51.4189 13.6285L52.0365 10.7007C52.3781 9.09882 53.2453 7.72459 54.638 6.57795C56.0133 5.44004 57.5067 4.87109 59.1186 4.87109H65.9378Z" fill="#0B0F16"/>
<path d="M75.2144 19.4712H71.312L72.5602 13.6285C73.0683 11.2127 74.3647 9.15134 76.4495 7.44449C78.5254 5.72889 80.7679 4.87109 83.1767 4.87109H87.7229L86.8952 8.75746H82.349C81.0176 8.75746 79.7737 9.2345 78.6175 10.1886C77.4612 11.1427 76.7429 12.2894 76.4626 13.6285L75.2144 19.4712Z" fill="#0B0F16"/>
<path d="M93.2813 4.87108H99.497L98.1515 8.77057H92.4536L91.4287 13.6285C91.3148 14.1625 91.4024 14.6176 91.6914 14.994C91.9981 15.3792 92.4185 15.5717 92.9533 15.5717H100.744L99.497 19.4712H92.1251C90.5134 19.4712 89.2607 18.8979 88.3672 17.7512C87.4563 16.6133 87.176 15.2391 87.5263 13.6285L90.417 0H94.3191L93.2813 4.87108Z" fill="#0B0F16"/>
<path fill-rule="evenodd" clip-rule="evenodd" d="M8.04409 3.31154L8.61631 0L7.24918 1.42782e-08C5.30583 3.45744e-08 3.64462 1.39793 3.31396 3.31154H8.04409Z" fill="#0B0F16"/>
<path fill-rule="evenodd" clip-rule="evenodd" d="M7.67575 5.0415C4.85091 5.0415 2.4223 7.04203 1.88331 9.81297L0 19.4945H4.86429L7.67575 5.0415Z" fill="#0B0F16"/>
</svg>
