<svg width="110" height="24" viewBox="0 0 110 24" fill="none" xmlns="http://www.w3.org/2000/svg">
<path d="M90.3245 13.6476C90.5008 14.4631 90.8053 15.2226 91.238 15.9262C91.6708 16.6138 92.1997 17.2134 92.8248 17.7251C93.4499 18.2368 94.1471 18.6365 94.9164 18.9244C95.7018 19.2122 96.5272 19.3561 97.3927 19.3561C98.2261 19.3561 98.9153 19.2841 99.4603 19.1402C100.005 18.9803 100.55 18.7405 101.095 18.4207C101.544 18.1648 101.969 18.0369 102.369 18.0369C102.658 18.0369 102.922 18.1009 103.163 18.2288C103.419 18.3407 103.644 18.5006 103.836 18.7085C104.028 18.9004 104.18 19.1322 104.293 19.4041C104.405 19.6759 104.461 19.9557 104.461 20.2436C104.461 20.7552 104.269 21.211 103.884 21.6107C103.499 21.9945 102.978 22.3223 102.321 22.5941C101.68 22.8659 100.927 23.0738 100.061 23.2177C99.2118 23.3616 98.3223 23.4336 97.3927 23.4336C95.7739 23.4336 94.2432 23.1298 92.8007 22.5222C91.3743 21.8985 90.1241 21.0591 89.0503 20.0037C87.9924 18.9484 87.151 17.7091 86.5259 16.286C85.9168 14.8629 85.6123 13.3438 85.6123 11.7288C85.6123 10.0978 85.9168 8.57073 86.5259 7.14761C87.151 5.72448 87.9924 4.48524 89.0503 3.42989C90.1241 2.37454 91.3743 1.54305 92.8007 0.935425C94.2432 0.311808 95.7739 0 97.3927 0C98.9955 0 100.51 0.303813 101.937 0.91144C103.363 1.51907 104.605 2.35055 105.663 3.40591C106.737 4.46126 107.586 5.7005 108.211 7.12362C108.837 8.53075 109.157 10.0338 109.173 11.6328C109.173 12.2085 108.981 12.6882 108.596 13.072C108.211 13.4557 107.715 13.6476 107.106 13.6476H90.3245ZM104.822 10.0978C104.677 9.23432 104.381 8.43481 103.932 7.69927C103.499 6.96372 102.954 6.32411 102.297 5.78045C101.656 5.23678 100.919 4.81304 100.085 4.50923C99.2679 4.20541 98.3944 4.05351 97.4648 4.05351C96.5192 4.05351 95.6377 4.21341 94.8202 4.53321C94.0028 4.83703 93.2736 5.26876 92.6325 5.82842C91.9913 6.37208 91.4624 7.01169 91.0457 7.74724C90.629 8.48278 90.3485 9.2663 90.2043 10.0978H104.822Z" fill="url(#paint0_radial_667_95)"/>
<path d="M70.5862 12.2565C70.5862 10.5775 70.9067 8.99447 71.5478 7.50738C72.189 6.0203 73.0625 4.7251 74.1684 3.62177C75.2743 2.50246 76.5645 1.623 78.0391 0.983395C79.5297 0.327798 81.1164 0 82.7993 0H82.9195C83.6408 0 84.1857 0.199877 84.5544 0.599631C84.939 0.999386 85.1314 1.50308 85.1314 2.1107C85.1314 2.71833 84.915 3.22202 84.4822 3.62177C84.0495 4.02153 83.5286 4.2214 82.9195 4.2214H82.7993C81.7094 4.2214 80.6837 4.43727 79.722 4.86901C78.7603 5.28475 77.9109 5.8604 77.1736 6.59595C76.4523 7.3155 75.8753 8.16298 75.4426 9.13838C75.0259 10.1138 74.8175 11.1531 74.8175 12.2565V21.0351C74.8175 21.6427 74.6172 22.1464 74.2165 22.5461C73.8318 22.9459 73.351 23.1458 72.774 23.1458C72.4855 23.1458 72.205 23.0978 71.9325 23.0019C71.6761 22.8899 71.4437 22.738 71.2353 22.5461C71.043 22.3543 70.8827 22.1304 70.7545 21.8746C70.6423 21.6187 70.5862 21.3389 70.5862 21.0351V12.2565Z" fill="url(#paint1_radial_667_95)"/>
<path fillRule="evenodd" clipRule="evenodd" d="M62.3728 21.3348C65.3835 19.2143 67.3503 15.7113 67.3503 11.7489C67.3503 5.27791 62.1046 0.0321181 55.6335 0.0321179C53.1409 0.0321178 50.83 0.810519 48.9307 2.13751L51.4346 5.71349C52.625 4.88376 54.0725 4.3972 55.6335 4.3972C59.6938 4.3972 62.9853 7.68867 62.9853 11.7489C62.9853 14.2321 61.7541 16.4278 59.8689 17.7588L61.1199 19.5455L62.3709 21.3322L62.3728 21.3348Z" fill="url(#paint2_linear_667_95)"/>
<path d="M59.3106 20.8107C58.6363 19.8512 58.844 18.5378 59.7652 17.8307C59.7907 17.8111 59.8169 17.7919 59.8436 17.7732C60.831 17.0818 62.1933 17.3208 62.8863 18.307C63.5752 19.2874 63.3436 20.637 62.3709 21.3322C62.3651 21.3363 62.3593 21.3405 62.3534 21.3446C61.366 22.036 60.0037 21.797 59.3106 20.8107Z" fill="url(#paint3_linear_667_95)"/>
<path fillRule="evenodd" clipRule="evenodd" d="M51.4346 5.71349C52.625 4.88376 54.0725 4.3972 55.6335 4.3972C59.6938 4.3972 62.9853 7.68867 62.9853 11.7489C62.9853 14.2321 61.7541 16.4278 59.8689 17.7588C59.8345 17.7831 59.7999 17.807 59.7652 17.8307C58.844 18.5378 58.6363 19.8512 59.3106 20.8107C60.0037 21.797 61.366 22.036 62.3534 21.3446C62.3593 21.3405 62.3651 21.3363 62.3709 21.3322L62.3728 21.3348C65.3835 19.2143 67.3503 15.7113 67.3503 11.7489C67.3503 5.27791 62.1046 0.0321181 55.6335 0.0321179C53.1409 0.0321178 50.83 0.810519 48.9307 2.13751L51.4346 5.71349Z" fill="url(#paint4_linear_667_95)"/>
<path fillRule="evenodd" clipRule="evenodd" d="M48.8582 2.12686C45.8475 4.24737 43.8806 7.75036 43.8806 11.7127C43.8806 18.1837 49.1264 23.4295 55.5974 23.4295C58.0901 23.4295 60.401 22.6511 62.3003 21.3241L59.7963 17.7482C58.6059 18.5779 57.1585 19.0644 55.5974 19.0644C51.5372 19.0644 48.2457 15.773 48.2457 11.7127C48.2457 9.22951 49.4769 7.03384 51.3621 5.70284L48.86 2.12948L48.8582 2.12686Z" fill="url(#paint5_linear_667_95)"/>
<path d="M51.9203 2.6509C52.5946 3.61045 52.387 4.92382 51.4658 5.63094C51.4402 5.65059 51.4141 5.66977 51.3874 5.68846C50.4 6.37984 49.0377 6.14083 48.3446 5.15461C47.6557 4.17427 47.8874 2.82463 48.86 2.12948C48.8658 2.12532 48.8717 2.12117 48.8776 2.11705C49.865 1.42567 51.2273 1.66468 51.9203 2.6509Z" fill="url(#paint6_linear_667_95)"/>
<path fillRule="evenodd" clipRule="evenodd" d="M59.7963 17.7482C58.6059 18.5779 57.1585 19.0644 55.5974 19.0644C51.5372 19.0644 48.2457 15.773 48.2457 11.7127C48.2457 9.22951 49.4769 7.03384 51.3621 5.70284C51.3965 5.67858 51.431 5.65462 51.4658 5.63094C52.387 4.92382 52.5946 3.61045 51.9203 2.6509C51.2273 1.66468 49.865 1.42567 48.8776 2.11705C48.8717 2.12117 48.8658 2.12532 48.86 2.12948L48.8582 2.12686C45.8475 4.24737 43.8806 7.75036 43.8806 11.7127C43.8806 18.1837 49.1264 23.4295 55.5974 23.4295C58.0901 23.4295 60.401 22.6511 62.3003 21.3241L59.7963 17.7482Z" fill="url(#paint7_linear_667_95)"/>
<path d="M62.8577 18.2709C63.5507 19.2571 63.3121 20.6171 62.3247 21.3085C61.3373 21.9999 59.9751 21.7608 59.282 20.7746C58.5889 19.7884 58.8275 18.4284 59.8149 17.7371C60.8023 17.0457 62.1646 17.2847 62.8577 18.2709Z" fill="#0092C1"/>
<path d="M48.3735 5.19072C47.6805 4.20451 47.9191 2.84455 48.9065 2.15317C49.8939 1.46179 51.2561 1.7008 51.9492 2.68701C52.6423 3.67323 52.4037 5.03319 51.4163 5.72457C50.4289 6.41595 49.0666 6.17694 48.3735 5.19072Z" fill="#0092C1"/>
<path d="M20.988 11.8487C20.988 10.2017 21.2926 8.65868 21.9016 7.21956C22.5107 5.78045 23.3441 4.52522 24.4019 3.45388C25.4758 2.38253 26.726 1.54305 28.1524 0.935425C29.5949 0.311808 31.1416 0 32.7925 0C34.3311 0 35.7897 0.271833 37.168 0.815499C38.5625 1.35916 39.7645 2.13469 40.7743 3.14207C41.0307 3.4139 41.2231 3.70172 41.3513 4.00554C41.4795 4.30935 41.5436 4.60517 41.5436 4.89299C41.5436 5.21279 41.4715 5.50861 41.3272 5.78045C41.183 6.03629 40.9987 6.25216 40.7743 6.42805C40.5659 6.60394 40.3335 6.73986 40.0771 6.8358C39.8367 6.93174 39.6123 6.97971 39.4039 6.97971C39.0513 6.97971 38.7147 6.89176 38.3942 6.71587L36.7113 5.51661C35.99 5.05289 35.2848 4.74108 34.5956 4.58118C33.9064 4.40529 33.1771 4.31735 32.4078 4.31735C31.4141 4.34933 30.4845 4.57319 29.619 4.98893C28.7535 5.40468 28.0002 5.95634 27.3591 6.64391C26.734 7.3155 26.2371 8.09102 25.8685 8.97048C25.5159 9.84994 25.3396 10.7614 25.3396 11.7048C25.3396 12.6642 25.5159 13.5916 25.8685 14.4871C26.2371 15.3825 26.742 16.1741 27.3831 16.8616C28.0402 17.5332 28.8096 18.0769 29.6911 18.4926C30.5726 18.9084 31.5423 19.1162 32.6001 19.1162C33.3214 19.1162 34.0186 19.0363 34.6918 18.8764C35.3649 18.7005 36.0381 18.3807 36.7113 17.917L38.3942 16.7417C38.5544 16.6618 38.7227 16.5978 38.899 16.5498C39.0754 16.4859 39.2517 16.4539 39.428 16.4539C39.6363 16.4539 39.8607 16.5019 40.1011 16.5978C40.3576 16.6937 40.59 16.8376 40.7983 17.0295C41.0067 17.2054 41.175 17.4213 41.3032 17.6771C41.4475 17.933 41.5196 18.2208 41.5196 18.5406C41.5196 18.8444 41.4555 19.1482 41.3272 19.452C41.2151 19.7559 41.0307 20.0357 40.7743 20.2915C39.7806 21.2989 38.5785 22.0744 37.168 22.6181C35.7736 23.1458 34.3151 23.4096 32.7925 23.4096C31.1576 23.4096 29.627 23.1138 28.2005 22.5222C26.7741 21.9145 25.5239 21.091 24.45 20.0517C23.3762 19.0123 22.5267 17.7891 21.9016 16.3819C21.2926 14.9748 20.988 13.4637 20.988 11.8487Z" fill="url(#paint8_radial_667_95)"/>
<path d="M11.4679 13.5037H8.48669H7.11632C6.15465 13.5037 5.26511 13.3198 4.4477 12.952C3.63028 12.5683 2.91705 12.0646 2.308 11.441C1.71497 10.8014 1.25016 10.0658 0.913582 9.23432C0.576999 8.40283 0.408708 7.52338 0.408708 6.59595C0.408708 5.68451 0.585013 4.82903 0.937623 4.02952C1.29023 3.23001 1.76305 2.53444 2.35608 1.94281C2.96513 1.33518 3.67837 0.863469 4.49578 0.527676C5.3132 0.175892 6.18671 0 7.11632 0H15.4588C16.0358 0 16.5326 0.175892 16.9493 0.527676C17.3661 0.879459 17.5744 1.39114 17.5744 2.06273C17.5744 2.36655 17.5183 2.65437 17.4061 2.9262C17.31 3.18204 17.1657 3.4139 16.9734 3.62177C16.7971 3.81366 16.5887 3.96556 16.3483 4.07749C16.1079 4.18942 15.8514 4.24539 15.579 4.24539H15.4588H7.14036C6.78775 4.24539 6.45918 4.31735 6.15465 4.46126C5.86616 4.58918 5.60971 4.77307 5.38532 5.01292C5.16093 5.23678 4.98463 5.50062 4.85641 5.80443C4.72819 6.09225 4.66407 6.40406 4.66407 6.73986C4.66407 7.10763 4.72819 7.44342 4.85641 7.74724C4.98463 8.05105 5.16093 8.31489 5.38532 8.53875C5.62574 8.74662 5.8902 8.91452 6.1787 9.04244C6.48322 9.17036 6.80378 9.23432 7.14036 9.23432H8.53478H11.9727C12.9504 9.23432 13.856 9.42621 14.6894 9.80997C15.5229 10.1777 16.2361 10.6814 16.8291 11.321C17.4382 11.9606 17.911 12.7042 18.2476 13.5517C18.6002 14.3991 18.7765 15.2866 18.7765 16.214C18.7765 17.1575 18.6002 18.0529 18.2476 18.9004C17.911 19.7319 17.4382 20.4674 16.8291 21.107C16.2201 21.7306 15.4908 22.2263 14.6413 22.5941C13.8079 22.9619 12.9023 23.1458 11.9246 23.1458H1.94737C1.3864 23.1458 0.921595 22.9459 0.552957 22.5461C0.184319 22.1464 0 21.6267 0 20.9871C0 20.3475 0.184319 19.8438 0.552957 19.476C0.921595 19.1083 1.3864 18.9244 1.94737 18.9244H11.564C11.9166 18.9244 12.2692 18.8684 12.6219 18.7565C12.9745 18.6285 13.295 18.4447 13.5835 18.2048C13.872 17.965 14.1044 17.6771 14.2807 17.3413C14.457 16.9896 14.5452 16.5818 14.5452 16.1181C14.5452 15.6704 14.457 15.2866 14.2807 14.9668C14.1204 14.647 13.8961 14.3832 13.6076 14.1753C13.3351 13.9674 13.0225 13.8075 12.6699 13.6956C12.3173 13.5836 11.9567 13.5197 11.5881 13.5037H11.54H11.4679Z" fill="url(#paint9_radial_667_95)"/>
<defs>
<radialGradient id="paint0_radial_667_95" cx="0" cy="0" r="1" gradientUnits="userSpaceOnUse" gradientTransform="translate(108.098 11.6256) rotate(180) scale(25.0803 31.6609)">
<stop offset="0.15" stop-color="white"/>
<stop offset="0.920224" stop-color="white" stop-opacity="0.5"/>
</radialGradient>
<radialGradient id="paint1_radial_667_95" cx="0" cy="0" r="1" gradientUnits="userSpaceOnUse" gradientTransform="translate(84.4677 11.4829) rotate(180) scale(15.4833 31.272)">
<stop offset="0.15" stop-color="white"/>
<stop offset="0.920224" stop-color="white" stop-opacity="0.5"/>
</radialGradient>
<linearGradient id="paint2_linear_667_95" x1="51.4983" y1="6.34977" x2="60.1044" y2="25.1484" gradientUnits="userSpaceOnUse">
<stop stop-color="#0092C1"/>
<stop offset="0.807075" stop-color="#0092C1" stop-opacity="0"/>
</linearGradient>
<linearGradient id="paint3_linear_667_95" x1="51.4983" y1="6.34977" x2="60.1044" y2="25.1484" gradientUnits="userSpaceOnUse">
<stop stop-color="#0092C1"/>
<stop offset="0.807075" stop-color="#0092C1" stop-opacity="0"/>
</linearGradient>
<linearGradient id="paint4_linear_667_95" x1="51.4983" y1="6.34977" x2="60.1044" y2="25.1484" gradientUnits="userSpaceOnUse">
<stop stop-color="#0092C1"/>
<stop offset="0.807075" stop-color="#0092C1" stop-opacity="0"/>
</linearGradient>
<linearGradient id="paint5_linear_667_95" x1="59.7326" y1="17.1119" x2="51.1266" y2="-1.68677" gradientUnits="userSpaceOnUse">
<stop stop-color="#0092C1"/>
<stop offset="0.807075" stop-color="#0092C1" stop-opacity="0"/>
</linearGradient>
<linearGradient id="paint6_linear_667_95" x1="59.7326" y1="17.1119" x2="51.1266" y2="-1.68677" gradientUnits="userSpaceOnUse">
<stop stop-color="#0092C1"/>
<stop offset="0.807075" stop-color="#0092C1" stop-opacity="0"/>
</linearGradient>
<linearGradient id="paint7_linear_667_95" x1="59.7326" y1="17.1119" x2="51.1266" y2="-1.68677" gradientUnits="userSpaceOnUse">
<stop stop-color="#0092C1"/>
<stop offset="0.807075" stop-color="#0092C1" stop-opacity="0"/>
</linearGradient>
<radialGradient id="paint8_radial_667_95" cx="0" cy="0" r="1" gradientUnits="userSpaceOnUse" gradientTransform="translate(40.6058 11.6137) rotate(180) scale(21.8813 31.6285)">
<stop offset="0.15" stop-color="white"/>
<stop offset="0.920224" stop-color="white" stop-opacity="0.5"/>
</radialGradient>
<radialGradient id="paint9_radial_667_95" cx="0" cy="0" r="1" gradientUnits="userSpaceOnUse" gradientTransform="translate(17.9198 11.4829) rotate(180) scale(19.9875 31.272)">
<stop offset="0.15" stop-color="white"/>
<stop offset="0.920224" stop-color="white" stop-opacity="0.5"/>
</radialGradient>
</defs>
</svg>
