<svg width="19" height="15" viewBox="0 0 19 15" fill="none" xmlns="http://www.w3.org/2000/svg">
<path d="M0 4.557V12C0 12.7956 0.319833 13.5587 0.88914 14.1213C1.45845 14.6839 2.23059 15 3.03571 15H15.1786C15.9837 15 16.7558 14.6839 17.3251 14.1213C17.8945 13.5587 18.2143 12.7956 18.2143 12V3C18.2143 2.20435 17.8945 1.44129 17.3251 0.87868C16.7558 0.31607 15.9837 0 15.1786 0H3.03571C2.23059 0 1.45845 0.31607 0.88914 0.87868C0.319833 1.44129 0 2.20435 0 3V4.557ZM3.03571 1.5H15.1786C15.5811 1.5 15.9672 1.65804 16.2519 1.93934C16.5365 2.22064 16.6964 2.60218 16.6964 3V4.11L9.10714 8.148L1.51786 4.11V3C1.51786 2.60218 1.67777 2.22064 1.96243 1.93934C2.24708 1.65804 2.63315 1.5 3.03571 1.5ZM1.51786 5.814L8.74741 9.66C8.85797 9.71882 8.98158 9.74961 9.10714 9.74961C9.23271 9.74961 9.35631 9.71882 9.46688 9.66L16.6964 5.814V12C16.6964 12.3978 16.5365 12.7794 16.2519 13.0607C15.9672 13.342 15.5811 13.5 15.1786 13.5H3.03571C2.63315 13.5 2.24708 13.342 1.96243 13.0607C1.67777 12.7794 1.51786 12.3978 1.51786 12V5.814Z" fill="#7BA4B1"/>
</svg>
