<svg width="15" height="31" viewBox="0 0 15 31" fill="none" xmlns="http://www.w3.org/2000/svg">
<path fillRule="evenodd" clipRule="evenodd" d="M4.40795 0.045C5.20773 0.00818181 5.46273 0 7.5 0C9.53727 0 9.79227 0.00886363 10.5914 0.045C11.3905 0.0811364 11.9359 0.208636 12.4132 0.393409C12.913 0.582273 13.3664 0.8775 13.7414 1.25932C14.1232 1.63364 14.4177 2.08636 14.6059 2.58682C14.7914 3.06409 14.9182 3.60955 14.955 4.40727C14.9918 5.20841 15 5.46341 15 7.5C15 9.53727 14.9911 9.79227 14.955 10.592C14.9189 11.3898 14.7914 11.9352 14.6059 12.4125C14.4177 12.913 14.1227 13.3665 13.7414 13.7414C13.3664 14.1232 12.913 14.4177 12.4132 14.6059C11.9359 14.7914 11.3905 14.9182 10.5927 14.955C9.79227 14.9918 9.53727 15 7.5 15C5.46273 15 5.20773 14.9911 4.40795 14.955C3.61023 14.9189 3.06477 14.7914 2.5875 14.6059C2.08699 14.4177 1.63351 14.1227 1.25864 13.7414C0.877077 13.3668 0.581805 12.9136 0.393409 12.4132C0.208636 11.9359 0.0818182 11.3905 0.045 10.5927C0.00818181 9.79159 0 9.53659 0 7.5C0 5.46273 0.00886363 5.20773 0.045 4.40864C0.0811364 3.60955 0.208636 3.06409 0.393409 2.58682C0.582084 2.08642 0.877581 1.63317 1.25932 1.25864C1.63366 0.87716 2.08669 0.581893 2.58682 0.393409C3.06409 0.208636 3.61023 0.0818182 4.40795 0.045ZM10.5307 1.395C9.73977 1.35886 9.5025 1.35136 7.5 1.35136C5.4975 1.35136 5.26023 1.35886 4.46932 1.395C3.73773 1.42841 3.34091 1.55045 3.07636 1.65341C2.72659 1.78977 2.47636 1.95136 2.21386 2.21386C1.96503 2.45594 1.77353 2.75065 1.65341 3.07636C1.55045 3.34091 1.42841 3.73773 1.395 4.46932C1.35886 5.26023 1.35136 5.4975 1.35136 7.5C1.35136 9.5025 1.35886 9.73977 1.395 10.5307C1.42841 11.2623 1.55045 11.6591 1.65341 11.9236C1.77341 12.2489 1.965 12.5441 2.21386 12.7861C2.45591 13.035 2.75114 13.2266 3.07636 13.3466C3.34091 13.4495 3.73773 13.5716 4.46932 13.605C5.26023 13.6411 5.49682 13.6486 7.5 13.6486C9.50318 13.6486 9.73977 13.6411 10.5307 13.605C11.2623 13.5716 11.6591 13.4495 11.9236 13.3466C12.2734 13.2102 12.5236 13.0486 12.7861 12.7861C13.035 12.5441 13.2266 12.2489 13.3466 11.9236C13.4495 11.6591 13.5716 11.2623 13.605 10.5307C13.6411 9.73977 13.6486 9.5025 13.6486 7.5C13.6486 5.4975 13.6411 5.26023 13.605 4.46932C13.5716 3.73773 13.4495 3.34091 13.3466 3.07636C13.2102 2.72659 13.0486 2.47636 12.7861 2.21386C12.544 1.96505 12.2493 1.77355 11.9236 1.65341C11.6591 1.55045 11.2623 1.42841 10.5307 1.395ZM6.54205 9.81205C7.07704 10.0347 7.67276 10.0648 8.22745 9.89708C8.78215 9.72936 9.2614 9.37426 9.58337 8.89244C9.90534 8.41062 10.05 7.83196 9.99276 7.2553C9.93548 6.67864 9.67978 6.13975 9.26932 5.73068C9.00766 5.46919 8.69128 5.26896 8.34295 5.14442C7.99463 5.01987 7.62302 4.97411 7.25488 5.01042C6.88675 5.04673 6.53124 5.16421 6.21396 5.35441C5.89667 5.5446 5.62551 5.80278 5.41998 6.11035C5.21445 6.41793 5.07967 6.76724 5.02535 7.13315C4.97103 7.49907 4.99851 7.87247 5.10582 8.22649C5.21313 8.5805 5.3976 8.90632 5.64595 9.18049C5.89429 9.45466 6.20033 9.67035 6.54205 9.81205ZM4.77409 4.77409C5.13206 4.41612 5.55704 4.13216 6.02475 3.93843C6.49246 3.7447 6.99375 3.64498 7.5 3.64498C8.00625 3.64498 8.50754 3.7447 8.97525 3.93843C9.44296 4.13216 9.86794 4.41612 10.2259 4.77409C10.5839 5.13206 10.8678 5.55704 11.0616 6.02475C11.2553 6.49246 11.355 6.99375 11.355 7.5C11.355 8.00625 11.2553 8.50754 11.0616 8.97525C10.8678 9.44296 10.5839 9.86794 10.2259 10.2259C9.50295 10.9489 8.52241 11.355 7.5 11.355C6.47759 11.355 5.49705 10.9489 4.77409 10.2259C4.05113 9.50295 3.64498 8.52241 3.64498 7.5C3.64498 6.47759 4.05113 5.49705 4.77409 4.77409ZM12.21 4.21909C12.2987 4.13541 12.3697 4.03478 12.4188 3.92316C12.468 3.81155 12.4942 3.69121 12.496 3.56927C12.4977 3.44733 12.475 3.32628 12.4292 3.21328C12.3833 3.10028 12.3153 2.99762 12.2291 2.91139C12.1428 2.82516 12.0402 2.75711 11.9272 2.71126C11.8142 2.66542 11.6931 2.64271 11.5712 2.64449C11.4492 2.64627 11.3289 2.67249 11.2173 2.72161C11.1057 2.77073 11.005 2.84175 10.9214 2.93045C10.7586 3.10297 10.6695 3.33213 10.673 3.56927C10.6764 3.80641 10.7722 4.03287 10.9399 4.20057C11.1076 4.36828 11.334 4.46402 11.5712 4.46748C11.8083 4.47093 12.0375 4.38183 12.21 4.21909Z" fill="#7BA4B1"/>
<path fillRule="evenodd" clipRule="evenodd" d="M4.40795 16.045C5.20773 16.0082 5.46273 16 7.5 16C9.53727 16 9.79227 16.0089 10.5914 16.045C11.3905 16.0811 11.9359 16.2086 12.4132 16.3934C12.913 16.5823 13.3664 16.8775 13.7414 17.2593C14.1232 17.6336 14.4177 18.0864 14.6059 18.5868C14.7914 19.0641 14.9182 19.6095 14.955 20.4073C14.9918 21.2084 15 21.4634 15 23.5C15 25.5373 14.9911 25.7923 14.955 26.592C14.9189 27.3898 14.7914 27.9352 14.6059 28.4125C14.4177 28.913 14.1227 29.3665 13.7414 29.7414C13.3664 30.1232 12.913 30.4177 12.4132 30.6059C11.9359 30.7914 11.3905 30.9182 10.5927 30.955C9.79227 30.9918 9.53727 31 7.5 31C5.46273 31 5.20773 30.9911 4.40795 30.955C3.61023 30.9189 3.06477 30.7914 2.5875 30.6059C2.08699 30.4177 1.63351 30.1227 1.25864 29.7414C0.877077 29.3668 0.581805 28.9136 0.393409 28.4132C0.208636 27.9359 0.0818182 27.3905 0.045 26.5927C0.00818181 25.7916 0 25.5366 0 23.5C0 21.4627 0.00886363 21.2077 0.045 20.4086C0.0811364 19.6095 0.208636 19.0641 0.393409 18.5868C0.582084 18.0864 0.877581 17.6332 1.25932 17.2586C1.63366 16.8772 2.08669 16.5819 2.58682 16.3934C3.06409 16.2086 3.61023 16.0818 4.40795 16.045ZM10.5307 17.395C9.73977 17.3589 9.5025 17.3514 7.5 17.3514C5.4975 17.3514 5.26023 17.3589 4.46932 17.395C3.73773 17.4284 3.34091 17.5505 3.07636 17.6534C2.72659 17.7898 2.47636 17.9514 2.21386 18.2139C1.96503 18.4559 1.77353 18.7506 1.65341 19.0764C1.55045 19.3409 1.42841 19.7377 1.395 20.4693C1.35886 21.2602 1.35136 21.4975 1.35136 23.5C1.35136 25.5025 1.35886 25.7398 1.395 26.5307C1.42841 27.2623 1.55045 27.6591 1.65341 27.9236C1.77341 28.2489 1.965 28.5441 2.21386 28.7861C2.45591 29.035 2.75114 29.2266 3.07636 29.3466C3.34091 29.4495 3.73773 29.5716 4.46932 29.605C5.26023 29.6411 5.49682 29.6486 7.5 29.6486C9.50318 29.6486 9.73977 29.6411 10.5307 29.605C11.2623 29.5716 11.6591 29.4495 11.9236 29.3466C12.2734 29.2102 12.5236 29.0486 12.7861 28.7861C13.035 28.5441 13.2266 28.2489 13.3466 27.9236C13.4495 27.6591 13.5716 27.2623 13.605 26.5307C13.6411 25.7398 13.6486 25.5025 13.6486 23.5C13.6486 21.4975 13.6411 21.2602 13.605 20.4693C13.5716 19.7377 13.4495 19.3409 13.3466 19.0764C13.2102 18.7266 13.0486 18.4764 12.7861 18.2139C12.544 17.965 12.2493 17.7736 11.9236 17.6534C11.6591 17.5505 11.2623 17.4284 10.5307 17.395ZM6.54205 25.812C7.07704 26.0347 7.67276 26.0648 8.22745 25.8971C8.78215 25.7294 9.2614 25.3743 9.58337 24.8924C9.90534 24.4106 10.05 23.832 9.99276 23.2553C9.93548 22.6786 9.67978 22.1398 9.26932 21.7307C9.00766 21.4692 8.69128 21.269 8.34295 21.1444C7.99463 21.0199 7.62302 20.9741 7.25488 21.0104C6.88675 21.0467 6.53124 21.1642 6.21396 21.3544C5.89667 21.5446 5.62551 21.8028 5.41998 22.1104C5.21445 22.4179 5.07967 22.7672 5.02535 23.1332C4.97103 23.4991 4.99851 23.8725 5.10582 24.2265C5.21313 24.5805 5.3976 24.9063 5.64595 25.1805C5.89429 25.4547 6.20033 25.6704 6.54205 25.812ZM4.77409 20.7741C5.13206 20.4161 5.55704 20.1322 6.02475 19.9384C6.49246 19.7447 6.99375 19.645 7.5 19.645C8.00625 19.645 8.50754 19.7447 8.97525 19.9384C9.44296 20.1322 9.86794 20.4161 10.2259 20.7741C10.5839 21.1321 10.8678 21.557 11.0616 22.0247C11.2553 22.4925 11.355 22.9938 11.355 23.5C11.355 24.0062 11.2553 24.5075 11.0616 24.9753C10.8678 25.443 10.5839 25.8679 10.2259 26.2259C9.50295 26.9489 8.52241 27.355 7.5 27.355C6.47759 27.355 5.49705 26.9489 4.77409 26.2259C4.05113 25.503 3.64498 24.5224 3.64498 23.5C3.64498 22.4776 4.05113 21.497 4.77409 20.7741ZM12.21 20.2191C12.2987 20.1354 12.3697 20.0348 12.4188 19.9232C12.468 19.8115 12.4942 19.6912 12.496 19.5693C12.4977 19.4473 12.475 19.3263 12.4292 19.2133C12.3833 19.1003 12.3153 18.9976 12.2291 18.9114C12.1428 18.8252 12.0402 18.7571 11.9272 18.7113C11.8142 18.6654 11.6931 18.6427 11.5712 18.6445C11.4492 18.6463 11.3289 18.6725 11.2173 18.7216C11.1057 18.7707 11.005 18.8417 10.9214 18.9305C10.7586 19.103 10.6695 19.3321 10.673 19.5693C10.6764 19.8064 10.7722 20.0329 10.9399 20.2006C11.1076 20.3683 11.334 20.464 11.5712 20.4675C11.8083 20.4709 12.0375 20.3818 12.21 20.2191Z" fill="white"/>
</svg>
