<svg width="19" height="31" viewBox="0 0 19 31" fill="none" xmlns="http://www.w3.org/2000/svg">
<path d="M0 4.557V12C0 12.7956 0.319833 13.5587 0.88914 14.1213C1.45845 14.6839 2.23059 15 3.03571 15H15.1786C15.9837 15 16.7558 14.6839 17.3251 14.1213C17.8945 13.5587 18.2143 12.7956 18.2143 12V3C18.2143 2.20435 17.8945 1.44129 17.3251 0.878679C16.7558 0.31607 15.9837 0 15.1786 0H3.03571C2.23059 0 1.45845 0.31607 0.88914 0.878679C0.319833 1.44129 0 2.20435 0 3V4.557ZM3.03571 1.5H15.1786C15.5811 1.5 15.9672 1.65804 16.2519 1.93934C16.5365 2.22064 16.6964 2.60218 16.6964 3V4.11L9.10714 8.148L1.51786 4.11V3C1.51786 2.60218 1.67777 2.22064 1.96243 1.93934C2.24708 1.65804 2.63315 1.5 3.03571 1.5ZM1.51786 5.814L8.74741 9.66C8.85797 9.71882 8.98158 9.74961 9.10714 9.74961C9.23271 9.74961 9.35631 9.71882 9.46688 9.66L16.6964 5.814V12C16.6964 12.3978 16.5365 12.7794 16.2519 13.0607C15.9672 13.342 15.5811 13.5 15.1786 13.5H3.03571C2.63315 13.5 2.24708 13.342 1.96243 13.0607C1.67777 12.7794 1.51786 12.3978 1.51786 12V5.814Z" fill="#7BA4B1"/>
<path d="M0 20.557V28C0 28.7956 0.319833 29.5587 0.88914 30.1213C1.45845 30.6839 2.23059 31 3.03571 31H15.1786C15.9837 31 16.7558 30.6839 17.3251 30.1213C17.8945 29.5587 18.2143 28.7956 18.2143 28V19C18.2143 18.2044 17.8945 17.4413 17.3251 16.8787C16.7558 16.3161 15.9837 16 15.1786 16H3.03571C2.23059 16 1.45845 16.3161 0.88914 16.8787C0.319833 17.4413 0 18.2044 0 19V20.557ZM3.03571 17.5H15.1786C15.5811 17.5 15.9672 17.658 16.2519 17.9393C16.5365 18.2206 16.6964 18.6022 16.6964 19V20.11L9.10714 24.148L1.51786 20.11V19C1.51786 18.6022 1.67777 18.2206 1.96243 17.9393C2.24708 17.658 2.63315 17.5 3.03571 17.5ZM1.51786 21.814L8.74741 25.66C8.85797 25.7188 8.98158 25.7496 9.10714 25.7496C9.23271 25.7496 9.35631 25.7188 9.46688 25.66L16.6964 21.814V28C16.6964 28.3978 16.5365 28.7794 16.2519 29.0607C15.9672 29.342 15.5811 29.5 15.1786 29.5H3.03571C2.63315 29.5 2.24708 29.342 1.96243 29.0607C1.67777 28.7794 1.51786 28.3978 1.51786 28V21.814Z" fill="white"/>
</svg>
