<svg width="9" height="31" viewBox="0 0 9 31" fill="none" xmlns="http://www.w3.org/2000/svg">
<path d="M5.71429 8.625H7.7551L8.57143 5.625H5.71429V4.125C5.71429 3.3525 5.71429 2.625 7.34694 2.625H8.57143V0.105C8.30531 0.0727501 7.30041 0 6.23918 0C4.02286 0 2.44898 1.24275 2.44898 3.525V5.625H0V8.625H2.44898V15H5.71429V8.625Z" fill="#7BA4B1"/>
<path d="M5.71429 24.625H7.7551L8.57143 21.625H5.71429V20.125C5.71429 19.3525 5.71429 18.625 7.34694 18.625H8.57143V16.105C8.30531 16.0728 7.30041 16 6.23918 16C4.02286 16 2.44898 17.2427 2.44898 19.525V21.625H0V24.625H2.44898V31H5.71429V24.625Z" fill="white"/>
</svg>
