<svg width="18" height="31" viewBox="0 0 18 31" fill="none" xmlns="http://www.w3.org/2000/svg">
<path d="M13.5 0H16.1293L10.3864 6.35379L17.1429 15H11.8532L7.71 9.75517L2.96893 15H0.338571L6.48107 8.20345L0 0H5.42464L9.16929 4.79276L13.5 0ZM12.5786 13.4772H14.0357L4.63179 1.4431H3.06964L12.5786 13.4772Z" fill="#7BA4B1"/>
<path d="M13.5 16H16.1293L10.3864 22.3538L17.1429 31H11.8532L7.71 25.7552L2.96893 31H0.338571L6.48107 24.2034L0 16H5.42464L9.16929 20.7928L13.5 16ZM12.5786 29.4772H14.0357L4.63179 17.4431H3.06964L12.5786 29.4772Z" fill="white"/>
</svg>
